<svg width="922" height="1008" viewBox="0 0 922 1008" fill="none" xmlns="http://www.w3.org/2000/svg">
<path d="M468.07 517.024C503.224 498.346 528.567 477.268 524.676 469.944C520.785 462.62 489.132 471.825 453.978 490.502C418.824 509.18 393.48 530.259 397.371 537.582C401.263 544.906 432.915 535.702 468.07 517.024Z" stroke="url(#paint0_linear_3_58)" stroke-width="2" stroke-miterlimit="10"/>
<path d="M468.612 517.353C506.169 496.44 533.236 473.416 529.067 465.929C524.898 458.442 491.071 469.325 453.514 490.238C415.956 511.152 388.89 534.175 393.059 541.662C397.228 549.149 431.054 538.266 468.612 517.353Z" stroke="url(#paint1_linear_3_58)" stroke-width="2" stroke-miterlimit="10"/>
<path d="M469.313 517.578C509.454 494.213 538.386 469.073 533.935 461.428C529.485 453.782 493.337 466.525 453.197 489.89C413.057 513.255 384.124 538.395 388.575 546.04C393.026 553.686 429.173 540.943 469.313 517.578Z" stroke="url(#paint2_linear_3_58)" stroke-width="2" stroke-miterlimit="10"/>
<path d="M469.435 518.028C512.206 492.064 543.041 464.695 538.307 456.897C533.573 449.099 495.063 463.825 452.292 489.788C409.521 515.752 378.686 543.122 383.42 550.92C388.154 558.718 426.664 543.991 469.435 518.028Z" stroke="url(#paint3_linear_3_58)" stroke-width="2" stroke-miterlimit="10"/>
<path d="M470.231 518.264C515.687 489.541 548.466 459.815 543.445 451.869C538.424 443.923 497.504 460.766 452.049 489.489C406.593 518.212 373.814 547.938 378.835 555.884C383.856 563.83 424.776 546.987 470.231 518.264Z" stroke="url(#paint4_linear_3_58)" stroke-width="2" stroke-miterlimit="10"/>
<path d="M470.647 518.387C518.942 486.673 553.788 454.408 548.477 446.32C543.166 438.233 499.71 457.385 451.414 489.099C403.119 520.812 368.273 553.078 373.584 561.165C378.895 569.253 422.351 550.101 470.647 518.387Z" stroke="url(#paint5_linear_3_58)" stroke-width="2" stroke-miterlimit="10"/>
<path d="M471.081 519.011C522.254 484.148 559.133 449.127 553.452 440.788C547.772 432.45 501.683 453.952 450.509 488.815C399.336 523.677 362.457 558.699 368.137 567.037C373.818 575.376 419.908 553.874 471.081 519.011Z" stroke="url(#paint6_linear_3_58)" stroke-width="2" stroke-miterlimit="10"/>
<path d="M471.767 519.386C525.965 481.124 564.991 443.15 558.932 434.569C552.874 425.987 504.027 450.048 449.829 488.31C395.63 526.572 356.605 564.546 362.663 573.127C368.721 581.709 417.569 557.648 471.767 519.386Z" stroke="url(#paint7_linear_3_58)" stroke-width="2" stroke-miterlimit="10"/>
<path d="M472.636 519.685C529.776 477.931 570.873 436.936 564.431 428.12C557.988 419.303 506.445 446.004 449.306 487.758C392.167 529.512 351.069 570.508 357.511 579.324C363.954 588.14 415.497 561.439 472.636 519.685Z" stroke="url(#paint8_linear_3_58)" stroke-width="2" stroke-miterlimit="10"/>
<path d="M473.409 520.436C533.626 474.943 576.902 430.733 570.07 421.689C563.238 412.646 508.884 442.194 448.668 487.686C388.451 533.179 345.174 577.389 352.007 586.433C358.839 595.476 413.193 565.928 473.409 520.436Z" stroke="url(#paint9_linear_3_58)" stroke-width="2" stroke-miterlimit="10"/>
<path d="M474.511 520.696C537.926 471.19 583.403 423.461 576.088 414.091C568.773 404.72 511.435 437.256 448.02 486.762C384.605 536.268 339.128 583.996 346.443 593.367C353.758 602.738 411.096 570.201 474.511 520.696Z" stroke="url(#paint10_linear_3_58)" stroke-width="2" stroke-miterlimit="10"/>
<path d="M475.085 521.496C541.594 467.895 589.182 416.59 581.376 406.905C573.57 397.219 513.326 432.82 446.817 486.421C380.309 540.023 332.721 591.327 340.527 601.013C348.333 610.699 408.577 575.098 475.085 521.496Z" stroke="url(#paint11_linear_3_58)" stroke-width="2" stroke-miterlimit="10"/>
<path d="M475.789 521.913C545.499 463.936 595.275 408.84 586.967 398.851C578.66 388.862 515.414 427.764 445.705 485.74C375.995 543.717 326.219 598.813 334.527 608.802C342.834 618.791 406.08 579.889 475.789 521.913Z" stroke="url(#paint12_linear_3_58)" stroke-width="2" stroke-miterlimit="10"/>
<path d="M476.968 522.318C549.88 459.77 601.838 400.731 593.018 390.45C584.198 380.169 517.942 422.539 445.029 485.086C372.117 547.633 320.159 606.672 328.979 616.954C337.798 627.235 404.055 584.865 476.968 522.318Z" stroke="url(#paint13_linear_3_58)" stroke-width="2" stroke-miterlimit="10"/>
<path d="M478.198 523.176C554.405 455.779 608.537 392.498 599.105 381.833C589.673 371.168 520.249 417.158 444.042 484.555C367.836 551.952 313.704 615.233 323.136 625.898C332.568 636.563 401.992 590.572 478.198 523.176Z" stroke="url(#paint14_linear_3_58)" stroke-width="2" stroke-miterlimit="10"/>
<path d="M479.363 524.036C558.73 451.682 614.842 384.002 604.692 372.868C594.542 361.734 521.974 411.363 442.607 483.717C363.239 556.071 307.128 623.751 317.278 634.885C327.428 646.019 399.996 596.39 479.363 524.036Z" stroke="url(#paint15_linear_3_58)" stroke-width="2" stroke-miterlimit="10"/>
<path d="M480.9 524.712C563.402 447.19 621.46 374.955 610.575 363.371C599.689 351.786 523.984 405.239 441.481 482.76C358.978 560.282 300.921 632.517 311.806 644.102C322.691 655.686 398.397 602.234 480.9 524.712Z" stroke="url(#paint16_linear_3_58)" stroke-width="2" stroke-miterlimit="10"/>
<path d="M482.245 525.472C567.841 442.581 627.797 365.645 616.161 353.63C604.526 341.615 525.705 399.071 440.11 481.961C354.515 564.852 294.558 641.788 306.194 653.803C317.829 665.818 396.65 608.362 482.245 525.472Z" stroke="url(#paint17_linear_3_58)" stroke-width="2" stroke-miterlimit="10"/>
<path d="M483.611 526.626C572.345 438.067 634.147 356.124 621.65 343.602C609.152 331.079 527.087 392.719 438.352 481.278C349.617 569.837 287.815 651.78 300.313 664.303C312.811 676.825 394.876 615.185 483.611 526.626Z" stroke="url(#paint18_linear_3_58)" stroke-width="2" stroke-miterlimit="10"/>
<path d="M485.318 527.407C576.937 433.145 640.362 346.187 626.981 333.181C613.6 320.175 528.48 386.046 436.861 480.308C345.241 574.57 281.816 661.528 295.197 674.533C308.578 687.539 393.698 621.669 485.318 527.407Z" stroke="url(#paint19_linear_3_58)" stroke-width="2" stroke-miterlimit="10"/>
<path d="M487.198 528.421C581.72 428.139 646.603 335.777 632.119 322.125C617.635 308.473 529.269 378.701 434.747 478.983C340.225 579.265 275.342 671.627 289.826 685.279C304.31 698.931 392.677 628.703 487.198 528.421Z" stroke="url(#paint20_linear_3_58)" stroke-width="2" stroke-miterlimit="10"/>
<path d="M489.132 529.503C586.385 423.08 652.652 325.318 637.143 311.145C621.634 296.972 530.221 371.755 432.967 478.177C335.714 584.6 269.447 682.362 284.956 696.535C300.466 710.708 391.878 635.925 489.132 529.503Z" stroke="url(#paint21_linear_3_58)" stroke-width="2" stroke-miterlimit="10"/>
<path d="M491.253 530.477C591.035 417.781 658.334 314.389 641.569 299.545C624.804 284.702 530.324 364.027 430.543 476.724C330.761 589.421 263.462 692.813 280.227 707.656C296.992 722.5 391.471 643.174 491.253 530.477Z" stroke="url(#paint22_linear_3_58)" stroke-width="2" stroke-miterlimit="10"/>
<path d="M493.964 532.106C596.184 412.913 664.334 303.668 646.183 288.101C628.031 272.534 530.45 356.54 428.231 475.733C326.011 594.927 257.86 704.172 276.012 719.739C294.164 735.306 391.744 651.3 493.964 532.106Z" stroke="url(#paint23_linear_3_58)" stroke-width="2" stroke-miterlimit="10"/>
<path d="M496.322 533.313C600.655 407.594 669.368 292.512 649.798 276.271C630.227 260.029 529.784 348.778 425.451 474.498C321.118 600.217 252.404 715.299 271.975 731.54C291.545 747.781 391.989 659.032 496.322 533.313Z" stroke="url(#paint24_linear_3_58)" stroke-width="2" stroke-miterlimit="10"/>
<path d="M499.411 534.409C605.718 401.907 674.68 280.679 653.441 263.639C632.202 246.599 528.805 340.199 422.498 472.701C316.19 605.203 247.229 726.43 268.468 743.471C289.707 760.511 393.104 666.911 499.411 534.409Z" stroke="url(#paint25_linear_3_58)" stroke-width="2" stroke-miterlimit="10"/>
<path d="M502.718 536.071C610.678 396.777 679.51 269.373 656.458 251.507C633.406 233.641 527.2 332.077 419.24 471.371C311.281 610.665 242.449 738.069 265.501 755.935C288.553 773.802 394.759 675.365 502.718 536.071Z" stroke="url(#paint26_linear_3_58)" stroke-width="2" stroke-miterlimit="10"/>
<path d="M506.454 537.981C615.807 391.763 684.087 257.996 658.961 239.205C633.835 220.414 524.817 323.714 415.464 469.932C306.11 616.151 237.831 749.918 262.957 768.709C288.083 787.5 397.1 684.2 506.454 537.981Z" stroke="url(#paint27_linear_3_58)" stroke-width="2" stroke-miterlimit="10"/>
<path d="M510.248 539.368C620.546 386.298 687.87 246.293 660.62 226.657C633.37 207.022 521.866 315.192 411.568 468.262C301.27 621.331 233.947 761.337 261.197 780.972C288.446 800.607 399.951 692.438 510.248 539.368Z" stroke="url(#paint28_linear_3_58)" stroke-width="2" stroke-miterlimit="10"/>
<path d="M514.664 541.141C625.615 381.092 691.433 234.622 661.673 213.991C631.912 193.36 517.842 306.38 406.891 466.429C295.939 626.478 230.121 772.948 259.882 793.579C289.643 814.21 403.712 701.19 514.664 541.141Z" stroke="url(#paint29_linear_3_58)" stroke-width="2" stroke-miterlimit="10"/>
<path d="M519.929 542.891C631.155 375.83 694.927 222.827 662.366 201.148C629.805 179.47 513.243 297.325 402.016 464.386C290.79 631.447 227.018 784.45 259.579 806.128C292.14 827.807 408.702 709.951 519.929 542.891Z" stroke="url(#paint30_linear_3_58)" stroke-width="2" stroke-miterlimit="10"/>
<path d="M525.469 544.7C636.567 370.619 697.821 211.111 662.282 188.43C626.743 165.749 507.87 288.484 396.772 462.566C285.673 636.648 224.42 796.156 259.959 818.836C295.497 841.517 414.37 718.782 525.469 544.7Z" stroke="url(#paint31_linear_3_58)" stroke-width="2" stroke-miterlimit="10"/>
<path d="M531.8 546.822C642.196 365.949 700.031 200.001 660.978 176.164C621.924 152.328 500.771 279.63 390.375 460.502C279.978 641.375 222.143 807.324 261.197 831.16C300.25 854.997 421.403 727.694 531.8 546.822Z" stroke="url(#paint32_linear_3_58)" stroke-width="2" stroke-miterlimit="10"/>
<path d="M538.55 548.912C647.818 361.255 701.73 188.943 658.967 164.043C616.204 139.143 492.958 271.084 383.69 458.742C274.422 646.399 220.51 818.711 263.273 843.611C306.037 868.511 429.282 736.57 538.55 548.912Z" stroke="url(#paint33_linear_3_58)" stroke-width="2" stroke-miterlimit="10"/>
<path d="M545.934 550.928C653.529 356.615 702.623 177.981 655.586 151.935C608.55 125.89 483.196 262.297 375.6 456.609C268.004 650.922 218.911 829.557 265.947 855.602C312.984 881.647 438.338 745.24 545.934 550.928Z" stroke="url(#paint34_linear_3_58)" stroke-width="2" stroke-miterlimit="10"/>
<path d="M554.984 553.318C660.41 352.49 703.811 167.605 651.921 140.365C600.031 113.125 472.501 253.845 367.075 454.673C261.648 655.501 218.248 840.386 270.138 867.626C322.027 894.866 449.557 754.146 554.984 553.318Z" stroke="url(#paint35_linear_3_58)" stroke-width="2" stroke-miterlimit="10"/>
<path d="M564.731 555.225C667.365 348.154 704.183 157.3 646.966 128.94C589.749 100.581 460.164 245.455 357.529 452.527C254.895 659.598 218.077 850.452 275.294 878.812C332.511 907.171 462.096 762.297 564.731 555.225Z" stroke="url(#paint36_linear_3_58)" stroke-width="2" stroke-miterlimit="10"/>
<path d="M575.729 557.139C675.018 344.008 704.213 147.335 640.937 117.857C577.662 88.38 445.877 237.261 346.589 450.393C247.3 663.524 218.105 860.197 281.38 889.674C344.656 919.152 476.44 770.271 575.729 557.139Z" stroke="url(#paint37_linear_3_58)" stroke-width="2" stroke-miterlimit="10"/>
<path d="M587.51 558.919C682.827 340.071 703.39 137.962 633.44 107.496C563.489 77.0305 429.515 229.744 334.198 448.592C238.882 667.44 218.319 869.549 288.269 900.015C358.219 930.481 492.194 777.767 587.51 558.919Z" stroke="url(#paint38_linear_3_58)" stroke-width="2" stroke-miterlimit="10"/>
<path d="M601.468 560.87C692.224 336.664 702.858 129.433 625.218 98.0054C547.579 66.5778 411.068 222.855 320.312 447.061C229.555 671.266 218.922 878.498 296.561 909.926C374.2 941.353 510.712 785.076 601.468 560.87Z" stroke="url(#paint39_linear_3_58)" stroke-width="2" stroke-miterlimit="10"/>
<path d="M616.76 562.003C702.34 332.813 701.911 120.953 615.803 88.8005C529.695 56.6479 390.515 216.378 304.935 445.568C219.356 674.758 219.785 886.618 305.893 918.771C392.001 950.923 531.181 791.193 616.76 562.003Z" stroke="url(#paint40_linear_3_58)" stroke-width="2" stroke-miterlimit="10"/>
<path d="M634.279 563.127C714.11 329.39 701.209 113.399 605.465 80.6981C509.72 47.9973 367.387 210.97 287.557 444.708C207.726 678.445 220.626 894.436 316.371 927.137C412.116 959.838 554.448 796.865 634.279 563.127Z" stroke="url(#paint41_linear_3_58)" stroke-width="2" stroke-miterlimit="10"/>
<path d="M653.934 563.46C727.445 325.626 700.645 106.121 594.075 73.1819C487.506 40.2427 341.521 206.343 268.01 444.177C194.499 682.011 221.299 901.517 327.868 934.456C434.438 967.395 580.423 801.295 653.934 563.46Z" stroke="url(#paint42_linear_3_58)" stroke-width="2" stroke-miterlimit="10"/>
<path d="M675.672 563.14C742.355 321.591 700.18 99.2107 581.471 66.439C462.761 33.6674 312.47 202.915 245.787 444.464C179.104 686.013 221.279 908.394 339.988 941.165C458.698 973.937 608.988 804.689 675.672 563.14Z" stroke="url(#paint43_linear_3_58)" stroke-width="2" stroke-miterlimit="10"/>
<path d="M700.557 561.949C759.941 317.212 700.823 92.7877 568.515 60.684C436.206 28.5803 280.808 200.954 221.425 445.691C162.041 690.429 221.158 914.853 353.467 946.957C485.776 979.061 641.173 806.687 700.557 561.949Z" stroke="url(#paint44_linear_3_58)" stroke-width="2" stroke-miterlimit="10"/>
<path d="M727.969 559.531C779.589 312.193 701.877 86.7346 554.395 55.9545C406.912 25.1744 245.508 200.729 193.888 448.066C142.267 695.404 219.979 920.863 367.461 951.643C514.944 982.423 676.348 806.868 727.969 559.531Z" stroke="url(#paint45_linear_3_58)" stroke-width="2" stroke-miterlimit="10"/>
<path d="M758.959 555.879C802.487 306.294 704.322 80.6926 539.702 51.9831C375.082 23.2737 206.346 202.328 162.818 451.913C119.291 701.498 217.456 927.1 382.076 955.81C546.696 984.519 715.432 805.464 758.959 555.879Z" stroke="url(#paint46_linear_3_58)" stroke-width="2" stroke-miterlimit="10"/>
<path d="M793.341 550.095C828.463 298.756 708.118 74.2105 524.542 48.5574C340.967 22.9042 163.677 205.858 128.555 457.197C93.4323 708.535 213.777 933.081 397.353 958.734C580.929 984.387 758.218 801.433 793.341 550.095Z" stroke="url(#paint47_linear_3_58)" stroke-width="2" stroke-miterlimit="10"/>
<path d="M831.336 542.718C857.819 290.202 713.362 68.0954 508.682 46.6292C304.002 25.1631 116.608 212.466 90.1248 464.982C63.6417 717.499 208.099 939.605 412.778 961.072C617.458 982.538 804.853 795.234 831.336 542.718Z" stroke="url(#paint48_linear_3_58)" stroke-width="2" stroke-miterlimit="10"/>
<path d="M873.993 532.53C891.714 279.088 721.194 60.7057 493.124 44.7581C265.055 28.8105 65.8014 221.337 48.0797 474.778C30.358 728.22 200.879 946.603 428.948 962.55C657.018 978.498 856.271 785.971 873.993 532.53Z" stroke="url(#paint49_linear_3_58)" stroke-width="2" stroke-miterlimit="10"/>
<path d="M461 963.814C715.051 963.814 921 757.865 921 503.814C921 249.763 715.051 43.8142 461 43.8142C206.949 43.8142 1 249.763 1 503.814C1 757.865 206.949 963.814 461 963.814Z" stroke="url(#paint50_linear_3_58)" stroke-width="2" stroke-miterlimit="10"/>
<defs>
<linearGradient id="paint0_linear_3_58" x1="453.978" y1="490.502" x2="468.069" y2="517.024" gradientUnits="userSpaceOnUse">
<stop stop-color="#03BFC0"/>
<stop offset="0.628125" stop-color="#4B89BF"/>
<stop offset="1" stop-color="#FF00BB"/>
</linearGradient>
<linearGradient id="paint1_linear_3_58" x1="453.514" y1="490.238" x2="468.612" y2="517.353" gradientUnits="userSpaceOnUse">
<stop stop-color="#03BFC0"/>
<stop offset="0.628125" stop-color="#4B89BF"/>
<stop offset="1" stop-color="#FF00BB"/>
</linearGradient>
<linearGradient id="paint2_linear_3_58" x1="453.197" y1="489.89" x2="469.313" y2="517.578" gradientUnits="userSpaceOnUse">
<stop stop-color="#03BFC0"/>
<stop offset="0.628125" stop-color="#4B89BF"/>
<stop offset="1" stop-color="#FF00BB"/>
</linearGradient>
<linearGradient id="paint3_linear_3_58" x1="452.292" y1="489.789" x2="469.435" y2="518.028" gradientUnits="userSpaceOnUse">
<stop stop-color="#03BFC0"/>
<stop offset="0.628125" stop-color="#4B89BF"/>
<stop offset="1" stop-color="#FF00BB"/>
</linearGradient>
<linearGradient id="paint4_linear_3_58" x1="452.049" y1="489.489" x2="470.231" y2="518.264" gradientUnits="userSpaceOnUse">
<stop stop-color="#03BFC0"/>
<stop offset="0.628125" stop-color="#4B89BF"/>
<stop offset="1" stop-color="#FF00BB"/>
</linearGradient>
<linearGradient id="paint5_linear_3_58" x1="451.414" y1="489.099" x2="470.647" y2="518.387" gradientUnits="userSpaceOnUse">
<stop stop-color="#03BFC0"/>
<stop offset="0.628125" stop-color="#4B89BF"/>
<stop offset="1" stop-color="#FF00BB"/>
</linearGradient>
<linearGradient id="paint6_linear_3_58" x1="450.509" y1="488.815" x2="471.081" y2="519.011" gradientUnits="userSpaceOnUse">
<stop stop-color="#03BFC0"/>
<stop offset="0.628125" stop-color="#4B89BF"/>
<stop offset="1" stop-color="#FF00BB"/>
</linearGradient>
<linearGradient id="paint7_linear_3_58" x1="449.829" y1="488.31" x2="471.767" y2="519.386" gradientUnits="userSpaceOnUse">
<stop stop-color="#03BFC0"/>
<stop offset="0.628125" stop-color="#4B89BF"/>
<stop offset="1" stop-color="#FF00BB"/>
</linearGradient>
<linearGradient id="paint8_linear_3_58" x1="449.306" y1="487.758" x2="472.636" y2="519.685" gradientUnits="userSpaceOnUse">
<stop stop-color="#03BFC0"/>
<stop offset="0.628125" stop-color="#4B89BF"/>
<stop offset="1" stop-color="#FF00BB"/>
</linearGradient>
<linearGradient id="paint9_linear_3_58" x1="448.668" y1="487.686" x2="473.409" y2="520.436" gradientUnits="userSpaceOnUse">
<stop stop-color="#03BFC0"/>
<stop offset="0.628125" stop-color="#4B89BF"/>
<stop offset="1" stop-color="#FF00BB"/>
</linearGradient>
<linearGradient id="paint10_linear_3_58" x1="448.02" y1="486.762" x2="474.511" y2="520.696" gradientUnits="userSpaceOnUse">
<stop stop-color="#03BFC0"/>
<stop offset="0.628125" stop-color="#4B89BF"/>
<stop offset="1" stop-color="#FF00BB"/>
</linearGradient>
<linearGradient id="paint11_linear_3_58" x1="446.817" y1="486.421" x2="475.085" y2="521.496" gradientUnits="userSpaceOnUse">
<stop stop-color="#03BFC0"/>
<stop offset="0.628125" stop-color="#4B89BF"/>
<stop offset="1" stop-color="#FF00BB"/>
</linearGradient>
<linearGradient id="paint12_linear_3_58" x1="445.705" y1="485.74" x2="475.789" y2="521.913" gradientUnits="userSpaceOnUse">
<stop stop-color="#03BFC0"/>
<stop offset="0.628125" stop-color="#4B89BF"/>
<stop offset="1" stop-color="#FF00BB"/>
</linearGradient>
<linearGradient id="paint13_linear_3_58" x1="445.029" y1="485.086" x2="476.968" y2="522.318" gradientUnits="userSpaceOnUse">
<stop stop-color="#03BFC0"/>
<stop offset="0.628125" stop-color="#4B89BF"/>
<stop offset="1" stop-color="#FF00BB"/>
</linearGradient>
<linearGradient id="paint14_linear_3_58" x1="444.042" y1="484.555" x2="478.198" y2="523.176" gradientUnits="userSpaceOnUse">
<stop stop-color="#03BFC0"/>
<stop offset="0.628125" stop-color="#4B89BF"/>
<stop offset="1" stop-color="#FF00BB"/>
</linearGradient>
<linearGradient id="paint15_linear_3_58" x1="442.606" y1="483.717" x2="479.363" y2="524.036" gradientUnits="userSpaceOnUse">
<stop stop-color="#03BFC0"/>
<stop offset="0.628125" stop-color="#4B89BF"/>
<stop offset="1" stop-color="#FF00BB"/>
</linearGradient>
<linearGradient id="paint16_linear_3_58" x1="441.481" y1="482.76" x2="480.9" y2="524.712" gradientUnits="userSpaceOnUse">
<stop stop-color="#03BFC0"/>
<stop offset="0.628125" stop-color="#4B89BF"/>
<stop offset="1" stop-color="#FF00BB"/>
</linearGradient>
<linearGradient id="paint17_linear_3_58" x1="440.11" y1="481.961" x2="482.245" y2="525.472" gradientUnits="userSpaceOnUse">
<stop stop-color="#03BFC0"/>
<stop offset="0.628125" stop-color="#4B89BF"/>
<stop offset="1" stop-color="#FF00BB"/>
</linearGradient>
<linearGradient id="paint18_linear_3_58" x1="438.352" y1="481.278" x2="483.611" y2="526.626" gradientUnits="userSpaceOnUse">
<stop stop-color="#03BFC0"/>
<stop offset="0.628125" stop-color="#4B89BF"/>
<stop offset="1" stop-color="#FF00BB"/>
</linearGradient>
<linearGradient id="paint19_linear_3_58" x1="436.861" y1="480.308" x2="485.318" y2="527.407" gradientUnits="userSpaceOnUse">
<stop stop-color="#03BFC0"/>
<stop offset="0.628125" stop-color="#4B89BF"/>
<stop offset="1" stop-color="#FF00BB"/>
</linearGradient>
<linearGradient id="paint20_linear_3_58" x1="434.747" y1="478.983" x2="487.198" y2="528.421" gradientUnits="userSpaceOnUse">
<stop stop-color="#03BFC0"/>
<stop offset="0.628125" stop-color="#4B89BF"/>
<stop offset="1" stop-color="#FF00BB"/>
</linearGradient>
<linearGradient id="paint21_linear_3_58" x1="432.967" y1="478.177" x2="489.132" y2="529.503" gradientUnits="userSpaceOnUse">
<stop stop-color="#03BFC0"/>
<stop offset="0.628125" stop-color="#4B89BF"/>
<stop offset="1" stop-color="#FF00BB"/>
</linearGradient>
<linearGradient id="paint22_linear_3_58" x1="430.543" y1="476.724" x2="491.253" y2="530.477" gradientUnits="userSpaceOnUse">
<stop stop-color="#03BFC0"/>
<stop offset="0.628125" stop-color="#4B89BF"/>
<stop offset="1" stop-color="#FF00BB"/>
</linearGradient>
<linearGradient id="paint23_linear_3_58" x1="428.231" y1="475.733" x2="493.964" y2="532.106" gradientUnits="userSpaceOnUse">
<stop stop-color="#03BFC0"/>
<stop offset="0.628125" stop-color="#4B89BF"/>
<stop offset="1" stop-color="#FF00BB"/>
</linearGradient>
<linearGradient id="paint24_linear_3_58" x1="425.451" y1="474.498" x2="496.322" y2="533.313" gradientUnits="userSpaceOnUse">
<stop stop-color="#03BFC0"/>
<stop offset="0.628125" stop-color="#4B89BF"/>
<stop offset="1" stop-color="#FF00BB"/>
</linearGradient>
<linearGradient id="paint25_linear_3_58" x1="422.498" y1="472.701" x2="499.411" y2="534.409" gradientUnits="userSpaceOnUse">
<stop stop-color="#03BFC0"/>
<stop offset="0.628125" stop-color="#4B89BF"/>
<stop offset="1" stop-color="#FF00BB"/>
</linearGradient>
<linearGradient id="paint26_linear_3_58" x1="419.24" y1="471.371" x2="502.718" y2="536.071" gradientUnits="userSpaceOnUse">
<stop stop-color="#03BFC0"/>
<stop offset="0.628125" stop-color="#4B89BF"/>
<stop offset="1" stop-color="#FF00BB"/>
</linearGradient>
<linearGradient id="paint27_linear_3_58" x1="415.464" y1="469.932" x2="506.454" y2="537.981" gradientUnits="userSpaceOnUse">
<stop stop-color="#03BFC0"/>
<stop offset="0.628125" stop-color="#4B89BF"/>
<stop offset="1" stop-color="#FF00BB"/>
</linearGradient>
<linearGradient id="paint28_linear_3_58" x1="411.568" y1="468.262" x2="510.248" y2="539.368" gradientUnits="userSpaceOnUse">
<stop stop-color="#03BFC0"/>
<stop offset="0.628125" stop-color="#4B89BF"/>
<stop offset="1" stop-color="#FF00BB"/>
</linearGradient>
<linearGradient id="paint29_linear_3_58" x1="406.891" y1="466.429" x2="514.664" y2="541.141" gradientUnits="userSpaceOnUse">
<stop stop-color="#03BFC0"/>
<stop offset="0.628125" stop-color="#4B89BF"/>
<stop offset="1" stop-color="#FF00BB"/>
</linearGradient>
<linearGradient id="paint30_linear_3_58" x1="402.016" y1="464.386" x2="519.929" y2="542.891" gradientUnits="userSpaceOnUse">
<stop stop-color="#03BFC0"/>
<stop offset="0.628125" stop-color="#4B89BF"/>
<stop offset="1" stop-color="#FF00BB"/>
</linearGradient>
<linearGradient id="paint31_linear_3_58" x1="396.772" y1="462.566" x2="525.469" y2="544.7" gradientUnits="userSpaceOnUse">
<stop stop-color="#03BFC0"/>
<stop offset="0.628125" stop-color="#4B89BF"/>
<stop offset="1" stop-color="#FF00BB"/>
</linearGradient>
<linearGradient id="paint32_linear_3_58" x1="390.375" y1="460.503" x2="531.799" y2="546.822" gradientUnits="userSpaceOnUse">
<stop stop-color="#03BFC0"/>
<stop offset="0.628125" stop-color="#4B89BF"/>
<stop offset="1" stop-color="#FF00BB"/>
</linearGradient>
<linearGradient id="paint33_linear_3_58" x1="383.69" y1="458.742" x2="538.55" y2="548.912" gradientUnits="userSpaceOnUse">
<stop stop-color="#03BFC0"/>
<stop offset="0.628125" stop-color="#4B89BF"/>
<stop offset="1" stop-color="#FF00BB"/>
</linearGradient>
<linearGradient id="paint34_linear_3_58" x1="375.6" y1="456.61" x2="545.934" y2="550.928" gradientUnits="userSpaceOnUse">
<stop stop-color="#03BFC0"/>
<stop offset="0.628125" stop-color="#4B89BF"/>
<stop offset="1" stop-color="#FF00BB"/>
</linearGradient>
<linearGradient id="paint35_linear_3_58" x1="367.075" y1="454.673" x2="554.984" y2="553.318" gradientUnits="userSpaceOnUse">
<stop stop-color="#03BFC0"/>
<stop offset="0.628125" stop-color="#4B89BF"/>
<stop offset="1" stop-color="#FF00BB"/>
</linearGradient>
<linearGradient id="paint36_linear_3_58" x1="357.529" y1="452.527" x2="564.73" y2="555.225" gradientUnits="userSpaceOnUse">
<stop stop-color="#03BFC0"/>
<stop offset="0.628125" stop-color="#4B89BF"/>
<stop offset="1" stop-color="#FF00BB"/>
</linearGradient>
<linearGradient id="paint37_linear_3_58" x1="346.589" y1="450.393" x2="575.729" y2="557.139" gradientUnits="userSpaceOnUse">
<stop stop-color="#03BFC0"/>
<stop offset="0.628125" stop-color="#4B89BF"/>
<stop offset="1" stop-color="#FF00BB"/>
</linearGradient>
<linearGradient id="paint38_linear_3_58" x1="334.198" y1="448.592" x2="587.51" y2="558.919" gradientUnits="userSpaceOnUse">
<stop stop-color="#03BFC0"/>
<stop offset="0.628125" stop-color="#4B89BF"/>
<stop offset="1" stop-color="#FF00BB"/>
</linearGradient>
<linearGradient id="paint39_linear_3_58" x1="320.312" y1="447.061" x2="601.468" y2="560.87" gradientUnits="userSpaceOnUse">
<stop stop-color="#03BFC0"/>
<stop offset="0.628125" stop-color="#4B89BF"/>
<stop offset="1" stop-color="#FF00BB"/>
</linearGradient>
<linearGradient id="paint40_linear_3_58" x1="304.935" y1="445.568" x2="616.76" y2="562.003" gradientUnits="userSpaceOnUse">
<stop stop-color="#03BFC0"/>
<stop offset="0.628125" stop-color="#4B89BF"/>
<stop offset="1" stop-color="#FF00BB"/>
</linearGradient>
<linearGradient id="paint41_linear_3_58" x1="287.556" y1="444.708" x2="634.279" y2="563.128" gradientUnits="userSpaceOnUse">
<stop stop-color="#03BFC0"/>
<stop offset="0.628125" stop-color="#4B89BF"/>
<stop offset="1" stop-color="#FF00BB"/>
</linearGradient>
<linearGradient id="paint42_linear_3_58" x1="268.01" y1="444.177" x2="653.934" y2="563.46" gradientUnits="userSpaceOnUse">
<stop stop-color="#03BFC0"/>
<stop offset="0.628125" stop-color="#4B89BF"/>
<stop offset="1" stop-color="#FF00BB"/>
</linearGradient>
<linearGradient id="paint43_linear_3_58" x1="245.787" y1="444.464" x2="675.672" y2="563.14" gradientUnits="userSpaceOnUse">
<stop stop-color="#03BFC0"/>
<stop offset="0.628125" stop-color="#4B89BF"/>
<stop offset="1" stop-color="#FF00BB"/>
</linearGradient>
<linearGradient id="paint44_linear_3_58" x1="221.425" y1="445.692" x2="700.557" y2="561.949" gradientUnits="userSpaceOnUse">
<stop stop-color="#03BFC0"/>
<stop offset="0.628125" stop-color="#4B89BF"/>
<stop offset="1" stop-color="#FF00BB"/>
</linearGradient>
<linearGradient id="paint45_linear_3_58" x1="193.888" y1="448.066" x2="727.969" y2="559.531" gradientUnits="userSpaceOnUse">
<stop stop-color="#03BFC0"/>
<stop offset="0.628125" stop-color="#4B89BF"/>
<stop offset="1" stop-color="#FF00BB"/>
</linearGradient>
<linearGradient id="paint46_linear_3_58" x1="162.818" y1="451.913" x2="758.959" y2="555.879" gradientUnits="userSpaceOnUse">
<stop stop-color="#03BFC0"/>
<stop offset="0.628125" stop-color="#4B89BF"/>
<stop offset="1" stop-color="#FF00BB"/>
</linearGradient>
<linearGradient id="paint47_linear_3_58" x1="128.555" y1="457.197" x2="793.341" y2="550.095" gradientUnits="userSpaceOnUse">
<stop stop-color="#03BFC0"/>
<stop offset="0.628125" stop-color="#4B89BF"/>
<stop offset="1" stop-color="#FF00BB"/>
</linearGradient>
<linearGradient id="paint48_linear_3_58" x1="90.1248" y1="464.983" x2="831.336" y2="542.718" gradientUnits="userSpaceOnUse">
<stop stop-color="#03BFC0"/>
<stop offset="0.628125" stop-color="#4B89BF"/>
<stop offset="1" stop-color="#FF00BB"/>
</linearGradient>
<linearGradient id="paint49_linear_3_58" x1="48.0797" y1="474.778" x2="873.993" y2="532.53" gradientUnits="userSpaceOnUse">
<stop stop-color="#03BFC0"/>
<stop offset="0.628125" stop-color="#4B89BF"/>
<stop offset="1" stop-color="#FF00BB"/>
</linearGradient>
<linearGradient id="paint50_linear_3_58" x1="13.5" y1="642.5" x2="921" y2="504" gradientUnits="userSpaceOnUse">
<stop stop-color="#03BFC0"/>
<stop offset="0.425" stop-color="#8180FA"/>
<stop offset="1" stop-color="#FF00BB"/>
</linearGradient>
</defs>
</svg>
