<svg id="SvgjsSvg3076" width="1293.25" height="494.5625" xmlns="http://www.w3.org/2000/svg" version="1.1" xmlns:xlink="http://www.w3.org/1999/xlink" xmlns:svgjs="http://svgjs.com/svgjs"><defs id="SvgjsDefs3077"><marker id="SvgjsMarker3302" markerWidth="12" markerHeight="8" refX="9" refY="4" viewBox="0 0 12 8" orient="auto" markerUnits="userSpaceOnUse" stroke-dasharray="0,0"><path id="SvgjsPath3303" d="M0,0 L12,4 L0,8 L0,0" fill="#1976d2" stroke="#1976d2" stroke-width="1"></path></marker><marker id="SvgjsMarker3306" markerWidth="12" markerHeight="8" refX="9" refY="4" viewBox="0 0 12 8" orient="auto" markerUnits="userSpaceOnUse" stroke-dasharray="0,0"><path id="SvgjsPath3307" d="M0,0 L12,4 L0,8 L0,0" fill="#1976d2" stroke="#1976d2" stroke-width="1"></path></marker><marker id="SvgjsMarker3310" markerWidth="12" markerHeight="8" refX="9" refY="4" viewBox="0 0 12 8" orient="auto" markerUnits="userSpaceOnUse" stroke-dasharray="0,0"><path id="SvgjsPath3311" d="M0,0 L12,4 L0,8 L0,0" fill="#1976d2" stroke="#1976d2" stroke-width="1"></path></marker><marker id="SvgjsMarker3314" markerWidth="12" markerHeight="8" refX="9" refY="4" viewBox="0 0 12 8" orient="auto" markerUnits="userSpaceOnUse" stroke-dasharray="0,0"><path id="SvgjsPath3315" d="M0,0 L12,4 L0,8 L0,0" fill="#1976d2" stroke="#1976d2" stroke-width="1"></path></marker><marker id="SvgjsMarker3318" markerWidth="12" markerHeight="8" refX="9" refY="4" viewBox="0 0 12 8" orient="auto" markerUnits="userSpaceOnUse" stroke-dasharray="0,0"><path id="SvgjsPath3319" d="M0,0 L12,4 L0,8 L0,0" fill="#1976d2" stroke="#1976d2" stroke-width="1"></path></marker><marker id="SvgjsMarker3322" markerWidth="12" markerHeight="8" refX="9" refY="4" viewBox="0 0 12 8" orient="auto" markerUnits="userSpaceOnUse" stroke-dasharray="0,0"><path id="SvgjsPath3323" d="M0,0 L12,4 L0,8 L0,0" fill="#1976d2" stroke="#1976d2" stroke-width="1"></path></marker><marker id="SvgjsMarker3326" markerWidth="12" markerHeight="8" refX="9" refY="4" viewBox="0 0 12 8" orient="auto" markerUnits="userSpaceOnUse" stroke-dasharray="0,0"><path id="SvgjsPath3327" d="M0,0 L12,4 L0,8 L0,0" fill="#1976d2" stroke="#1976d2" stroke-width="1"></path></marker><marker id="SvgjsMarker3330" markerWidth="12" markerHeight="8" refX="9" refY="4" viewBox="0 0 12 8" orient="auto" markerUnits="userSpaceOnUse" stroke-dasharray="0,0"><path id="SvgjsPath3331" d="M0,0 L12,4 L0,8 L0,0" fill="#1976d2" stroke="#1976d2" stroke-width="1"></path></marker><marker id="SvgjsMarker3334" markerWidth="12" markerHeight="8" refX="9" refY="4" viewBox="0 0 12 8" orient="auto" markerUnits="userSpaceOnUse" stroke-dasharray="0,0"><path id="SvgjsPath3335" d="M0,0 L12,4 L0,8 L0,0" fill="#1975d2" stroke="#1975d2" stroke-width="1"></path></marker><marker id="SvgjsMarker3338" markerWidth="12" markerHeight="8" refX="9" refY="4" viewBox="0 0 12 8" orient="auto" markerUnits="userSpaceOnUse" stroke-dasharray="0,0"><path id="SvgjsPath3339" d="M0,0 L12,4 L0,8 L0,0" fill="#1975d2" stroke="#1975d2" stroke-width="1"></path></marker><marker id="SvgjsMarker3346" markerWidth="12" markerHeight="8" refX="9" refY="4" viewBox="0 0 12 8" orient="auto" markerUnits="userSpaceOnUse" stroke-dasharray="0,0"><path id="SvgjsPath3347" d="M0,0 L12,4 L0,8 L0,0" fill="#1976d2" stroke="#1976d2" stroke-width="1"></path></marker><marker id="SvgjsMarker3350" markerWidth="12" markerHeight="8" refX="9" refY="4" viewBox="0 0 12 8" orient="auto" markerUnits="userSpaceOnUse" stroke-dasharray="0,0"><path id="SvgjsPath3351" d="M0,0 L12,4 L0,8 L0,0" fill="#1975d2" stroke="#1975d2" stroke-width="1"></path></marker><marker id="SvgjsMarker3354" markerWidth="12" markerHeight="8" refX="9" refY="4" viewBox="0 0 12 8" orient="auto" markerUnits="userSpaceOnUse" stroke-dasharray="0,0"><path id="SvgjsPath3355" d="M0,0 L12,4 L0,8 L0,0" fill="#1976d2" stroke="#1976d2" stroke-width="1"></path></marker><marker id="SvgjsMarker3362" markerWidth="12" markerHeight="8" refX="9" refY="4" viewBox="0 0 12 8" orient="auto" markerUnits="userSpaceOnUse" stroke-dasharray="0,0"><path id="SvgjsPath3363" d="M0,0 L12,4 L0,8 L0,0" fill="#1975d2" stroke="#1975d2" stroke-width="1"></path></marker><marker id="SvgjsMarker3366" markerWidth="12" markerHeight="8" refX="9" refY="4" viewBox="0 0 12 8" orient="auto" markerUnits="userSpaceOnUse" stroke-dasharray="0,0"><path id="SvgjsPath3367" d="M0,0 L12,4 L0,8 L0,0" fill="#1976d2" stroke="#1976d2" stroke-width="1"></path></marker></defs><g id="SvgjsG3078" transform="translate(24.999999999999915,150.5625)"><path id="SvgjsPath3079" d="M 0 0L 83 0L 83 192L 0 192Z" stroke="rgba(158,158,158,1)" stroke-width="1" fill-opacity="1" fill="#5ae3f5"></path><g id="SvgjsG3080"><text id="SvgjsText3081" font-family="微软雅黑" text-anchor="middle" font-size="12px" width="63px" fill="#323232" font-weight="400" align="middle" lineHeight="125%" anchor="middle" family="微软雅黑" size="12px" weight="400" font-style="" opacity="1" y="87" transform="rotate(0)"></text></g></g><g id="SvgjsG3082" transform="translate(34.25,161.2847222222224)"><path id="SvgjsPath3083" d="M 0 0L 70 0L 70 20L 0 20Z" stroke="none" fill="none"></path><g id="SvgjsG3084"><text id="SvgjsText3085" font-family="微软雅黑" text-anchor="middle" font-size="12px" width="70px" fill="#0d48a1" font-weight="700" align="middle" lineHeight="125%" anchor="middle" family="微软雅黑" size="12px" weight="700" font-style="" opacity="1" y="1" transform="rotate(0)"><tspan id="SvgjsTspan3086" dy="15" x="35"><tspan id="SvgjsTspan3087" style="text-decoration:;">数据获取</tspan></tspan></text></g></g><g id="SvgjsG3088" transform="translate(30.75,202.8482142857144)"><path id="SvgjsPath3089" d="M 6.666666666666667 0L 64.8333333333331 0C 73.722222222222 0 73.722222222222 20 64.8333333333331 20L 6.666666666666667 20C -2.2222222222222223 20 -2.2222222222222223 0 6.666666666666667 0Z" stroke="rgba(158,158,158,1)" stroke-width="1" fill-opacity="1" fill="#ffffff"></path><g id="SvgjsG3090"><text id="SvgjsText3091" font-family="微软雅黑" text-anchor="middle" font-size="12px" width="52px" fill="#323232" font-weight="400" align="middle" lineHeight="125%" anchor="middle" family="微软雅黑" size="12px" weight="400" font-style="" opacity="1" y="1" transform="rotate(0)"><tspan id="SvgjsTspan3092" dy="15" x="36"><tspan id="SvgjsTspan3093" style="text-decoration:;">商业接口</tspan></tspan></text></g></g><g id="SvgjsG3094" transform="translate(32.84999999999991,247.28472222222268)"><path id="SvgjsPath3095" d="M 6.333333333333333 0L 60.966666666666676 0C 69.41111111111113 0 69.41111111111113 19 60.966666666666676 19L 6.333333333333333 19C -2.111111111111111 19 -2.111111111111111 0 6.333333333333333 0Z" stroke="rgba(158,158,158,1)" stroke-width="1" fill-opacity="1" fill="#ffffff"></path><g id="SvgjsG3096"><text id="SvgjsText3097" font-family="微软雅黑" text-anchor="middle" font-size="12px" width="48px" fill="#323232" font-weight="400" align="middle" lineHeight="125%" anchor="middle" family="微软雅黑" size="12px" weight="400" font-style="" opacity="1" y="0.5" transform="rotate(0)"><tspan id="SvgjsTspan3098" dy="15" x="34"><tspan id="SvgjsTspan3099" style="text-decoration:;">供应商</tspan></tspan></text></g></g><g id="SvgjsG3100" transform="translate(30.75,290.2847222222225)"><path id="SvgjsPath3101" d="M 8 0L 63.49999999999977 0C 74.16666666666644 0 74.16666666666644 24 63.49999999999977 24L 8 24C -2.6666666666666665 24 -2.6666666666666665 0 8 0Z" stroke="rgba(158,158,158,1)" stroke-width="1" fill-opacity="1" fill="#ffffff"></path><g id="SvgjsG3102"><text id="SvgjsText3103" font-family="微软雅黑" text-anchor="middle" font-size="12px" width="52px" fill="#323232" font-weight="400" align="middle" lineHeight="125%" anchor="middle" family="微软雅黑" size="12px" weight="400" font-style="" opacity="1" y="3" transform="rotate(0)"><tspan id="SvgjsTspan3104" dy="15" x="36"><tspan id="SvgjsTspan3105" style="text-decoration:;">URL解析</tspan></tspan></text></g></g><g id="SvgjsG3106" transform="matrix(-1.8369701987210297e-16,-1,1,-1.8369701987210297e-16,146.375,275.5625)"><path id="SvgjsPath3107" d="M 8.7 0L 52.333333333333336 0C 59.54545454545455 0 59.54545454545455 34 52.333333333333336 34L 8.7 34C -2.9000000000000004 34 -2.9000000000000004 0 8.7 0ZM 52.333333333333336 0C 45.25 0 45.25 34 52.333333333333336 34C 45.25 34 45.25 0 52.333333333333336 0" stroke="rgba(158,158,158,1)" stroke-width="1" fill-opacity="1" fill="#ffc3bf"></path><g id="SvgjsG3108"><text id="SvgjsText3109" font-family="微软雅黑" text-anchor="middle" font-size="12px" width="47px" fill="#323232" font-weight="400" align="middle" lineHeight="125%" anchor="middle" family="微软雅黑" size="12px" weight="400" font-style="" opacity="1" y="8" transform="rotate(0)"><tspan id="SvgjsTspan3110" dy="15" x="23.5"><tspan id="SvgjsTspan3111" style="text-decoration:;">RDS</tspan></tspan></text></g></g><g id="SvgjsG3112" transform="translate(218.7499999999999,127.5625)"><path id="SvgjsPath3113" d="M 0 0L 42 0L 42 237L 0 237Z" stroke="rgba(158,158,158,1)" stroke-width="1" fill-opacity="1" fill="#c7e1ff"></path><g id="SvgjsG3114"><text id="SvgjsText3115" font-family="微软雅黑" text-anchor="middle" font-size="12px" width="22px" fill="#323232" font-weight="400" align="middle" lineHeight="125%" anchor="middle" family="微软雅黑" size="12px" weight="400" font-style="" opacity="1" y="109.5" transform="rotate(0)"><tspan id="SvgjsTspan3116" dy="15" x="21"><tspan id="SvgjsTspan3117" style="text-decoration:;">MQ</tspan></tspan></text></g></g><g id="SvgjsG3118" transform="translate(301.74999999999994,140.5625)"><path id="SvgjsPath3119" d="M 0 0L 83 0L 83 212L 0 212Z" stroke="rgba(158,158,158,1)" stroke-width="1" fill-opacity="1" fill="#c2ffc2"></path><g id="SvgjsG3120"><text id="SvgjsText3121" font-family="微软雅黑" text-anchor="middle" font-size="12px" width="63px" fill="#323232" font-weight="400" align="middle" lineHeight="125%" anchor="middle" family="微软雅黑" size="12px" weight="400" font-style="" opacity="1" y="97" transform="rotate(0)"></text></g></g><g id="SvgjsG3122" transform="translate(308.25,159.2847222222224)"><path id="SvgjsPath3123" d="M 0 0L 70 0L 70 20L 0 20Z" stroke="none" fill="none"></path><g id="SvgjsG3124"><text id="SvgjsText3125" font-family="微软雅黑" text-anchor="middle" font-size="12px" width="70px" fill="#0d48a1" font-weight="700" align="middle" lineHeight="125%" anchor="middle" family="微软雅黑" size="12px" weight="700" font-style="" opacity="1" y="1" transform="rotate(0)"><tspan id="SvgjsTspan3126" dy="15" x="35"><tspan id="SvgjsTspan3127" style="text-decoration:;">数据处理</tspan></tspan></text></g></g><g id="SvgjsG3128" transform="translate(308.25,212.5625)"><path id="SvgjsPath3129" d="M 8 0L 62 0C 72.66666666666667 0 72.66666666666667 24 62 24L 8 24C -2.6666666666666665 24 -2.6666666666666665 0 8 0Z" stroke="rgba(158,158,158,1)" stroke-width="1" fill-opacity="1" fill="#ffffff"></path><g id="SvgjsG3130"><text id="SvgjsText3131" font-family="微软雅黑" text-anchor="middle" font-size="12px" width="50px" fill="#323232" font-weight="400" align="middle" lineHeight="125%" anchor="middle" family="微软雅黑" size="12px" weight="400" font-style="" opacity="1" y="3" transform="rotate(0)"><tspan id="SvgjsTspan3132" dy="15" x="35"><tspan id="SvgjsTspan3133" style="text-decoration:;">去重</tspan></tspan></text></g></g><g id="SvgjsG3134" transform="translate(308.25,257.5625)"><path id="SvgjsPath3135" d="M 8 0L 62 0C 72.66666666666667 0 72.66666666666667 24 62 24L 8 24C -2.6666666666666665 24 -2.6666666666666665 0 8 0Z" stroke="rgba(158,158,158,1)" stroke-width="1" fill-opacity="1" fill="#ffffff"></path><g id="SvgjsG3136"><text id="SvgjsText3137" font-family="微软雅黑" text-anchor="middle" font-size="12px" width="50px" fill="#323232" font-weight="400" align="middle" lineHeight="125%" anchor="middle" family="微软雅黑" size="12px" weight="400" font-style="" opacity="1" y="3" transform="rotate(0)"><tspan id="SvgjsTspan3138" dy="15" x="35"><tspan id="SvgjsTspan3139" style="text-decoration:;">nlu 打标</tspan></tspan></text></g></g><g id="SvgjsG3140" transform="translate(308.25,307.5625)"><path id="SvgjsPath3141" d="M 8 0L 62 0C 72.66666666666667 0 72.66666666666667 24 62 24L 8 24C -2.6666666666666665 24 -2.6666666666666665 0 8 0Z" stroke="rgba(158,158,158,1)" stroke-width="1" fill-opacity="1" fill="#ffffff"></path><g id="SvgjsG3142"><text id="SvgjsText3143" font-family="微软雅黑" text-anchor="middle" font-size="12px" width="50px" fill="#323232" font-weight="400" align="middle" lineHeight="125%" anchor="middle" family="微软雅黑" size="12px" weight="400" font-style="" opacity="1" y="3" transform="rotate(0)"><tspan id="SvgjsTspan3144" dy="15" x="35"><tspan id="SvgjsTspan3145" style="text-decoration:;">解析</tspan></tspan></text></g></g><g id="SvgjsG3146" transform="matrix(-1.8369701987210297e-16,-1,1,-1.8369701987210297e-16,420.25,275.5625)"><path id="SvgjsPath3147" d="M 8.7 0L 52.333333333333336 0C 59.54545454545455 0 59.54545454545455 34 52.333333333333336 34L 8.7 34C -2.9000000000000004 34 -2.9000000000000004 0 8.7 0ZM 52.333333333333336 0C 45.25 0 45.25 34 52.333333333333336 34C 45.25 34 45.25 0 52.333333333333336 0" stroke="rgba(158,158,158,1)" stroke-width="1" fill-opacity="1" fill="#ffc3bf"></path><g id="SvgjsG3148"><text id="SvgjsText3149" font-family="微软雅黑" text-anchor="middle" font-size="12px" width="47px" fill="#323232" font-weight="400" align="middle" lineHeight="125%" anchor="middle" family="微软雅黑" size="12px" weight="400" font-style="" opacity="1" y="8" transform="rotate(0)"><tspan id="SvgjsTspan3150" dy="15" x="23.5"><tspan id="SvgjsTspan3151" style="text-decoration:;">RDS</tspan></tspan></text></g></g><g id="SvgjsG3152" transform="translate(498.7499999999999,128.06250000000003)"><path id="SvgjsPath3153" d="M 0 0L 42 0L 42 237L 0 237Z" stroke="rgba(158,158,158,1)" stroke-width="1" fill-opacity="1" fill="#c7e1ff"></path><g id="SvgjsG3154"><text id="SvgjsText3155" font-family="微软雅黑" text-anchor="middle" font-size="12px" width="22px" fill="#323232" font-weight="400" align="middle" lineHeight="125%" anchor="middle" family="微软雅黑" size="12px" weight="400" font-style="" opacity="1" y="109.5" transform="rotate(0)"><tspan id="SvgjsTspan3156" dy="15" x="21"><tspan id="SvgjsTspan3157" style="text-decoration:;">MQ</tspan></tspan></text></g></g><g id="SvgjsG3158" transform="translate(578.75,140.5625)"><path id="SvgjsPath3159" d="M 0 0L 83 0L 83 212L 0 212Z" stroke="rgba(158,158,158,1)" stroke-width="1" fill-opacity="1" fill="#c9f9ff"></path><g id="SvgjsG3160"><text id="SvgjsText3161" font-family="微软雅黑" text-anchor="middle" font-size="12px" width="63px" fill="#323232" font-weight="400" align="middle" lineHeight="125%" anchor="middle" family="微软雅黑" size="12px" weight="400" font-style="" opacity="1" y="97" transform="rotate(0)"></text></g></g><g id="SvgjsG3162" transform="translate(585.2500000000001,159.2847222222224)"><path id="SvgjsPath3163" d="M 0 0L 70 0L 70 20L 0 20Z" stroke="none" fill="none"></path><g id="SvgjsG3164"><text id="SvgjsText3165" font-family="微软雅黑" text-anchor="middle" font-size="12px" width="70px" fill="#0d47a1" font-weight="700" align="middle" lineHeight="125%" anchor="middle" family="微软雅黑" size="12px" weight="700" font-style="" opacity="1" y="1" transform="rotate(0)"><tspan id="SvgjsTspan3166" dy="15" x="35"><tspan id="SvgjsTspan3167" style="text-decoration:;">任务创建</tspan></tspan></text></g></g><g id="SvgjsG3168" transform="translate(585.1060606060606,212.5625)"><path id="SvgjsPath3169" d="M 8 0L 62.28787878787898 0C 72.95454545454565 0 72.95454545454565 24 62.28787878787898 24L 8 24C -2.6666666666666665 24 -2.6666666666666665 0 8 0Z" stroke="rgba(158,158,158,1)" stroke-width="1" fill-opacity="1" fill="#ffffff"></path><g id="SvgjsG3170"><text id="SvgjsText3171" font-family="微软雅黑" text-anchor="middle" font-size="12px" width="51px" fill="#323232" font-weight="400" align="middle" lineHeight="125%" anchor="middle" family="微软雅黑" size="12px" weight="400" font-style="" opacity="1" y="3" transform="rotate(0)"><tspan id="SvgjsTspan3172" dy="15" x="35.5"><tspan id="SvgjsTspan3173" style="text-decoration:;">聚类</tspan></tspan></text></g></g><g id="SvgjsG3174" transform="translate(585.1060606060609,257.5625)"><path id="SvgjsPath3175" d="M 8 0L 62.28787878787887 0C 72.95454545454554 0 72.95454545454554 24 62.28787878787887 24L 8 24C -2.6666666666666665 24 -2.6666666666666665 0 8 0Z" stroke="rgba(158,158,158,1)" stroke-width="1" fill-opacity="1" fill="#ffffff"></path><g id="SvgjsG3176"><text id="SvgjsText3177" font-family="微软雅黑" text-anchor="middle" font-size="12px" width="51px" fill="#323232" font-weight="400" align="middle" lineHeight="125%" anchor="middle" family="微软雅黑" size="12px" weight="400" font-style="" opacity="1" y="3" transform="rotate(0)"><tspan id="SvgjsTspan3178" dy="15" x="35.5"><tspan id="SvgjsTspan3179" style="text-decoration:;">生成任务</tspan></tspan></text></g></g><g id="SvgjsG3180" transform="matrix(-1.8369701987210297e-16,-1,1,-1.8369701987210297e-16,689.5,275.5625)"><path id="SvgjsPath3181" d="M 8.7 0L 52.333333333333336 0C 59.54545454545455 0 59.54545454545455 34 52.333333333333336 34L 8.7 34C -2.9000000000000004 34 -2.9000000000000004 0 8.7 0ZM 52.333333333333336 0C 45.25 0 45.25 34 52.333333333333336 34C 45.25 34 45.25 0 52.333333333333336 0" stroke="rgba(158,158,158,1)" stroke-width="1" fill-opacity="1" fill="#ffc3bf"></path><g id="SvgjsG3182"><text id="SvgjsText3183" font-family="微软雅黑" text-anchor="middle" font-size="12px" width="47px" fill="#323232" font-weight="400" align="middle" lineHeight="125%" anchor="middle" family="微软雅黑" size="12px" weight="400" font-style="" opacity="1" y="8" transform="rotate(0)"><tspan id="SvgjsTspan3184" dy="15" x="23.5"><tspan id="SvgjsTspan3185" style="text-decoration:;">RDS</tspan></tspan></text></g></g><g id="SvgjsG3186" transform="translate(762.6249999999999,127.5625)"><path id="SvgjsPath3187" d="M 0 0L 42 0L 42 237L 0 237Z" stroke="rgba(158,158,158,1)" stroke-width="1" fill-opacity="1" fill="#c7e1ff"></path><g id="SvgjsG3188"><text id="SvgjsText3189" font-family="微软雅黑" text-anchor="middle" font-size="12px" width="22px" fill="#323232" font-weight="400" align="middle" lineHeight="125%" anchor="middle" family="微软雅黑" size="12px" weight="400" font-style="" opacity="1" y="109.5" transform="rotate(0)"><tspan id="SvgjsTspan3190" dy="15" x="21"><tspan id="SvgjsTspan3191" style="text-decoration:;">MQ</tspan></tspan></text></g></g><g id="SvgjsG3192" transform="matrix(-1.8369701987210297e-16,-1,1,-1.8369701987210297e-16,854.25,275.5625)"><path id="SvgjsPath3193" d="M 8.7 0L 48 0C 60.72727272727273 0 60.72727272727273 60 48 60L 8.7 60C -2.9000000000000004 60 -2.9000000000000004 0 8.7 0ZM 48 0C 35.5 0 35.5 60 48 60C 35.5 60 35.5 0 48 0" stroke="rgba(158,158,158,1)" stroke-width="1" fill-opacity="1" fill="#f7e0a6"></path><g id="SvgjsG3194"><text id="SvgjsText3195" font-family="微软雅黑" text-anchor="middle" font-size="12px" width="47px" fill="#323232" font-weight="400" align="middle" lineHeight="125%" anchor="middle" family="微软雅黑" size="12px" weight="400" font-style="" opacity="1" y="21" transform="rotate(0)"><tspan id="SvgjsTspan3196" dy="15" x="23.5"><tspan id="SvgjsTspan3197" style="text-decoration:;">ES</tspan></tspan></text></g></g><g id="SvgjsG3198" transform="translate(854.2499999999995,83.92484263820458)"><path id="SvgjsPath3199" d="M 0 0L 231 0L 231 67L 0 67Z" stroke="rgba(158,158,158,1)" stroke-width="1" fill-opacity="1" fill="#e5ffe5"></path><g id="SvgjsG3200"><text id="SvgjsText3201" font-family="微软雅黑" text-anchor="middle" font-size="12px" width="211px" fill="#323232" font-weight="400" align="middle" lineHeight="125%" anchor="middle" family="微软雅黑" size="12px" weight="400" font-style="" opacity="1" y="24.5" transform="rotate(0)"></text></g></g><g id="SvgjsG3202" transform="translate(853.75,368.06250000000006)"><path id="SvgjsPath3203" d="M 0 0L 231 0L 231 67L 0 67Z" stroke="rgba(158,158,158,1)" stroke-width="1" fill-opacity="1" fill="#ffd9fc"></path><g id="SvgjsG3204"><text id="SvgjsText3205" font-family="微软雅黑" text-anchor="middle" font-size="12px" width="211px" fill="#323232" font-weight="400" align="middle" lineHeight="125%" anchor="middle" family="微软雅黑" size="12px" weight="400" font-style="" opacity="1" y="24.5" transform="rotate(0)"></text></g></g><g id="SvgjsG3206" transform="translate(860.1944444444439,87.14706486042695)"><path id="SvgjsPath3207" d="M 0 0L 58 0L 58 20L 0 20Z" stroke="none" fill="none"></path><g id="SvgjsG3208"><text id="SvgjsText3209" font-family="微软雅黑" text-anchor="middle" font-size="12px" width="58px" fill="#323232" font-weight="400" align="middle" lineHeight="125%" anchor="middle" family="微软雅黑" size="12px" weight="400" font-style="" opacity="1" y="1" transform="rotate(0)"><tspan id="SvgjsTspan3210" dy="15" x="29"><tspan id="SvgjsTspan3211" style="text-decoration:;">自动分单</tspan></tspan></text></g></g><g id="SvgjsG3212" transform="translate(863.1287878787878,369.56249999999994)"><path id="SvgjsPath3213" d="M 0 0L 58 0L 58 20L 0 20Z" stroke="none" fill="none"></path><g id="SvgjsG3214"><text id="SvgjsText3215" font-family="微软雅黑" text-anchor="middle" font-size="12px" width="58px" fill="#323232" font-weight="400" align="middle" lineHeight="125%" anchor="middle" family="微软雅黑" size="12px" weight="400" font-style="" opacity="1" y="1" transform="rotate(0)"><tspan id="SvgjsTspan3216" dy="15" x="29"><tspan id="SvgjsTspan3217" style="text-decoration:;">会话处理</tspan></tspan></text></g></g><g id="SvgjsG3218" transform="translate(878.2499999999995,111.14706486042692)"><path id="SvgjsPath3219" d="M 8 0L 69 0C 79.66666666666667 0 79.66666666666667 24 69 24L 8 24C -2.6666666666666665 24 -2.6666666666666665 0 8 0Z" stroke="rgba(158,158,158,1)" stroke-width="1" fill-opacity="1" fill="#ffffff"></path><g id="SvgjsG3220"><text id="SvgjsText3221" font-family="微软雅黑" text-anchor="middle" font-size="12px" width="57px" fill="#323232" font-weight="400" align="middle" lineHeight="125%" anchor="middle" family="微软雅黑" size="12px" weight="400" font-style="" opacity="1" y="3" transform="rotate(0)"><tspan id="SvgjsTspan3222" dy="15" x="38.5"><tspan id="SvgjsTspan3223" style="text-decoration:;">任务池</tspan></tspan></text></g></g><g id="SvgjsG3224" transform="translate(991.2499999999995,111.14706486042692)"><path id="SvgjsPath3225" d="M 8 0L 69 0C 79.66666666666667 0 79.66666666666667 24 69 24L 8 24C -2.6666666666666665 24 -2.6666666666666665 0 8 0Z" stroke="rgba(158,158,158,1)" stroke-width="1" fill-opacity="1" fill="#ffffff"></path><g id="SvgjsG3226"><text id="SvgjsText3227" font-family="微软雅黑" text-anchor="middle" font-size="12px" width="57px" fill="#323232" font-weight="400" align="middle" lineHeight="125%" anchor="middle" family="微软雅黑" size="12px" weight="400" font-style="" opacity="1" y="3" transform="rotate(0)"><tspan id="SvgjsTspan3228" dy="15" x="38.5"><tspan id="SvgjsTspan3229" style="text-decoration:;">人员池</tspan></tspan></text></g></g><g id="SvgjsG3230" transform="translate(877.75,394.410984848485)"><path id="SvgjsPath3231" d="M 8 0L 69 0C 79.66666666666667 0 79.66666666666667 24 69 24L 8 24C -2.6666666666666665 24 -2.6666666666666665 0 8 0Z" stroke="rgba(158,158,158,1)" stroke-width="1" fill-opacity="1" fill="#ffffff"></path><g id="SvgjsG3232"><text id="SvgjsText3233" font-family="微软雅黑" text-anchor="middle" font-size="12px" width="57px" fill="#323232" font-weight="400" align="middle" lineHeight="125%" anchor="middle" family="微软雅黑" size="12px" weight="400" font-style="" opacity="1" y="3" transform="rotate(0)"><tspan id="SvgjsTspan3234" dy="15" x="38.5"><tspan id="SvgjsTspan3235" style="text-decoration:;">用户信息</tspan></tspan></text></g></g><g id="SvgjsG3236" transform="translate(990.75,394.410984848485)"><path id="SvgjsPath3237" d="M 8 0L 69 0C 79.66666666666667 0 79.66666666666667 24 69 24L 8 24C -2.6666666666666665 24 -2.6666666666666665 0 8 0Z" stroke="rgba(158,158,158,1)" stroke-width="1" fill-opacity="1" fill="#ffffff"></path><g id="SvgjsG3238"><text id="SvgjsText3239" font-family="微软雅黑" text-anchor="middle" font-size="12px" width="57px" fill="#323232" font-weight="400" align="middle" lineHeight="125%" anchor="middle" family="微软雅黑" size="12px" weight="400" font-style="" opacity="1" y="3" transform="rotate(0)"><tspan id="SvgjsTspan3240" dy="15" x="38.5"><tspan id="SvgjsTspan3241" style="text-decoration:;">chat 信息</tspan></tspan></text></g></g><g id="SvgjsG3242" transform="translate(1150.25,55.01488095238105)"><path id="SvgjsPath3243" d="M 0 0L 118 0L 118 385L 0 385Z" stroke="rgba(158,158,158,1)" stroke-width="1" fill-opacity="1" fill="#fff9c4"></path><g id="SvgjsG3244"><text id="SvgjsText3245" font-family="微软雅黑" text-anchor="middle" font-size="12px" width="98px" fill="#323232" font-weight="400" align="middle" lineHeight="125%" anchor="middle" family="微软雅黑" size="12px" weight="400" font-style="" opacity="1" y="183.5" transform="rotate(0)"></text></g></g><g id="SvgjsG3246" transform="translate(1180.25,63.92484263820472)"><path id="SvgjsPath3247" d="M 0 0L 58 0L 58 20L 0 20Z" stroke="none" fill="none"></path><g id="SvgjsG3248"><text id="SvgjsText3249" font-family="微软雅黑" text-anchor="middle" font-size="12px" width="58px" fill="#323232" font-weight="400" align="middle" lineHeight="125%" anchor="middle" family="微软雅黑" size="12px" weight="400" font-style="" opacity="1" y="1" transform="rotate(0)"><tspan id="SvgjsTspan3250" dy="15" x="29"><tspan id="SvgjsTspan3251" style="text-decoration:;">任务处理</tspan></tspan></text></g></g><g id="SvgjsG3252" transform="translate(1170.75,94.02546296296308)"><path id="SvgjsPath3253" d="M 8 0L 69 0C 79.66666666666667 0 79.66666666666667 24 69 24L 8 24C -2.6666666666666665 24 -2.6666666666666665 0 8 0Z" stroke="rgba(158,158,158,1)" stroke-width="1" fill-opacity="1" fill="#ffffff"></path><g id="SvgjsG3254"><text id="SvgjsText3255" font-family="微软雅黑" text-anchor="middle" font-size="12px" width="57px" fill="#323232" font-weight="400" align="middle" lineHeight="125%" anchor="middle" family="微软雅黑" size="12px" weight="400" font-style="" opacity="1" y="3" transform="rotate(0)"><tspan id="SvgjsTspan3256" dy="15" x="38.5"><tspan id="SvgjsTspan3257" style="text-decoration:;">筛选</tspan></tspan></text></g></g><g id="SvgjsG3258" transform="translate(1170.75,133.2847222222224)"><path id="SvgjsPath3259" d="M 8 0L 69 0C 79.66666666666667 0 79.66666666666667 24 69 24L 8 24C -2.6666666666666665 24 -2.6666666666666665 0 8 0Z" stroke="rgba(158,158,158,1)" stroke-width="1" fill-opacity="1" fill="#ffffff"></path><g id="SvgjsG3260"><text id="SvgjsText3261" font-family="微软雅黑" text-anchor="middle" font-size="12px" width="57px" fill="#323232" font-weight="400" align="middle" lineHeight="125%" anchor="middle" family="微软雅黑" size="12px" weight="400" font-style="" opacity="1" y="3" transform="rotate(0)"><tspan id="SvgjsTspan3262" dy="15" x="38.5"><tspan id="SvgjsTspan3263" style="text-decoration:;">忽略</tspan></tspan></text></g></g><g id="SvgjsG3264" transform="translate(1170.75,175.4236111111112)"><path id="SvgjsPath3265" d="M 8 0L 69 0C 79.66666666666667 0 79.66666666666667 24 69 24L 8 24C -2.6666666666666665 24 -2.6666666666666665 0 8 0Z" stroke="rgba(158,158,158,1)" stroke-width="1" fill-opacity="1" fill="#ffffff"></path><g id="SvgjsG3266"><text id="SvgjsText3267" font-family="微软雅黑" text-anchor="middle" font-size="12px" width="57px" fill="#323232" font-weight="400" align="middle" lineHeight="125%" anchor="middle" family="微软雅黑" size="12px" weight="400" font-style="" opacity="1" y="3" transform="rotate(0)"><tspan id="SvgjsTspan3268" dy="15" x="38.5"><tspan id="SvgjsTspan3269" style="text-decoration:;">升级</tspan></tspan></text></g></g><g id="SvgjsG3270" transform="translate(1170.75,217.5625)"><path id="SvgjsPath3271" d="M 8 0L 69 0C 79.66666666666667 0 79.66666666666667 24 69 24L 8 24C -2.6666666666666665 24 -2.6666666666666665 0 8 0Z" stroke="rgba(158,158,158,1)" stroke-width="1" fill-opacity="1" fill="#ffffff"></path><g id="SvgjsG3272"><text id="SvgjsText3273" font-family="微软雅黑" text-anchor="middle" font-size="12px" width="57px" fill="#323232" font-weight="400" align="middle" lineHeight="125%" anchor="middle" family="微软雅黑" size="12px" weight="400" font-style="" opacity="1" y="3" transform="rotate(0)"><tspan id="SvgjsTspan3274" dy="15" x="38.5"><tspan id="SvgjsTspan3275" style="text-decoration:;">分配</tspan></tspan></text></g></g><g id="SvgjsG3276" transform="translate(1170.75,262.5625)"><path id="SvgjsPath3277" d="M 8 0L 69 0C 79.66666666666667 0 79.66666666666667 24 69 24L 8 24C -2.6666666666666665 24 -2.6666666666666665 0 8 0Z" stroke="rgba(158,158,158,1)" stroke-width="1" fill-opacity="1" fill="#ffffff"></path><g id="SvgjsG3278"><text id="SvgjsText3279" font-family="微软雅黑" text-anchor="middle" font-size="12px" width="57px" fill="#323232" font-weight="400" align="middle" lineHeight="125%" anchor="middle" family="微软雅黑" size="12px" weight="400" font-style="" opacity="1" y="3" transform="rotate(0)"><tspan id="SvgjsTspan3280" dy="15" x="38.5"><tspan id="SvgjsTspan3281" style="text-decoration:;">建工单</tspan></tspan></text></g></g><g id="SvgjsG3282" transform="translate(1170.75,304.0625)"><path id="SvgjsPath3283" d="M 8 0L 69 0C 79.66666666666667 0 79.66666666666667 24 69 24L 8 24C -2.6666666666666665 24 -2.6666666666666665 0 8 0Z" stroke="rgba(158,158,158,1)" stroke-width="1" fill-opacity="1" fill="#ffffff"></path><g id="SvgjsG3284"><text id="SvgjsText3285" font-family="微软雅黑" text-anchor="middle" font-size="12px" width="57px" fill="#323232" font-weight="400" align="middle" lineHeight="125%" anchor="middle" family="微软雅黑" size="12px" weight="400" font-style="" opacity="1" y="3" transform="rotate(0)"><tspan id="SvgjsTspan3286" dy="15" x="38.5"><tspan id="SvgjsTspan3287" style="text-decoration:;">打标</tspan></tspan></text></g></g><g id="SvgjsG3288" transform="translate(1170.75,345.56249999999994)"><path id="SvgjsPath3289" d="M 8 0L 69 0C 79.66666666666667 0 79.66666666666667 24 69 24L 8 24C -2.6666666666666665 24 -2.6666666666666665 0 8 0Z" stroke="rgba(158,158,158,1)" stroke-width="1" fill-opacity="1" fill="#ffffff"></path><g id="SvgjsG3290"><text id="SvgjsText3291" font-family="微软雅黑" text-anchor="middle" font-size="12px" width="57px" fill="#323232" font-weight="400" align="middle" lineHeight="125%" anchor="middle" family="微软雅黑" size="12px" weight="400" font-style="" opacity="1" y="3" transform="rotate(0)"><tspan id="SvgjsTspan3292" dy="15" x="38.5"><tspan id="SvgjsTspan3293" style="text-decoration:;">结束</tspan></tspan></text></g></g><g id="SvgjsG3294" transform="translate(1170.75,389.5625)"><path id="SvgjsPath3295" d="M 8 0L 69 0C 79.66666666666667 0 79.66666666666667 24 69 24L 8 24C -2.6666666666666665 24 -2.6666666666666665 0 8 0Z" stroke="rgba(158,158,158,1)" stroke-width="1" fill-opacity="1" fill="#ffffff"></path><g id="SvgjsG3296"><text id="SvgjsText3297" font-family="微软雅黑" text-anchor="middle" font-size="12px" width="57px" fill="#323232" font-weight="400" align="middle" lineHeight="125%" anchor="middle" family="微软雅黑" size="12px" weight="400" font-style="" opacity="1" y="3" transform="rotate(0)"><tspan id="SvgjsTspan3298" dy="15" x="38.5"><tspan id="SvgjsTspan3299" style="text-decoration:;">聊天</tspan></tspan></text></g></g><g id="SvgjsG3300"><path id="SvgjsPath3301" d="M261.2499999999999 246.56249999999994L279.8749999999999 246.56249999999994L279.8749999999999 246.56249999999994L299.94999999999993 246.56249999999994" stroke="#1976d2" stroke-width="1" fill="none" marker-end="url(#SvgjsMarker3302)"></path></g><g id="SvgjsG3304"><path id="SvgjsPath3305" d="M108.49999999999989 246.3125L127.18749999999989 246.3125L127.18749999999989 246.3125L144.57499999999987 246.3125" stroke="#1976d2" stroke-width="1" fill="none" marker-end="url(#SvgjsMarker3306)"></path></g><g id="SvgjsG3308"><path id="SvgjsPath3309" d="M180.8749999999999 246.5625L199.5624999999999 246.5625L199.5624999999999 246.5625L216.94999999999987 246.5625" stroke="#1976d2" stroke-width="1" fill="none" marker-end="url(#SvgjsMarker3310)"></path></g><g id="SvgjsG3312"><path id="SvgjsPath3313" d="M385.25 246.5625L401.125 246.5625L401.125 246.5625L418.44999999999993 246.5625" stroke="#1976d2" stroke-width="1" fill="none" marker-end="url(#SvgjsMarker3314)"></path></g><g id="SvgjsG3316"><path id="SvgjsPath3317" d="M454.7499999999999 246.11805555555554L476.4999999999999 246.11805555555554L476.4999999999999 246.61805555555554L496.94999999999993 246.61805555555554" stroke="#1976d2" stroke-width="1" fill="none" marker-end="url(#SvgjsMarker3318)"></path></g><g id="SvgjsG3320"><path id="SvgjsPath3321" d="M541.2499999999999 246.5625L559.75 246.5625L559.75 246.0625L576.95 246.0625" stroke="#1976d2" stroke-width="1" fill="none" marker-end="url(#SvgjsMarker3322)"></path></g><g id="SvgjsG3324"><path id="SvgjsPath3325" d="M662.25 246.5625L675.625 246.5625L675.625 246.5625L687.6999999999999 246.5625" stroke="#1976d2" stroke-width="1" fill="none" marker-end="url(#SvgjsMarker3326)"></path></g><g id="SvgjsG3328"><path id="SvgjsPath3329" d="M723.9999999999999 246.5625L743.0624999999999 246.5625L743.0624999999999 246.5625L760.8249999999999 246.5625" stroke="#1976d2" stroke-width="1" fill="none" marker-end="url(#SvgjsMarker3330)"></path></g><g id="SvgjsG3332"><path id="SvgjsPath3333" d="M805.1249999999999 247.01488095238102L829.3125 247.01488095238102L829.3125 247.01488095238102L852.2 247.01488095238102" stroke="#1975d2" stroke-width="1" fill="none" marker-end="url(#SvgjsMarker3334)"></path></g><g id="SvgjsG3336"><path id="SvgjsPath3337" d="M1149.75 247.51488095238102L1032.3437500000002 247.51488095238102L1032.3437500000002 247.51488095238102L915.8 247.51488095238102" stroke="#1975d2" stroke-width="1" fill="none" marker-end="url(#SvgjsMarker3338)"></path><rect id="SvgjsRect3340" width="52" height="16" x="1006.7749999999999" y="239.51488095238102" fill="#ffffff"></rect><text id="SvgjsText3341" font-family="微软雅黑" text-anchor="middle" font-size="13px" width="52px" fill="#323232" font-weight="400" align="top" lineHeight="16px" anchor="middle" family="微软雅黑" size="13px" weight="400" font-style="" opacity="1" y="237.88988095238102" transform="rotate(0)"><tspan id="SvgjsTspan3342" dy="16" x="1032.7749999999999"><tspan id="SvgjsTspan3343" style="text-decoration:;">实时更新</tspan></tspan></text></g><g id="SvgjsG3344"><path id="SvgjsPath3345" d="M1209.25 54.51488095238105L1209.25 25.01488095238105L706.4999999999999 25.01488095238105L706.4999999999999 215.7625" stroke="#1976d2" stroke-width="1" fill="none" marker-end="url(#SvgjsMarker3346)"></path></g><g id="SvgjsG3348"><path id="SvgjsPath3349" d="M783.6249999999999 127.0625L783.6249999999999 53.92484263820458L969.7499999999995 53.92484263820458L969.7499999999995 82.12484263820457" stroke="#1975d2" stroke-width="1" fill="none" marker-end="url(#SvgjsMarker3350)"></path></g><g id="SvgjsG3352"><path id="SvgjsPath3353" d="M783.6249999999999 365.0625L783.6249999999999 401.5625L851.95 401.5625" stroke="#1976d2" stroke-width="1" fill="none" marker-end="url(#SvgjsMarker3354)"></path><rect id="SvgjsRect3356" width="45" height="16" x="777.0375" y="393.5625" fill="#ffffff"></rect><text id="SvgjsText3357" font-family="微软雅黑" text-anchor="middle" font-size="13px" width="45px" fill="#323232" font-weight="400" align="top" lineHeight="16px" anchor="middle" family="微软雅黑" size="13px" weight="400" font-style="" opacity="1" y="391.9375" transform="rotate(0)"><tspan id="SvgjsTspan3358" dy="16" x="799.5375"><tspan id="SvgjsTspan3359" style="text-decoration:;">relation</tspan></tspan></text></g><g id="SvgjsG3360"><path id="SvgjsPath3361" d="M1209.25 440.5148809523811L1209.25 470.0148809523811L1112.1875 470.0148809523811L1112.1875 401.5625L1086.55 401.5625" stroke="#1975d2" stroke-width="1" fill="none" marker-end="url(#SvgjsMarker3362)"></path></g><g id="SvgjsG3364"><path id="SvgjsPath3365" d="M519.7499999999999 365.5625L519.7499999999999 465.0625L969.25 465.0625L969.25 436.86249999999995" stroke="#1976d2" stroke-width="1" fill="none" marker-end="url(#SvgjsMarker3366)"></path></g></svg>