<svg width="3858" height="4415" viewBox="0 0 3858 4415" fill="none" xmlns="http://www.w3.org/2000/svg">
<rect width="3858" height="4415" fill="white"/>
<rect x="410.292" y="826.376" width="1617.78" height="336.903" rx="43" fill="#B8EEFF" stroke="#525252" stroke-width="2"/>
<rect x="2546.25" y="826.376" width="755.355" height="2275.51" rx="43" fill="#F7C6FF" stroke="#525252" stroke-width="2"/>
<rect x="410.292" y="1414.69" width="1617.78" height="336.903" rx="43" fill="#B8EEFF" stroke="#525252" stroke-width="2"/>
<rect x="410.292" y="2003" width="1617.78" height="336.903" rx="43" fill="#B8EEFF" stroke="#525252" stroke-width="2"/>
<rect x="410.292" y="2591.32" width="1617.78" height="336.903" rx="43" fill="#B8EEFF" stroke="#525252" stroke-width="2"/>
<rect x="775.005" y="3207.34" width="888.358" height="274.326" rx="43" fill="#D3FFB8" stroke="#525252" stroke-width="2"/>
<rect x="775.005" y="3760.79" width="888.358" height="274.326" rx="43" fill="#FFDEB8" stroke="#525252" stroke-width="2"/>
<path d="M1142.78 909.785C1146.18 903.449 1147.78 896.153 1148.8 885.977H1152.13V878.169H1137.54C1138.5 875.545 1139.2 873.049 1139.78 870.681L1132.29 869.273C1131.07 875.225 1128.51 882.265 1125.25 887.897V881.561H1121.54C1123.26 879.449 1125.44 876.249 1126.91 873.945L1121.47 870.425C1120.19 873.177 1117.82 876.825 1115.97 878.937V869.721L1108.93 869.337V881.561H1103.87L1108.1 878.617C1106.62 875.865 1104.38 872.601 1102.66 870.745L1097.73 874.009C1099.26 875.737 1101.44 879.001 1102.78 881.561H1097.41V887.897H1106.43C1103.36 890.777 1099.52 893.337 1094.98 895.321L1098.75 901.209C1103.04 898.841 1106.18 896.089 1108.93 893.081V898.393H1115.97V894.105C1118.02 895.641 1120.38 897.689 1122.24 899.737L1125.76 895.001L1127.87 898.777L1129.92 895.193C1130.88 900.249 1132.22 904.793 1134.34 909.145C1131.52 913.497 1127.62 917.209 1122.18 920.793L1123.78 917.529C1122.5 916.825 1121.28 916.249 1120.06 915.737C1122.3 913.241 1123.58 910.617 1125.06 907.737V901.721H1112.64L1113.34 899.801L1106.11 897.881C1105.66 899.097 1105.15 900.377 1104.58 901.721H1096.38V908.121H1101.44C1100.54 909.785 1099.58 911.385 1098.56 912.921C1101.57 914.137 1104.58 915.481 1107.65 917.017C1104.83 918.233 1100.86 919.385 1095.74 920.601L1099.14 927.193C1106.05 925.081 1110.78 922.841 1114.37 920.601L1120.58 924.185L1121.73 921.817L1126.34 927.321C1131.46 923.481 1135.49 919.769 1138.5 916.121C1141.25 920.025 1144.77 923.737 1149.06 927.385L1154.37 920.793C1149.5 917.017 1145.79 913.625 1142.78 909.785ZM1134.46 885.977H1141.31C1140.74 892.121 1139.78 897.241 1138.05 901.849C1136.06 897.433 1134.91 892.569 1134.21 886.489L1134.46 885.977ZM1115.97 890.969V887.897H1125.25C1124.67 888.921 1124.16 889.817 1123.46 890.777L1125.57 894.553C1122.75 891.993 1120.06 889.881 1118.02 888.601L1115.97 890.969ZM1117.06 908.121C1116.22 909.913 1115.33 911.513 1114.05 912.857C1112.06 912.025 1110.08 911.193 1108.16 910.489C1108.61 909.785 1109.06 909.081 1109.57 908.121H1117.06ZM1215.96 900.313V893.465H1203.29V889.625H1213.78V871.577H1179.86V890.329C1179.86 905.497 1178.52 912.345 1173.78 920.665C1173.98 919.833 1173.91 918.809 1173.91 917.721V901.337L1178.84 899.417L1178.01 894.937L1177.62 891.673C1176.54 892.185 1175.26 892.697 1173.91 893.273V887.193H1178.26V879.577H1173.91V870.105L1166.62 869.785V879.577H1160.86V887.193H1166.62V896.089C1163.54 897.305 1160.6 898.393 1158.55 899.097L1160.22 907.033L1166.62 904.345V916.377C1166.62 918.425 1166.3 919.065 1164.44 919.321L1161.05 919.769L1163.1 926.873L1167.9 926.361C1171.29 925.913 1172.76 925.017 1173.46 922.649L1179.61 926.361C1184.41 918.489 1186.26 911.641 1186.97 900.313H1196.12V905.113H1186.84V925.465H1213.08V905.113H1203.29V900.313H1215.96ZM1206.49 878.425V882.841H1187.16V878.425H1206.49ZM1187.16 893.465V891.225V889.625H1196.12V893.465H1187.16ZM1205.98 918.809H1193.88V911.961H1205.98V918.809ZM1278.83 887.961H1269.81L1270.96 880.921H1276.02V874.073H1263.6L1262.51 868.889L1254.58 869.273L1255.73 874.073H1242.61V880.921H1247.98L1249.01 887.961H1241.58V894.937H1251.12C1250.67 896.409 1250.16 897.817 1249.58 899.289H1240.88V906.073H1246.58C1245.55 908.185 1244.46 910.233 1243.38 912.089C1246.51 913.369 1249.65 914.649 1252.78 915.993C1249.14 917.465 1244.34 918.617 1237.87 920.089L1240.75 927.193C1250.29 924.953 1256.56 922.649 1261.17 919.769C1265.84 922.009 1270.58 924.377 1275.44 927.129L1278.7 919.961C1275.12 918.233 1271.15 916.377 1267.06 914.585C1269.04 912.217 1270.45 909.401 1271.79 906.073H1277.42V899.289H1257.14L1258.29 896.153L1253.55 894.937H1278.83V887.961ZM1239.92 895.961L1239.79 892.441L1236.4 893.849V886.873H1241.14V879.449H1236.4V870.105L1229.49 869.785V879.449H1223.79V886.873H1229.49V896.409L1221.55 899.033L1223.02 906.457C1224.62 905.753 1226.99 904.985 1229.49 904.025V915.801C1229.49 917.913 1229.04 918.617 1226.74 918.937L1223.47 919.385L1225.65 926.617L1229.74 926.169C1235.06 925.657 1236.4 923.545 1236.4 917.721V901.593L1240.11 900.313L1239.92 895.961ZM1263.73 880.921C1263.41 883.225 1263.09 885.657 1262.64 887.961H1256.11L1255.09 880.921H1263.73ZM1264.18 906.073C1263.09 908.313 1261.94 910.105 1260.21 911.641C1257.46 910.489 1255.02 909.529 1252.91 908.825L1254.32 906.073H1264.18ZM1329.67 909.529C1333.77 903.065 1335.75 895.705 1337.1 885.977H1341V877.785H1322.25C1322.95 875.545 1323.53 873.113 1324.1 870.617L1316.17 868.889C1313.93 879.321 1310.86 885.401 1307.08 890.713V869.849L1299.21 869.529V902.169C1297.74 902.873 1296.39 903.449 1295.05 903.897V876.761L1287.37 876.441V904.601C1287.37 906.201 1287.24 906.841 1285.9 907.801L1289.22 915.353C1292.49 913.817 1295.69 912.409 1299.21 910.553V925.657H1307.08V922.073L1310.6 927.769C1316.74 923.673 1321.42 919.897 1325 915.801C1328.65 919.897 1333 923.673 1338.31 927.513L1343.43 920.537C1337.8 916.953 1333.32 913.369 1329.67 909.529ZM1329.42 885.977C1328.58 892.825 1327.24 898.201 1324.62 903.065C1321.74 898.457 1319.75 893.145 1318.66 887.065L1319.18 885.977H1329.42ZM1307.08 895.193L1311.18 898.777C1312.01 897.881 1312.78 896.921 1313.54 895.833C1315.08 900.761 1317.19 905.305 1320.07 909.465C1316.81 913.049 1312.71 916.185 1307.08 919.705V895.193Z" fill="#00526C"/>
<path d="M1069.28 607.437H1079.77V592.671H1085.64C1099.16 592.671 1104.47 588.324 1104.47 575.835C1104.47 564.312 1099.99 559.551 1085.64 559.551H1069.28V607.437ZM1079.77 584.253V567.831H1084.26C1091.29 567.831 1093.78 569.901 1093.78 576.042C1093.78 582.39 1091.36 584.253 1084.26 584.253H1079.77ZM1134.89 608.127C1139.51 608.127 1143.72 607.299 1146.55 606.126V597.156C1142.89 598.467 1139.3 599.019 1135.37 599.019C1126.88 599.019 1123.09 595.845 1123.09 583.425C1123.09 571.695 1126.88 567.831 1135.51 567.831C1139.58 567.831 1143.03 568.452 1146 569.487V560.448C1143.03 559.413 1139.3 558.861 1134.82 558.861C1120.74 558.861 1111.7 565.002 1111.7 583.494C1111.7 603.573 1120.88 608.127 1134.89 608.127ZM1193.85 607.437L1180.4 588.876C1186.54 587.013 1189.37 582.735 1189.37 574.731C1189.37 563.691 1183.78 559.551 1170.87 559.551H1154.59V607.437H1165.08V589.98H1170.25L1181.5 607.437H1193.85ZM1165.08 582.183V567.831H1169.29C1176.32 567.831 1178.95 569.004 1178.95 574.731C1178.95 580.803 1176.32 582.183 1169.29 582.183H1165.08ZM1251.91 596.397C1251.42 598.881 1251.15 600.399 1250.66 602.4C1250.04 604.884 1249.56 605.436 1248.46 605.436C1247.56 605.436 1247.01 604.677 1245.9 602.745C1245.08 601.158 1244.32 599.364 1243.56 597.087C1248.04 590.739 1251.56 583.425 1254.6 574.248L1247.35 571.557C1245.21 577.629 1243.42 582.321 1241.14 586.461C1240.38 581.769 1239.76 576.387 1239.21 569.556H1257.01V561.345H1250.94L1253.15 559.206C1250.46 556.101 1247.97 553.617 1245.77 551.409L1240.38 556.239C1241.97 557.895 1243.42 559.413 1245.08 561.345H1238.73C1238.52 556.653 1238.38 554.1 1238.38 553.065L1229.62 552.72L1230.1 561.345H1199.6V569.556H1230.59C1231.34 581.148 1232.59 589.635 1234.17 596.052C1232.03 598.26 1229.62 600.33 1226.79 602.607L1226.72 601.503L1226.45 597.57C1221.48 598.398 1201.54 601.296 1197.67 601.848L1198.5 610.68C1201.74 610.128 1213.47 608.058 1221.2 606.954L1226.38 613.509C1230.45 610.68 1233.9 607.851 1237 604.746C1237.35 605.505 1237.62 606.126 1237.97 606.747C1241.21 612.819 1244.66 615.303 1248.59 615.303C1252.73 615.303 1255.7 613.716 1257.36 607.989C1258.25 604.746 1258.67 601.917 1259.15 599.502L1251.91 596.397ZM1226.86 572.937H1202.64V595.914H1226.86V572.937ZM1219.13 588.255H1210.23V581.01H1219.13V588.255ZM1267.39 607.437H1277.6V569.763H1278.01L1287.12 598.398H1297.61L1306.86 569.763H1307.27V607.437H1317.62V559.551H1301.06L1292.78 586.53H1292.37L1284.43 559.551H1267.39V607.437ZM1370.39 583.494C1370.39 563.967 1362.74 558.861 1348.66 558.861C1334.79 558.861 1326.92 563.967 1326.92 583.494C1326.92 602.814 1334.65 608.127 1348.31 608.127L1354.32 617.442H1366.67L1358.32 606.885C1366.19 604.539 1370.39 597.846 1370.39 583.494ZM1337.96 583.494C1337.96 571.833 1339.9 567.417 1348.66 567.417C1357.49 567.417 1359.42 571.833 1359.42 583.494C1359.42 595.293 1357.49 599.364 1348.66 599.364C1339.9 599.364 1337.96 595.293 1337.96 583.494Z" fill="#00526C"/>
<path d="M2857.62 929.412V946.052H2840.09V929.412H2830.36V973.828H2840.09V954.18H2857.62V973.828H2867.29V929.412H2857.62ZM2877.23 973.828H2893.55C2906.55 973.828 2910.13 969.092 2910.13 961.028C2910.13 955.46 2907.51 952.068 2902.32 950.724V950.468C2907.19 949.124 2908.79 945.988 2908.79 941.38C2908.79 933.38 2905.2 929.412 2892.21 929.412H2877.23V973.828ZM2886.96 947.716V937.156H2890.23C2896.63 937.156 2899.19 937.796 2899.19 942.404C2899.19 946.756 2896.56 947.716 2890.23 947.716H2886.96ZM2886.96 966.02V954.756H2891.44C2898.35 954.756 2900.27 956.228 2900.27 960.388C2900.27 964.932 2898.29 966.02 2891.44 966.02H2886.96ZM2932.94 938.692C2930.45 938.692 2927.12 938.884 2924.49 939.204V947.076C2926.86 946.628 2929.36 946.436 2931.85 946.436C2937.93 946.436 2939.21 948.036 2939.21 952.132V953.028H2930.64C2921.36 953.028 2916.43 955.908 2916.43 963.908C2916.43 971.076 2920.53 974.468 2928.27 974.468C2933.97 974.468 2937.81 972.356 2939.28 969.796L2940.17 973.828H2948.49V949.892C2948.49 942.596 2944.53 938.692 2932.94 938.692ZM2930.64 967.364C2927.05 967.364 2925.58 966.34 2925.58 963.588C2925.58 960.068 2927.44 959.3 2932.05 959.3H2939.21V963.332C2938 965.7 2934.93 967.364 2930.64 967.364ZM2967.51 974.212C2976.41 974.212 2981.59 971.396 2981.59 963.268C2981.59 956.932 2979.61 954.628 2972.06 952.708C2966.62 951.364 2965.66 950.98 2965.66 948.804C2965.66 946.436 2966.81 945.604 2971.1 945.604C2974.17 945.604 2978.01 946.372 2979.86 946.884L2980.25 939.78C2978.39 939.076 2974.62 938.628 2970.78 938.628C2960.73 938.628 2956.95 942.468 2956.95 948.932C2956.95 954.756 2958.68 956.996 2966.1 958.724C2971.67 960.068 2972.76 960.772 2972.76 963.524C2972.76 966.276 2971.03 966.98 2967 966.98C2963.86 966.98 2959.9 966.404 2956.57 965.38V973.124C2959.64 973.828 2963.48 974.212 2967.51 974.212ZM3019.49 953.796C3019.49 944.9 3016.74 938.628 3004.71 938.628C2993.89 938.628 2987.62 942.532 2987.62 956.548C2987.62 970.564 2993.89 974.468 3004.45 974.468C3010.47 974.468 3015.65 973.252 3017.7 972.036V964.74C3015.46 965.956 3010.47 967.172 3006.25 967.172C3000.1 967.172 2997.22 964.932 2996.9 960.004L3019.17 958.596C3019.37 957.636 3019.49 955.78 3019.49 953.796ZM2996.9 953.54C2997.09 948.1 2999.01 945.604 3004.71 945.604C3010.15 945.604 3011.05 948.676 3011.05 952.452L2996.9 953.54Z" fill="#720085"/>
<path d="M1111.28 1498.1C1114.68 1491.76 1116.28 1484.47 1117.3 1474.29H1120.63V1466.48H1106.04C1107 1463.86 1107.7 1461.36 1108.28 1458.99L1100.79 1457.59C1099.57 1463.54 1097.01 1470.58 1093.75 1476.21V1469.87H1090.04C1091.76 1467.76 1093.94 1464.56 1095.41 1462.26L1089.97 1458.74C1088.69 1461.49 1086.32 1465.14 1084.47 1467.25V1458.03L1077.43 1457.65V1469.87H1072.37L1076.6 1466.93C1075.12 1464.18 1072.88 1460.91 1071.16 1459.06L1066.23 1462.32C1067.76 1464.05 1069.94 1467.31 1071.28 1469.87H1065.91V1476.21H1074.93C1071.86 1479.09 1068.02 1481.65 1063.48 1483.63L1067.25 1489.52C1071.54 1487.15 1074.68 1484.4 1077.43 1481.39V1486.71H1084.47V1482.42C1086.52 1483.95 1088.88 1486 1090.74 1488.05L1094.26 1483.31L1096.37 1487.09L1098.42 1483.51C1099.38 1488.56 1100.72 1493.11 1102.84 1497.46C1100.02 1501.81 1096.12 1505.52 1090.68 1509.11L1092.28 1505.84C1091 1505.14 1089.78 1504.56 1088.56 1504.05C1090.8 1501.55 1092.08 1498.93 1093.56 1496.05V1490.03H1081.14L1081.84 1488.11L1074.61 1486.19C1074.16 1487.41 1073.65 1488.69 1073.08 1490.03H1064.88V1496.43H1069.94C1069.04 1498.1 1068.08 1499.7 1067.06 1501.23C1070.07 1502.45 1073.08 1503.79 1076.15 1505.33C1073.33 1506.55 1069.36 1507.7 1064.24 1508.91L1067.64 1515.51C1074.55 1513.39 1079.28 1511.15 1082.87 1508.91L1089.08 1512.5L1090.23 1510.13L1094.84 1515.63C1099.96 1511.79 1103.99 1508.08 1107 1504.43C1109.75 1508.34 1113.27 1512.05 1117.56 1515.7L1122.87 1509.11C1118 1505.33 1114.29 1501.94 1111.28 1498.1ZM1102.96 1474.29H1109.81C1109.24 1480.43 1108.28 1485.55 1106.55 1490.16C1104.56 1485.75 1103.41 1480.88 1102.71 1474.8L1102.96 1474.29ZM1084.47 1479.28V1476.21H1093.75C1093.17 1477.23 1092.66 1478.13 1091.96 1479.09L1094.07 1482.87C1091.25 1480.31 1088.56 1478.19 1086.52 1476.91L1084.47 1479.28ZM1085.56 1496.43C1084.72 1498.23 1083.83 1499.83 1082.55 1501.17C1080.56 1500.34 1078.58 1499.51 1076.66 1498.8C1077.11 1498.1 1077.56 1497.39 1078.07 1496.43H1085.56ZM1184.46 1488.63V1481.78H1171.79V1477.94H1182.28V1459.89H1148.36V1478.64C1148.36 1493.81 1147.02 1500.66 1142.28 1508.98C1142.48 1508.15 1142.41 1507.12 1142.41 1506.03V1489.65L1147.34 1487.73L1146.51 1483.25L1146.12 1479.99C1145.04 1480.5 1143.76 1481.01 1142.41 1481.59V1475.51H1146.76V1467.89H1142.41V1458.42L1135.12 1458.1V1467.89H1129.36V1475.51H1135.12V1484.4C1132.04 1485.62 1129.1 1486.71 1127.05 1487.41L1128.72 1495.35L1135.12 1492.66V1504.69C1135.12 1506.74 1134.8 1507.38 1132.94 1507.63L1129.55 1508.08L1131.6 1515.19L1136.4 1514.67C1139.79 1514.23 1141.26 1513.33 1141.96 1510.96L1148.11 1514.67C1152.91 1506.8 1154.76 1499.95 1155.47 1488.63H1164.62V1493.43H1155.34V1513.78H1181.58V1493.43H1171.79V1488.63H1184.46ZM1174.99 1466.74V1471.15H1155.66V1466.74H1174.99ZM1155.66 1481.78V1479.54V1477.94H1164.62V1481.78H1155.66ZM1174.48 1507.12H1162.38V1500.27H1174.48V1507.12ZM1225.7 1470.9H1216.55V1500.66H1223.2V1478.07H1237.48V1500.66H1244.58V1470.9H1233.06C1233.51 1469.43 1233.76 1467.89 1234.02 1466.61H1245.99V1459.38H1216.42V1466.61H1226.66L1225.7 1470.9ZM1212.52 1494.64C1213.73 1492.15 1214.69 1489.27 1215.4 1486.26V1479.03H1206.69L1207.97 1477.81L1206.44 1476.08C1209.19 1472.69 1213.28 1467.89 1214.37 1467.38V1459.63H1193V1466.67H1206.24C1205.41 1467.12 1203.3 1469.3 1201.51 1471.35C1199.91 1469.87 1198.5 1468.72 1197.41 1467.83L1193.38 1472.5C1195.17 1473.84 1197.99 1476.27 1200.55 1479.03H1191.08V1486.45H1199.01V1503.28C1199.01 1507.12 1198.56 1507.44 1195.81 1507.63L1192.61 1507.83L1195.11 1515.25L1198.18 1514.99C1205.03 1514.29 1205.92 1513.2 1205.92 1506.55V1486.45H1208.74C1208.23 1488.69 1207.52 1490.67 1206.76 1492.66L1212.52 1494.64ZM1233.19 1497.97C1233.64 1495.86 1233.89 1493.62 1233.89 1491.25V1480.18L1226.47 1479.92V1490.55C1226.47 1499.31 1224.42 1503.6 1210.28 1509.23L1215.01 1516.21C1222.5 1512.69 1227.43 1509.11 1230.44 1504.5C1234.92 1507.76 1240.74 1512.63 1244.2 1516.08L1248.42 1508.98C1245.16 1506.23 1237.8 1501.04 1233.19 1497.97ZM1296.7 1505.46C1287.29 1505.39 1280.32 1503.6 1275.13 1498.23C1279.8 1490.99 1282.62 1483.38 1284.16 1474.42V1466.03H1269.88C1270.46 1463.79 1271.04 1461.55 1271.48 1459.25L1263.93 1457.84C1261.69 1468.79 1257.79 1479.47 1253.31 1486.51L1258.94 1491.7C1259.64 1490.48 1260.35 1489.46 1261.05 1488.24C1262.27 1492.08 1263.74 1495.28 1265.28 1498.03C1262.01 1502.07 1257.92 1506.03 1252.99 1510L1259.2 1515.95C1263.55 1512.18 1267.13 1508.59 1270.27 1504.82C1276.73 1511.67 1284.99 1513.59 1295.04 1513.78C1299.13 1513.84 1303.93 1513.78 1308.6 1513.52L1310.27 1505.2C1305.15 1505.46 1301.24 1505.52 1296.7 1505.46ZM1295.8 1479.67C1299.39 1482.23 1304.19 1486.32 1307.13 1489.27L1310.84 1481.52C1307.45 1478.77 1301.5 1474.55 1297.4 1471.99L1295.8 1474.74V1458.42L1287.61 1458.1V1503.35H1295.8V1479.67ZM1265.79 1478.39C1266.36 1477.17 1266.88 1475.83 1267.32 1474.42H1276.41C1275.2 1480.5 1273.28 1485.87 1270.2 1491.06C1268.48 1487.67 1267.07 1483.51 1265.79 1478.39ZM1357.97 1505.91V1501.94H1370.26V1494.77H1357.97V1490.8H1370.26V1459.7H1338.39V1490.8H1350.74V1494.77H1338.64V1501.94H1350.74V1505.91H1337.75L1337.56 1502.83L1337.17 1498.74C1336.15 1499.06 1334.1 1499.51 1331.6 1500.08V1487.73H1336.6V1480.31H1331.6V1469.04H1336.98V1461.62H1318.23V1469.04H1324.31V1480.31H1318.68V1487.73H1324.31V1501.75C1320.92 1502.45 1317.91 1503.09 1316.44 1503.28L1317.59 1510.83C1320.21 1510.13 1330.52 1507.76 1335.7 1506.74V1513.2H1373.14V1505.91H1357.97ZM1350.74 1466.99V1471.79H1345.75V1466.99H1350.74ZM1363.09 1471.79H1357.97V1466.99H1363.09V1471.79ZM1345.75 1483.63V1478.83H1350.74V1483.63H1345.75ZM1357.97 1483.63V1478.83H1363.09V1483.63H1357.97Z" fill="#00526C"/>
<path d="M1119.81 2090.44C1117.76 2086.86 1113.79 2081.8 1111.55 2078.67C1111.55 2078.22 1111.62 2077.84 1111.68 2077.39H1118.08V2069.26H1112.06V2066.44V2062.8H1117.89V2054.8H1112.06V2046.35L1104.58 2046.03V2054.8H1098.5V2062.8H1104.58V2066.44V2069.26H1097.41V2077.39H1104.13C1103.1 2086.09 1100.61 2091.08 1094.98 2098.12L1101.18 2103.69C1105.28 2098.44 1108.1 2093.84 1109.76 2088.08C1111.49 2090.64 1113.28 2093.52 1114.5 2095.82L1119.81 2090.44ZM1126.98 2055.05H1141.63V2084.11H1148.67V2047.24H1119.81V2084.17H1126.98V2055.05ZM1146.3 2085.32C1146.3 2086.99 1146.11 2090.44 1145.73 2092.24C1145.41 2094.41 1145.09 2094.92 1142.85 2094.92H1142.21C1140.16 2094.92 1139.58 2094.35 1139.58 2092.24V2079.82L1136.64 2079.69C1137.22 2076.88 1137.54 2073.8 1137.6 2070.54C1137.6 2068.43 1137.79 2059.6 1137.79 2057.55L1130.43 2057.29C1130.43 2059.28 1130.37 2067.72 1130.18 2069.58C1129.66 2083.72 1127.23 2089.29 1114.05 2098.19L1118.91 2104.52C1124.86 2100.43 1129.34 2095.95 1132.42 2090.76V2094.92C1132.42 2100.68 1134.53 2102.22 1139.07 2102.41C1140.8 2102.48 1142.66 2102.48 1144.58 2102.41C1150.02 2102.22 1151.49 2100.75 1152.32 2094.92C1152.58 2092.88 1152.83 2090.12 1153.02 2088.01L1146.3 2085.32ZM1205.14 2046.6V2091.53C1205.14 2094.28 1204.31 2094.86 1202.01 2095.12L1197.59 2095.63L1200.41 2102.99L1204.57 2102.6C1210.71 2102.09 1212.5 2100.17 1212.5 2093.2V2046.92L1205.14 2046.6ZM1189.66 2086.03V2047.56H1162.52V2086.16H1169.69V2055.44H1182.3V2085.45C1181.21 2084.43 1180.12 2083.47 1179.16 2082.64C1179.54 2080.2 1179.74 2077.52 1179.74 2074.64V2058.12L1172.44 2057.8V2072.84C1172.44 2085.2 1169.75 2090.12 1158.04 2097.23L1163.35 2103.37C1169.94 2099.21 1174.1 2095.44 1176.6 2090.57C1179.93 2093.71 1183.9 2097.68 1186.65 2100.94L1191.9 2094.73C1189.59 2092.36 1186.2 2089.04 1182.94 2086.03H1189.66ZM1200.6 2052.24L1193.62 2051.92V2088.08H1200.6V2052.24ZM1273.78 2046.99L1265.46 2046.67V2102.16H1273.78V2046.99ZM1234.35 2074.7L1234.86 2068.88H1255.92V2047.56H1227.31V2055.31H1247.66V2061.39H1227.31L1225.65 2082.44H1247.34C1247.34 2084.36 1246.96 2089.04 1246.77 2090.44C1246.51 2093.2 1245.3 2094.16 1242.03 2094.41L1235.57 2094.92L1237.87 2102.67L1243.57 2102.22C1252.08 2101.52 1254.26 2100.11 1254.96 2092.68C1255.22 2088.84 1255.86 2076.68 1255.86 2074.7H1234.35ZM1289.67 2073.04H1305.93V2070.6L1307.21 2074.7L1309.83 2074.44C1313.93 2074.12 1315.21 2073.87 1315.53 2071.37L1317.32 2074.96C1321.74 2073.48 1325.45 2071.69 1328.33 2069.71C1331.59 2071.82 1335.3 2073.61 1339.91 2075.21L1342.41 2068.88C1338.89 2067.98 1335.82 2066.89 1333.19 2065.55C1335.43 2063.05 1336.9 2060.17 1338.12 2056.84H1340.68V2051.02H1326.41C1327.11 2049.74 1327.69 2048.4 1328.2 2047.12L1321.99 2045.2C1320.9 2048.01 1319.62 2050.76 1317.64 2053.58V2048.97H1311.3V2046.22L1304.52 2045.96V2048.97H1300.3V2046.22L1293.64 2045.96V2048.97H1286.73V2054.09H1293.64V2055.88H1300.3V2054.09H1304.52V2056.2H1311.3V2054.09H1317.26C1316.42 2055.31 1315.53 2056.33 1314.31 2057.55H1296.39C1296.58 2057.23 1296.65 2056.91 1296.84 2056.59L1290.76 2055.31C1289.42 2057.93 1286.86 2060.68 1283.78 2062.92L1286.86 2067.98C1287.75 2067.28 1288.71 2066.51 1289.67 2065.55V2073.04ZM1328.14 2062.16C1326.34 2060.62 1324.94 2058.83 1323.85 2056.84H1331.59C1330.63 2058.89 1329.61 2060.68 1328.14 2062.16ZM1315.72 2068.62C1315.78 2066.06 1315.78 2062.41 1315.98 2059.92L1318.34 2063.12L1319.88 2061.26C1320.84 2062.92 1322.06 2064.4 1323.4 2065.68C1321.29 2066.76 1318.73 2067.72 1315.72 2068.62ZM1309.9 2061.84C1309.83 2064.08 1309.58 2067.02 1309.51 2067.85C1309.45 2069.39 1309.13 2069.58 1307.4 2069.77L1305.93 2069.96V2063.56H1291.72L1293.32 2061.84H1309.9ZM1300.74 2069.39H1294.86V2067.21H1300.74V2069.39ZM1318.54 2087.88H1334.73V2083.28H1318.54V2080.72C1324.94 2080.4 1330.95 2080.14 1335.62 2079.69L1335.05 2074.51C1323.66 2075.72 1303.37 2076.49 1290.25 2076.49L1290.44 2081.55C1295.75 2081.55 1302.98 2081.36 1310.6 2081.04V2083.28H1292.49V2087.88H1310.6V2089.93H1286.98V2095.12H1310.6V2095.31C1310.6 2097.1 1310.47 2097.29 1308.17 2097.48L1302.34 2097.87L1304.26 2103.76L1310.66 2103.31C1316.74 2102.8 1318.54 2101.52 1318.54 2096.33V2095.12H1340.23V2089.93H1318.54V2087.88Z" fill="#00526C"/>
<path d="M1139.2 2682.08C1129.79 2682.02 1122.82 2680.23 1117.63 2674.85C1122.3 2667.62 1125.12 2660 1126.66 2651.04V2642.66H1112.38C1112.96 2640.42 1113.54 2638.18 1113.98 2635.88L1106.43 2634.47C1104.19 2645.41 1100.29 2656.1 1095.81 2663.14L1101.44 2668.32C1102.14 2667.11 1102.85 2666.08 1103.55 2664.87C1104.77 2668.71 1106.24 2671.91 1107.78 2674.66C1104.51 2678.69 1100.42 2682.66 1095.49 2686.63L1101.7 2692.58C1106.05 2688.8 1109.63 2685.22 1112.77 2681.44C1119.23 2688.29 1127.49 2690.21 1137.54 2690.4C1141.63 2690.47 1146.43 2690.4 1151.1 2690.15L1152.77 2681.83C1147.65 2682.08 1143.74 2682.15 1139.2 2682.08ZM1138.3 2656.29C1141.89 2658.85 1146.69 2662.95 1149.63 2665.89L1153.34 2658.15C1149.95 2655.4 1144 2651.17 1139.9 2648.61L1138.3 2651.36V2635.04L1130.11 2634.72V2679.97H1138.3V2656.29ZM1108.29 2655.01C1108.86 2653.8 1109.38 2652.45 1109.82 2651.04H1118.91C1117.7 2657.12 1115.78 2662.5 1112.7 2667.68C1110.98 2664.29 1109.57 2660.13 1108.29 2655.01ZM1208.02 2683.62V2657.96H1191.38V2655.97H1212.63V2650.98H1191.38V2648.87H1211.86V2635.17H1163.35V2648.87H1183.9V2650.98H1162.65V2655.97H1183.9V2657.96H1167.32V2683.62H1159.7V2689.19H1215.64V2683.62H1208.02ZM1170.9 2640.68H1177.62V2643.56H1170.9V2640.68ZM1184.47 2643.56V2640.68H1190.87V2643.56H1184.47ZM1204.44 2643.56H1197.72V2640.68H1204.44V2643.56ZM1200.41 2662.76V2664.74H1174.87V2662.76H1200.41ZM1200.41 2671.01H1174.87V2669.09H1200.41V2671.01ZM1200.41 2675.36V2677.35H1174.87V2675.36H1200.41ZM1174.87 2681.7H1200.41V2683.62H1174.87V2681.7ZM1263.34 2644.32C1263.41 2641.57 1263.47 2639.14 1263.47 2637.41V2634.66L1255.79 2634.28L1255.66 2644.32H1249.9V2652.13H1255.54C1255.54 2653.09 1255.47 2653.73 1255.47 2654.44C1255.15 2665.51 1255.41 2672.55 1252.02 2679.33C1249.71 2673.44 1247.98 2668.9 1245.94 2664.48L1239.09 2667.43C1240.05 2669.67 1241.14 2672.42 1242.16 2675.43C1239.28 2676.13 1236.53 2676.52 1233.78 2676.96C1235.31 2673.76 1238.19 2666.53 1239.92 2660.9H1250.03V2653.03H1223.86V2660.9H1231.92C1230.06 2667.88 1227.06 2673.89 1226.16 2675.43C1225.58 2676.45 1225.33 2677.28 1223.6 2678.12L1225.78 2685.92C1226.48 2685.73 1227.18 2685.67 1227.89 2685.48C1232.56 2684.71 1238.51 2683.94 1244.85 2682.72L1245.74 2685.28L1249.58 2683.3C1248.37 2684.9 1246.83 2686.63 1245.1 2688.36L1252.02 2692.64C1264.5 2679.01 1262.58 2667.36 1263.09 2653.86C1263.09 2653.28 1263.15 2652.71 1263.15 2652.13H1268.59C1268.4 2658.72 1268.08 2670.37 1267.57 2678.63C1267.38 2681.96 1266.54 2682.34 1264.75 2682.6L1259.7 2683.11L1262.06 2690.79L1267.57 2690.21C1272.62 2689.7 1274.93 2688.36 1275.25 2682.85L1276.4 2644.32H1263.34ZM1248.11 2637.48H1226.61V2645.16H1248.11V2637.48ZM1340.55 2649.7V2641.64H1318.54C1319.43 2639.52 1320.2 2637.54 1320.84 2635.68L1313.03 2633.44C1310.54 2641.44 1306.82 2648.87 1300.62 2656.61V2647.4C1302.6 2643.11 1304.07 2639.33 1305.1 2636.45L1297.54 2633.96C1295.05 2642.47 1290.38 2652.52 1283.02 2661.41L1288.58 2667.17C1289.93 2665.44 1291.21 2663.72 1292.42 2661.92V2690.66H1300.62V2659.04L1305.54 2663.46C1309.38 2658.53 1312.33 2653.99 1314.63 2649.7H1314.76V2691.17H1322.89V2679.2H1338.7V2671.08H1322.89V2664.48H1337.29V2656.42H1322.89V2649.7H1340.55Z" fill="#00526C"/>
<path d="M1135.39 3386H1152.11V3324.31H1152.79L1167.7 3371.2H1184.88L1200.02 3324.31H1200.7V3386H1217.65V3307.58H1190.53L1176.97 3351.76H1176.29L1163.3 3307.58H1135.39V3386ZM1304.08 3346.79C1304.08 3314.81 1291.53 3306.45 1268.48 3306.45C1245.77 3306.45 1232.89 3314.81 1232.89 3346.79C1232.89 3378.43 1245.54 3387.13 1267.92 3387.13L1277.75 3402.39H1297.97L1284.3 3385.1C1297.18 3381.26 1304.08 3370.3 1304.08 3346.79ZM1250.97 3346.79C1250.97 3327.7 1254.13 3320.46 1268.48 3320.46C1282.95 3320.46 1286.11 3327.7 1286.11 3346.79C1286.11 3366.12 1282.95 3372.78 1268.48 3372.78C1254.13 3372.78 1250.97 3366.12 1250.97 3346.79Z" fill="#08699F"/>
<path d="M1180.56 3924.54V3906.46H1209.04V3892.11H1180.56V3875.95H1211.3V3861.03H1163.39V3939.45H1212.88V3924.54H1180.56ZM1247.18 3940.58C1268.76 3940.58 1277.35 3932.33 1277.35 3916.97C1277.35 3902.39 1273.28 3896.51 1254.52 3891.99C1243 3889.28 1241.19 3887.47 1241.19 3882.39C1241.19 3875.72 1244.92 3874.03 1253.84 3874.03C1260.4 3874.03 1269.44 3875.61 1273.28 3876.85V3862.73C1269.1 3861.26 1262.09 3859.9 1253.17 3859.9C1234.97 3859.9 1224.46 3866.23 1224.46 3882.84C1224.46 3896.85 1229.32 3901.6 1246.05 3905.44C1258.03 3908.38 1260.29 3910.53 1260.29 3916.51C1260.29 3923.52 1256.9 3925.89 1246.5 3925.89C1238.59 3925.89 1229.21 3924.54 1224.35 3922.73V3937.76C1229.21 3939.11 1238.02 3940.58 1247.18 3940.58Z" fill="#9F2C08"/>
<rect x="832.185" y="987.307" width="285" height="126" rx="21" fill="white"/>
<path d="M929.457 1073.69C930.865 1073.69 932.145 1073.56 933.297 1073.31V1067.03C932.593 1067.23 931.889 1067.29 931.185 1067.29C928.945 1067.29 928.177 1066.59 928.177 1063.32V1024.67H920.177V1065.24C920.177 1071.13 922.609 1073.69 929.457 1073.69ZM968.487 1053.02C968.487 1044.89 965.991 1038.11 954.023 1038.11C943.527 1038.11 937.447 1042.01 937.447 1056.03C937.447 1070.04 943.527 1073.95 954.023 1073.95C959.655 1073.95 964.647 1072.86 966.695 1071.64V1065.11C964.327 1066.27 959.591 1067.48 955.431 1067.48C948.519 1067.48 945.703 1064.86 945.511 1059.03L968.167 1057.56C968.359 1056.35 968.487 1054.75 968.487 1053.02ZM945.511 1053.34C945.703 1047.39 947.623 1044.25 954.023 1044.25C960.167 1044.25 961.063 1047.9 961.063 1052.19L945.511 1053.34ZM990.824 1038.11C988.328 1038.11 985.192 1038.23 982.568 1038.68V1045.53C985.064 1045.08 987.496 1044.83 989.992 1044.83C996.392 1044.83 997.8 1046.87 997.8 1050.97V1052.51H988.52C979.56 1052.51 974.504 1055.39 974.504 1063.51C974.504 1070.49 978.472 1073.95 986.344 1073.95C991.912 1073.95 996.136 1071.9 997.864 1068.89L998.696 1073.31H1005.8V1049.18C1005.8 1042.27 1002.15 1038.11 990.824 1038.11ZM988.072 1067.67C984.04 1067.67 982.44 1066.27 982.44 1063.26C982.44 1059.16 984.552 1058.2 989.608 1058.2H997.8V1062.75C996.328 1065.75 992.936 1067.67 988.072 1067.67ZM1031.22 1030.36C1032.31 1030.36 1033.4 1030.43 1034.36 1030.62V1024.73C1033.08 1024.54 1031.73 1024.41 1030.39 1024.41C1022.52 1024.41 1017.46 1026.46 1017.46 1038.43V1038.75H1011.96V1045.08H1017.46V1073.31H1025.46V1045.08H1032.69V1038.75H1025.46C1025.46 1032.09 1026.42 1030.36 1031.22 1030.36Z" fill="#00526C"/>
<rect x="832.185" y="987.307" width="285" height="126" rx="21" stroke="#525252" stroke-width="2"/>
<rect x="1210.18" y="987.307" width="396" height="126" rx="21" fill="white"/>
<path d="M1310.72 1053.72C1321.28 1054.23 1331.84 1054.23 1342.34 1053.72C1348.74 1053.4 1350.02 1051.93 1351.23 1046.81C1351.42 1045.98 1351.68 1044.51 1351.87 1042.97L1345.73 1040.79C1345.66 1042.14 1345.47 1043.61 1345.28 1044.57C1344.77 1047.45 1344.19 1047.96 1340.67 1048.15C1331.26 1048.67 1321.79 1048.67 1312.38 1048.15C1309.57 1047.96 1308.93 1047.32 1308.93 1044.7V1041.63H1344.96V1024.47H1302.66V1045.72C1302.66 1051.55 1304.9 1053.53 1310.72 1053.72ZM1338.5 1029.91V1036.25H1308.93V1029.91H1338.5ZM1352.83 1060.63H1338.5V1055.77L1332.16 1055.51V1060.63H1318.02V1055.77L1311.49 1055.51V1060.63H1296.51V1066.27H1311.04C1309.82 1070.62 1306.5 1073.24 1298.3 1076.12L1301.25 1081.43C1310.53 1078.3 1316.16 1073.88 1317.63 1066.27H1332.16V1079.83H1338.5V1066.27H1352.83V1060.63ZM1415.06 1050.07V1043.48H1391.32V1035.55H1410.71V1029.34H1391.32V1022.36L1384.66 1022.11V1043.48H1375.9V1026.97L1369.3 1026.71V1043.48H1360.28V1050.07H1376.02C1371.93 1054.87 1365.98 1060.12 1360.86 1063.9L1364.44 1069.79C1369.75 1065.69 1376.54 1059.67 1380.63 1055.07L1376.41 1050.07H1385.88V1065.31H1390.3C1383.06 1069.15 1373.85 1071.83 1360.86 1074.14L1363.1 1081.05C1387.29 1076.25 1399.96 1070.04 1411.42 1056.35L1406.42 1051.48C1402.39 1056.79 1398.17 1060.76 1392.54 1064.09V1050.07H1415.06ZM1424.43 1073.31H1432.62V1037.08H1433.01L1442.48 1064.35H1451.06L1460.59 1037.08H1460.98V1073.31H1469.23V1028.89H1456.05L1447.09 1055.13H1446.7L1438 1028.89H1424.43V1073.31ZM1518.15 1051.1C1518.15 1033.18 1511.17 1028.25 1498.37 1028.25C1485.57 1028.25 1478.53 1033.18 1478.53 1051.1C1478.53 1069.02 1485.44 1073.95 1498.24 1073.95L1504 1082.59H1513.86L1506.31 1073.05C1514.05 1071 1518.15 1064.99 1518.15 1051.1ZM1487.3 1051.1C1487.3 1039.77 1489.28 1035.16 1498.37 1035.16C1507.39 1035.16 1509.38 1039.77 1509.38 1051.1C1509.38 1062.62 1507.39 1066.91 1498.37 1066.91C1489.28 1066.91 1487.3 1062.62 1487.3 1051.1Z" fill="#00526C"/>
<rect x="1210.18" y="987.307" width="396" height="126" rx="21" stroke="#525252" stroke-width="2"/>
<rect x="2746.43" y="1051" width="355" height="126" rx="33" fill="#FFDFFC"/>
<path d="M2848.57 1094.7C2846.01 1092.33 2841.21 1088.42 2838.33 1086.57L2834.87 1091.11C2837.81 1093.35 2842.68 1097.64 2845.11 1100.2L2848.57 1094.7ZM2885.37 1123.88V1099.82H2873.4C2873.97 1098.09 2874.42 1096.23 2874.87 1094.76L2872.25 1094.31H2888.82V1088.36H2849.21V1109.93C2849.21 1123.88 2847.93 1130.73 2842.29 1141.48L2848.05 1144.17C2853.56 1133.35 2855.22 1125.48 2855.22 1109.74V1094.31H2868.79C2868.34 1096.17 2867.83 1097.96 2867.25 1099.82H2858.61V1123.88H2869.11V1133.35C2869.11 1136.42 2868.79 1137 2865.91 1137.19L2862.97 1137.45L2864.82 1143.34L2867.96 1143.08C2873.27 1142.57 2875.13 1141.42 2875.13 1135.78V1123.88H2885.37ZM2846.58 1109.22C2843.77 1106.54 2838.71 1102.57 2835.64 1100.52L2832.5 1105.19C2835.45 1107.24 2840.31 1111.53 2843.13 1114.54L2846.58 1109.22ZM2879.41 1104.94V1109.42H2864.57V1104.94H2879.41ZM2864.57 1114.41H2879.41V1118.7H2864.57V1114.41ZM2839.41 1117.86C2838.9 1121.13 2834.55 1138.54 2833.53 1141.29L2839.41 1142.89C2839.93 1140.84 2844.73 1121.9 2845.24 1119.34L2839.41 1117.86ZM2860.66 1125.99C2858.55 1130.34 2855.16 1134.89 2851.83 1138.92L2856.18 1142.5C2859.25 1138.73 2863.03 1133.22 2865.4 1128.81L2860.66 1125.99ZM2877.88 1129.06C2880.25 1131.88 2884.53 1138.47 2886.65 1142.12L2891.13 1138.41C2889.08 1134.82 2884.66 1128.94 2882.29 1126.06L2877.88 1129.06ZM2940.49 1126.7C2944.33 1120.04 2946.19 1112.49 2947.21 1101.8H2951.37V1095.46H2935.25C2936.21 1092.33 2937.04 1089.38 2937.68 1086.57L2931.79 1085.48C2930.25 1092.78 2926.73 1102.63 2922.64 1108.97L2927.12 1113.32L2927.95 1111.85C2929.04 1117.03 2930.83 1121.9 2933.33 1126.44C2930.51 1130.47 2926.93 1133.93 2922.06 1137.45L2923.02 1135.66C2921.29 1134.7 2919.57 1133.93 2918.03 1133.1C2920.65 1130.47 2922.38 1127.53 2923.85 1124.26V1119.34H2910.41L2911.57 1116.39L2905.81 1114.79C2905.36 1116.14 2904.72 1117.61 2904.01 1119.34H2896.21V1124.52H2901.45C2900.49 1126.31 2899.6 1128.04 2898.57 1129.77C2901.33 1131.05 2904.21 1132.52 2907.21 1134.06C2903.95 1135.59 2899.98 1137.13 2894.61 1138.73L2897.17 1144.3C2904.14 1141.99 2909.26 1139.62 2913.1 1137.06C2915.66 1138.41 2918.03 1139.75 2920.27 1140.97L2920.85 1139.82L2923.98 1144.17C2929.42 1139.88 2933.65 1136.04 2936.91 1131.94C2939.98 1136.1 2943.95 1140.2 2948.88 1144.36L2952.72 1138.98C2947.6 1134.89 2943.63 1131.05 2940.49 1126.7ZM2897.42 1118.06C2901.9 1115.43 2905.68 1112.42 2908.81 1109.16V1115.18H2914.45V1109.74C2916.62 1111.4 2919.95 1114.15 2922 1116.39L2925.26 1112.04C2922.51 1109.48 2918.61 1106.28 2916.37 1104.74L2914.45 1107.18V1104.17H2925.33V1098.86H2914.45V1086.25L2908.81 1085.99V1098.86H2896.46V1104.17H2907.02C2903.76 1107.43 2899.53 1110.38 2894.93 1112.87L2897.42 1118.06ZM2907.34 1095.21C2905.81 1092.46 2903.12 1088.87 2901.65 1087.02L2897.81 1089.83C2899.53 1092.07 2901.97 1095.85 2903.18 1098.15L2907.34 1095.21ZM2921.49 1087.08C2919.95 1089.83 2917.26 1093.67 2915.66 1095.59L2919.82 1098.54C2921.49 1096.55 2924.24 1092.71 2925.77 1089.96L2921.49 1087.08ZM2932.88 1101.8H2941.45C2940.62 1109.42 2939.28 1115.37 2936.78 1120.55C2934.41 1115.69 2932.88 1110.25 2932.11 1103.59L2932.88 1101.8ZM2908.11 1124.52H2917.52C2916.43 1126.89 2915.02 1128.81 2912.78 1130.6L2906.51 1127.72L2908.11 1124.52ZM2972.26 1117.93C2974.5 1116.97 2976.36 1116.14 2977.83 1115.43L2976.93 1109.1L2972.26 1111.08V1102.95H2977.38V1096.94H2972.26V1086.18L2966.37 1085.93V1096.94H2959.78V1102.95H2966.37V1113.51C2963.11 1114.79 2960.1 1115.94 2957.86 1116.65L2959.14 1123.18C2961 1122.47 2963.62 1121.51 2966.37 1120.42V1134.18C2966.37 1136.74 2965.8 1137 2963.05 1137.19L2959.85 1137.45L2961.57 1143.34L2964.52 1143.08C2970.66 1142.57 2972.26 1141.8 2972.26 1136.1V1117.93ZM3015.46 1116.46V1110.82H3001.96V1106.47L2996.01 1106.22V1110.82H2985.32V1107.82V1105.58H3012.77V1088.68H2979.24V1107.05C2979.24 1123.75 2977.51 1130.41 2971.88 1140.14L2977.38 1143.46C2982.37 1135.21 2984.42 1128.36 2985.13 1116.46H2996.01V1121.9H2985.96V1143.53H2991.97V1140.97H3005.67V1143.46H3011.62V1121.9H3001.96V1116.46H3015.46ZM3006.57 1094.06V1100.14H2985.32V1094.06H3006.57ZM3005.67 1135.53H2991.97V1127.53H3005.67V1135.53Z" fill="#720085"/>
<rect x="2746.43" y="1051" width="355" height="126" rx="33" stroke="#525252" stroke-width="2"/>
<rect x="2746.43" y="1486.1" width="355" height="126" rx="33" fill="#FFDFFC"/>
<path d="M2858.93 1535.3V1564.54H2864.44V1541.06H2880.05V1564.54H2885.75V1535.3H2873.97C2874.42 1533.31 2874.93 1530.94 2875.25 1529.15H2888.31V1523.26H2857.91V1529.15H2869.43C2869.11 1531.01 2868.6 1533.31 2868.15 1535.3H2858.93ZM2853.69 1560.51L2857.21 1549.06V1543.23H2847.48L2848.57 1542.27L2847.73 1540.99C2850.17 1537.66 2854.65 1530.82 2855.99 1529.66V1523.33H2834.61V1529.02H2849.59C2848.57 1530.18 2846.13 1533.63 2844.28 1536.32C2842.55 1534.08 2840.89 1532.16 2839.61 1530.82L2836.09 1534.02C2838.07 1536 2840.82 1539.65 2843.13 1543.23H2832.31V1549.18H2841.53V1568.96C2841.53 1571.2 2841.08 1571.71 2838.77 1571.9L2835.45 1572.16L2837.43 1578.62L2840.69 1578.18C2846.07 1577.47 2847.22 1576.06 2847.22 1571.33V1549.18H2851.83L2848.82 1558.66L2853.69 1560.51ZM2875.13 1543.55L2869.43 1543.3V1554.24C2869.43 1563.52 2866.87 1568.45 2852.85 1574.08L2856.57 1579.71C2870.2 1573.44 2875.13 1566.53 2875.13 1554.88V1543.55ZM2873.78 1568.32C2878.39 1571.65 2882.49 1575.36 2886.77 1579.46L2889.78 1573.57C2885.43 1569.73 2881.33 1566.78 2876.73 1563.78L2873.78 1568.32ZM2938.7 1570.37C2928.72 1570.18 2921.17 1568.06 2915.6 1561.98C2920.65 1554.37 2923.6 1546.3 2925.2 1536.51V1529.86H2910.29C2910.99 1527.17 2911.63 1524.54 2912.21 1521.92L2906 1520.83C2903.63 1532.03 2899.53 1543.3 2894.93 1550.66L2898.89 1555.9C2900.11 1553.92 2901.33 1552 2902.41 1549.76C2903.95 1554.62 2905.61 1558.59 2907.6 1561.92C2904.08 1566.34 2899.92 1570.43 2894.73 1574.72L2899.73 1579.65C2904.4 1575.55 2908.37 1571.58 2911.69 1567.42C2918.29 1574.72 2926.86 1576.96 2937.29 1577.15C2941.97 1577.28 2946.64 1577.28 2951.37 1577.15L2952.78 1570.37C2948.11 1570.5 2943.37 1570.5 2938.7 1570.37ZM2936.65 1542.46C2940.24 1545.02 2945.81 1549.44 2949.71 1553.02L2952.4 1546.75C2947.73 1542.91 2942.86 1539.52 2938.51 1536.45L2936.65 1539.39V1521.41L2930.13 1521.15V1568.77H2936.65V1542.46ZM2906.32 1541.44C2907.02 1539.71 2907.6 1538.24 2908.17 1536.51H2918.86C2917.58 1543.87 2915.21 1550.27 2911.57 1556.22C2909.52 1552.32 2907.79 1547.58 2906.32 1541.44ZM2999.01 1570.69V1565.18H3012.39V1559.3H2999.01V1553.79H3011.62V1523.58H2980.52V1553.79H2993.13V1559.3H2980.01V1565.18H2993.13V1570.69H2976.36V1576.51H3015.4V1570.69H2999.01ZM2978.92 1563.58L2972.45 1565.18V1550.59H2978.6V1544.7H2972.45V1531.39H2979.05V1525.57H2959.65V1531.39H2966.57V1544.7H2960.17V1550.59H2966.57V1566.53C2962.98 1567.3 2959.72 1568 2958.25 1568.26L2959.08 1574.27C2962.21 1573.5 2975.72 1570.18 2979.49 1569.66L2978.92 1563.58ZM2993.13 1529.34V1535.94H2986.47V1529.34H2993.13ZM3005.73 1535.94H2999.01V1529.34H3005.73V1535.94ZM2986.47 1548.03V1541.57H2993.13V1548.03H2986.47ZM2999.01 1548.03V1541.57H3005.73V1548.03H2999.01Z" fill="#720085"/>
<rect x="2746.43" y="1486.1" width="355" height="126" rx="33" stroke="#525252" stroke-width="2"/>
<rect x="2714.93" y="2001.82" width="418" height="126" rx="33" fill="#FFDFFC"/>
<path d="M2824.04 2082.19C2822.19 2079.12 2818.03 2073.3 2815.27 2070.42C2815.47 2069.46 2815.4 2068.5 2815.59 2067.47H2823.72V2061.2H2815.85C2815.91 2059.92 2815.91 2058.58 2815.91 2057.1V2052.5H2822.89V2046.29H2815.91V2036.82L2810.03 2036.56V2046.29H2802.99V2052.5H2810.03V2057.1C2810.03 2058.58 2810.03 2059.92 2809.96 2061.2H2801.9V2067.47H2809.64C2808.62 2077.33 2805.93 2082.51 2800.11 2090.26L2805.03 2094.54C2809.45 2088.85 2812.2 2084.11 2813.93 2077.78C2816.17 2080.85 2818.54 2084.5 2819.75 2086.8L2824.04 2082.19ZM2830.7 2045.07H2846.95V2075.28H2852.78V2038.93H2824.87V2075.34H2830.7V2045.07ZM2851.82 2077.46C2851.75 2079.7 2851.69 2081.94 2851.43 2083.92C2851.18 2086.54 2850.79 2087.12 2848.17 2087.12H2846.57C2844.33 2087.12 2843.75 2086.42 2843.75 2083.92V2070.86L2840.49 2070.74C2841.07 2067.86 2841.45 2064.78 2841.51 2061.26C2841.51 2059.09 2841.71 2050.32 2841.71 2048.27L2835.69 2048.02C2835.69 2050.06 2835.63 2058.45 2835.43 2060.56C2834.92 2075.22 2832.04 2081.1 2818.73 2090.32L2822.7 2094.99C2829.87 2090.13 2834.73 2085.14 2837.74 2078.8V2086.1C2837.74 2091.66 2839.66 2093.33 2844.07 2093.33H2849.51C2854.89 2093.33 2856.17 2091.79 2856.87 2086.1C2857.13 2084.05 2857.45 2082 2857.45 2079.63L2851.82 2077.46ZM2916.8 2037.71L2910.91 2037.46V2083.47C2910.91 2086.35 2909.76 2086.86 2906.37 2087.18L2901.95 2087.57L2904.13 2093.78L2907.84 2093.39C2914.63 2092.69 2916.8 2091.41 2916.8 2085.07V2037.71ZM2887.62 2077.33H2893.51V2038.74H2867.52V2077.46H2873.6V2045.01H2887.62V2077.33ZM2899.2 2079.38H2904.77V2042.64L2899.2 2042.38V2079.38ZM2883.65 2048.66L2877.63 2048.4V2064.02C2877.63 2076.88 2874.56 2081.68 2862.53 2089.23L2866.37 2094.54C2878.85 2086.48 2883.65 2079.63 2883.65 2065.49V2048.66ZM2895.94 2086.48C2891.91 2082.45 2888.58 2079.63 2884.74 2076.3L2881.35 2080.91C2885.12 2084.24 2887.94 2087.57 2891.97 2091.98L2895.94 2086.48ZM2950.94 2057.04C2949.21 2054.29 2945.18 2048.46 2943.58 2046.35L2941.08 2048.34V2036.75L2935 2036.5V2093.97H2941.08V2052.82C2943.07 2055.57 2945.11 2059.02 2946.33 2061.01L2950.94 2057.04ZM2983.32 2070.74V2064.59H2978.14V2045.97H2964.95V2036.75L2958.87 2036.5C2958.87 2038.03 2958.81 2041.68 2958.81 2045.97H2949.02V2052.11H2958.81V2064.08V2064.59H2944.73V2070.74H2958.11C2956.25 2078.22 2951 2083.6 2941.21 2089.1L2944.54 2094.61C2954.14 2088.78 2959.58 2083.34 2962.46 2076.56C2966.3 2084.3 2972.57 2090.19 2981.47 2094.35L2984.54 2088.59C2974.75 2084.5 2969.05 2078.74 2966.04 2070.74H2983.32ZM2930.59 2070.42C2931.8 2064.98 2933.66 2053.65 2934.36 2047.25L2929.05 2046.67C2928.22 2053.9 2926.49 2063.7 2925.27 2069.52L2930.59 2070.42ZM2964.83 2063.7C2964.83 2061.84 2964.89 2057.17 2964.89 2052.11H2972.12V2064.59H2964.83V2063.7ZM3042.42 2077.9V2060.11H3016.5C3022.58 2056.4 3025.46 2052.88 3026.67 2047.06L3027.19 2044.43H3037.62C3037.43 2045.58 3037.23 2047.82 3037.23 2048.78C3037.04 2051.66 3036.21 2051.98 3032.95 2052.18L3029.04 2052.43L3030.71 2057.49L3034.99 2057.17C3040.88 2056.66 3042.03 2055.82 3042.55 2050.51C3042.74 2048.78 3043.19 2040.59 3043.38 2038.86H3014.96V2044.43H3021.36C3021.3 2044.5 3021.3 2044.62 3021.3 2044.75C3020.27 2049.1 3018.99 2052.24 3012.02 2055.63L3014.9 2061.07L3016.18 2060.3V2077.9H3042.42ZM2993.84 2039.31V2076.82H3012.02V2039.31H2993.84ZM3006.51 2045.01V2055.25H2999.35V2045.01H3006.51ZM2999.35 2071.12V2060.82H3006.51V2071.12H2999.35ZM3021.68 2065.23H3037.11V2072.34H3021.68V2065.23ZM3033.14 2080.72C3035.89 2085.01 3039.09 2090.51 3040.63 2094.67L3046.19 2091.09C3044.34 2087.38 3040.88 2081.62 3038.13 2078.03L3033.14 2080.72ZM2996.08 2095.31C2998.13 2091.54 3001.2 2085.46 3002.74 2080.4L2997.43 2078.42C2996.21 2082.38 2993.2 2088.21 2990.13 2092.5L2996.08 2095.31ZM3020.21 2080.91C3021.75 2084.69 3023.79 2090.06 3024.63 2093.65L3030.26 2091.34C3029.43 2088.08 3027.19 2082.9 3025.46 2079.25L3020.21 2080.91ZM3006.83 2080.98C3008.05 2084.82 3008.95 2089.94 3009.39 2094.1L3015.35 2092.43C3014.83 2088.98 3013.62 2083.47 3012.4 2079.89L3006.83 2080.98Z" fill="#720085"/>
<rect x="2714.93" y="2001.82" width="418" height="126" rx="33" stroke="#525252" stroke-width="2"/>
<rect x="2714.93" y="2198.04" width="418" height="126" rx="33" fill="#FFDFFC"/>
<path d="M2805.74 2256.91C2807.02 2256.71 2810.03 2256.59 2812.52 2256.39C2810.6 2259.66 2808.62 2262.54 2806.57 2265.16C2805.42 2266.63 2804.97 2267.08 2803.05 2267.59L2804.52 2273.87C2805.55 2273.55 2806.63 2273.35 2807.85 2273.1C2811.11 2272.59 2820.91 2271.05 2822.12 2271.05L2821.99 2265.03C2820.46 2265.35 2814.76 2266.19 2812.59 2266.51C2814.95 2263.43 2819.43 2255.95 2823.21 2248.39L2818.28 2245.96L2815.85 2250.57C2813.74 2250.76 2810.6 2250.89 2809.26 2250.89C2811.37 2248.46 2815.66 2240.2 2818.09 2234.7L2812.84 2232.52C2810.28 2238.86 2805.87 2246.92 2803.82 2249.61C2803.11 2250.57 2802.86 2250.76 2801.64 2251.27L2802.92 2257.35C2804.01 2257.16 2804.78 2256.97 2805.74 2256.91ZM2857.19 2246.86V2240.78H2842.09V2232.97L2835.95 2232.71V2240.78H2823.02V2246.86H2835.95V2254.41H2823.91V2260.36H2854.44V2254.41H2842.09V2246.86H2857.19ZM2824.55 2290.57H2830.7V2287.24H2847.21V2290.57H2853.42V2265.87H2824.55V2290.57ZM2847.21 2271.75V2281.35H2830.7V2271.75H2847.21ZM2823.08 2277.71C2819.63 2278.67 2803.69 2281.29 2800.75 2281.55L2801.51 2287.69C2804.2 2287.18 2820.33 2284.68 2823.4 2284.17L2823.21 2281.23L2823.08 2277.71ZM2921.09 2283.02C2912.13 2280.14 2905.22 2276.49 2899.39 2271.63H2918.53V2265.93H2895.75V2261.45H2914.11V2235.4H2870.91V2261.45H2889.35V2265.93H2866.5V2271.63H2885.76C2880.13 2276.49 2872.83 2280.2 2863.94 2283.21L2866.63 2289.42C2875.91 2285.32 2883.78 2280.27 2889.35 2275.15V2290.44H2895.75V2275.02C2901.44 2280.33 2908.67 2285.07 2918.34 2289.16L2921.09 2283.02ZM2889.35 2240.91V2245.64H2877.19V2240.91H2889.35ZM2907.84 2245.64H2895.75V2240.91H2907.84V2245.64ZM2877.19 2255.88V2251.02H2889.35V2255.88H2877.19ZM2895.75 2255.88V2251.02H2907.84V2255.88H2895.75ZM2971.99 2273.74C2975.83 2267.08 2977.69 2259.53 2978.71 2248.84H2982.87V2242.51H2966.75C2967.71 2239.37 2968.54 2236.43 2969.18 2233.61L2963.29 2232.52C2961.75 2239.82 2958.23 2249.67 2954.14 2256.01L2958.62 2260.36L2959.45 2258.89C2960.54 2264.07 2962.33 2268.94 2964.83 2273.48C2962.01 2277.51 2958.43 2280.97 2953.56 2284.49L2954.52 2282.7C2952.79 2281.74 2951.07 2280.97 2949.53 2280.14C2952.15 2277.51 2953.88 2274.57 2955.35 2271.31V2266.38H2941.91L2943.07 2263.43L2937.31 2261.83C2936.86 2263.18 2936.22 2264.65 2935.51 2266.38H2927.71V2271.56H2932.95C2931.99 2273.35 2931.1 2275.08 2930.07 2276.81C2932.83 2278.09 2935.71 2279.56 2938.71 2281.1C2935.45 2282.63 2931.48 2284.17 2926.11 2285.77L2928.67 2291.34C2935.64 2289.03 2940.76 2286.67 2944.6 2284.11C2947.16 2285.45 2949.53 2286.79 2951.77 2288.01L2952.35 2286.86L2955.48 2291.21C2960.92 2286.92 2965.15 2283.08 2968.41 2278.99C2971.48 2283.15 2975.45 2287.24 2980.38 2291.4L2984.22 2286.03C2979.1 2281.93 2975.13 2278.09 2971.99 2273.74ZM2928.92 2265.1C2933.4 2262.47 2937.18 2259.47 2940.31 2256.2V2262.22H2945.95V2256.78C2948.12 2258.44 2951.45 2261.19 2953.5 2263.43L2956.76 2259.08C2954.01 2256.52 2950.11 2253.32 2947.87 2251.79L2945.95 2254.22V2251.21H2956.83V2245.9H2945.95V2233.29L2940.31 2233.03V2245.9H2927.96V2251.21H2938.52C2935.26 2254.47 2931.03 2257.42 2926.43 2259.91L2928.92 2265.1ZM2938.84 2242.25C2937.31 2239.5 2934.62 2235.91 2933.15 2234.06L2929.31 2236.87C2931.03 2239.11 2933.47 2242.89 2934.68 2245.19L2938.84 2242.25ZM2952.99 2234.12C2951.45 2236.87 2948.76 2240.71 2947.16 2242.63L2951.32 2245.58C2952.99 2243.59 2955.74 2239.75 2957.27 2237L2952.99 2234.12ZM2964.38 2248.84H2972.95C2972.12 2256.46 2970.78 2262.41 2968.28 2267.59C2965.91 2262.73 2964.38 2257.29 2963.61 2250.63L2964.38 2248.84ZM2939.61 2271.56H2949.02C2947.93 2273.93 2946.52 2275.85 2944.28 2277.64L2938.01 2274.76L2939.61 2271.56ZM3003.76 2264.97C3006 2264.01 3007.86 2263.18 3009.33 2262.47L3008.43 2256.14L3003.76 2258.12V2249.99H3008.88V2243.98H3003.76V2233.23L2997.87 2232.97V2243.98H2991.28V2249.99H2997.87V2260.55C2994.61 2261.83 2991.6 2262.99 2989.36 2263.69L2990.64 2270.22C2992.5 2269.51 2995.12 2268.55 2997.87 2267.47V2281.23C2997.87 2283.79 2997.3 2284.04 2994.55 2284.23L2991.35 2284.49L2993.07 2290.38L2996.02 2290.12C3002.16 2289.61 3003.76 2288.84 3003.76 2283.15V2264.97ZM3046.96 2263.5V2257.87H3033.46V2253.51L3027.51 2253.26V2257.87H3016.82V2254.86V2252.62H3044.27V2235.72H3010.74V2254.09C3010.74 2270.79 3009.01 2277.45 3003.38 2287.18L3008.88 2290.51C3013.87 2282.25 3015.92 2275.4 3016.63 2263.5H3027.51V2268.94H3017.46V2290.57H3023.47V2288.01H3037.17V2290.51H3043.12V2268.94H3033.46V2263.5H3046.96ZM3038.07 2241.1V2247.18H3016.82V2241.1H3038.07ZM3037.17 2282.57H3023.47V2274.57H3037.17V2282.57Z" fill="#720085"/>
<rect x="2714.93" y="2198.04" width="418" height="126" rx="33" stroke="#525252" stroke-width="2"/>
<rect x="2714.93" y="2605.03" width="418" height="126" rx="33" fill="#FFDFFC"/>
<path d="M2840.55 2650.84C2840.62 2646.42 2840.68 2642.2 2840.68 2639.7L2834.73 2639.44C2834.67 2642.45 2834.6 2647.06 2834.41 2650.84H2827.11V2657.11H2834.22C2833.71 2671.64 2832.94 2679.12 2829.55 2685.78C2827.69 2680.66 2825.19 2674.2 2823.27 2670.04L2817.58 2672.21C2818.86 2675.09 2820.46 2679.06 2821.93 2683.09L2810.47 2683.86C2812.2 2681.11 2815.27 2672.21 2817.13 2666.07H2829.29V2659.67H2801.39V2666.07H2810.41C2808.55 2672.21 2805.74 2679.44 2804.33 2682.07C2803.63 2683.54 2803.37 2684.31 2801.64 2685.08L2804.01 2691.67C2809.19 2690.64 2819.88 2689.81 2824.3 2689.49L2824.87 2691.09L2827.56 2689.3C2826.35 2691.09 2825 2692.95 2823.27 2695L2828.97 2698.9C2838.76 2686.29 2839.27 2679.12 2840.3 2657.11H2849.39C2849.13 2661.2 2848.68 2680.92 2848.43 2684.69C2848.23 2688.79 2847.34 2689.11 2842.54 2689.62L2838.83 2690L2841 2696.21L2844.97 2695.83C2851.95 2695.12 2854.12 2694.1 2854.31 2687.83C2854.57 2682.32 2855.59 2655.44 2855.59 2650.84H2840.55ZM2827.31 2643.73H2804.65V2649.94H2827.31V2643.73ZM2919.43 2654.23V2648.02H2895.23C2896.19 2645.78 2897.03 2643.41 2897.86 2641.04L2891.71 2639.12C2888.58 2648.4 2884.1 2657.11 2878.79 2663.57L2883.07 2668.56C2886.72 2664.21 2889.73 2659.41 2892.35 2654.29H2894.47V2697.56H2900.87V2684.69H2917.63V2678.29H2900.87V2669.52H2916.29V2663.12H2900.87V2654.29L2919.43 2654.23ZM2876.35 2640.15C2872.96 2650.64 2867.65 2661.01 2862.34 2667.67L2866.5 2673.3C2868.23 2671.19 2869.83 2669.08 2871.3 2666.84V2697.17H2877.83V2655.12C2879.62 2651.22 2881.28 2647 2882.82 2642.13L2876.35 2640.15ZM2971.99 2680.72C2975.83 2674.07 2977.69 2666.52 2978.71 2655.83H2982.87V2649.49H2966.75C2967.71 2646.36 2968.54 2643.41 2969.18 2640.6L2963.29 2639.51C2961.75 2646.8 2958.23 2656.66 2954.14 2663L2958.62 2667.35L2959.45 2665.88C2960.54 2671.06 2962.33 2675.92 2964.83 2680.47C2962.01 2684.5 2958.43 2687.96 2953.56 2691.48L2954.52 2689.68C2952.79 2688.72 2951.07 2687.96 2949.53 2687.12C2952.15 2684.5 2953.88 2681.56 2955.35 2678.29V2673.36H2941.91L2943.07 2670.42L2937.31 2668.82C2936.86 2670.16 2936.22 2671.64 2935.51 2673.36H2927.71V2678.55H2932.95C2931.99 2680.34 2931.1 2682.07 2930.07 2683.8C2932.83 2685.08 2935.71 2686.55 2938.71 2688.08C2935.45 2689.62 2931.48 2691.16 2926.11 2692.76L2928.67 2698.32C2935.64 2696.02 2940.76 2693.65 2944.6 2691.09C2947.16 2692.44 2949.53 2693.78 2951.77 2695L2952.35 2693.84L2955.48 2698.2C2960.92 2693.91 2965.15 2690.07 2968.41 2685.97C2971.48 2690.13 2975.45 2694.23 2980.38 2698.39L2984.22 2693.01C2979.1 2688.92 2975.13 2685.08 2971.99 2680.72ZM2928.92 2672.08C2933.4 2669.46 2937.18 2666.45 2940.31 2663.19V2669.2H2945.95V2663.76C2948.12 2665.43 2951.45 2668.18 2953.5 2670.42L2956.76 2666.07C2954.01 2663.51 2950.11 2660.31 2947.87 2658.77L2945.95 2661.2V2658.2H2956.83V2652.88H2945.95V2640.28L2940.31 2640.02V2652.88H2927.96V2658.2H2938.52C2935.26 2661.46 2931.03 2664.4 2926.43 2666.9L2928.92 2672.08ZM2938.84 2649.24C2937.31 2646.48 2934.62 2642.9 2933.15 2641.04L2929.31 2643.86C2931.03 2646.1 2933.47 2649.88 2934.68 2652.18L2938.84 2649.24ZM2952.99 2641.11C2951.45 2643.86 2948.76 2647.7 2947.16 2649.62L2951.32 2652.56C2952.99 2650.58 2955.74 2646.74 2957.27 2643.99L2952.99 2641.11ZM2964.38 2655.83H2972.95C2972.12 2663.44 2970.78 2669.4 2968.28 2674.58C2965.91 2669.72 2964.38 2664.28 2963.61 2657.62L2964.38 2655.83ZM2939.61 2678.55H2949.02C2947.93 2680.92 2946.52 2682.84 2944.28 2684.63L2938.01 2681.75L2939.61 2678.55ZM3003.76 2671.96C3006 2671 3007.86 2670.16 3009.33 2669.46L3008.43 2663.12L3003.76 2665.11V2656.98H3008.88V2650.96H3003.76V2640.21L2997.87 2639.96V2650.96H2991.28V2656.98H2997.87V2667.54C2994.61 2668.82 2991.6 2669.97 2989.36 2670.68L2990.64 2677.2C2992.5 2676.5 2995.12 2675.54 2997.87 2674.45V2688.21C2997.87 2690.77 2997.3 2691.03 2994.55 2691.22L2991.35 2691.48L2993.07 2697.36L2996.02 2697.11C3002.16 2696.6 3003.76 2695.83 3003.76 2690.13V2671.96ZM3046.96 2670.48V2664.85H3033.46V2660.5L3027.51 2660.24V2664.85H3016.82V2661.84V2659.6H3044.27V2642.71H3010.74V2661.08C3010.74 2677.78 3009.01 2684.44 3003.38 2694.16L3008.88 2697.49C3013.87 2689.24 3015.92 2682.39 3016.63 2670.48H3027.51V2675.92H3017.46V2697.56H3023.47V2695H3037.17V2697.49H3043.12V2675.92H3033.46V2670.48H3046.96ZM3038.07 2648.08V2654.16H3016.82V2648.08H3038.07ZM3037.17 2689.56H3023.47V2681.56H3037.17V2689.56Z" fill="#720085"/>
<rect x="2714.93" y="2605.03" width="418" height="126" rx="33" stroke="#525252" stroke-width="2"/>
<rect x="2714.93" y="2788.51" width="418" height="126" rx="33" fill="#FFDFFC"/>
<path d="M2840.55 2834.31C2840.62 2829.9 2840.68 2825.67 2840.68 2823.18L2834.73 2822.92C2834.67 2825.93 2834.6 2830.54 2834.41 2834.31H2827.11V2840.59H2834.22C2833.71 2855.11 2832.94 2862.6 2829.55 2869.26C2827.69 2864.14 2825.19 2857.67 2823.27 2853.51L2817.58 2855.69C2818.86 2858.57 2820.46 2862.54 2821.93 2866.57L2810.47 2867.34C2812.2 2864.59 2815.27 2855.69 2817.13 2849.55H2829.29V2843.15H2801.39V2849.55H2810.41C2808.55 2855.69 2805.74 2862.92 2804.33 2865.55C2803.63 2867.02 2803.37 2867.79 2801.64 2868.55L2804.01 2875.15C2809.19 2874.12 2819.88 2873.29 2824.3 2872.97L2824.87 2874.57L2827.56 2872.78C2826.35 2874.57 2825 2876.43 2823.27 2878.47L2828.97 2882.38C2838.76 2869.77 2839.27 2862.6 2840.3 2840.59H2849.39C2849.13 2844.68 2848.68 2864.39 2848.43 2868.17C2848.23 2872.27 2847.34 2872.59 2842.54 2873.1L2838.83 2873.48L2841 2879.69L2844.97 2879.31C2851.95 2878.6 2854.12 2877.58 2854.31 2871.31C2854.57 2865.8 2855.59 2838.92 2855.59 2834.31H2840.55ZM2827.31 2827.21H2804.65V2833.42H2827.31V2827.21ZM2919.43 2837.71V2831.5H2895.23C2896.19 2829.26 2897.03 2826.89 2897.86 2824.52L2891.71 2822.6C2888.58 2831.88 2884.1 2840.59 2878.79 2847.05L2883.07 2852.04C2886.72 2847.69 2889.73 2842.89 2892.35 2837.77H2894.47V2881.03H2900.87V2868.17H2917.63V2861.77H2900.87V2853H2916.29V2846.6H2900.87V2837.77L2919.43 2837.71ZM2876.35 2823.63C2872.96 2834.12 2867.65 2844.49 2862.34 2851.15L2866.5 2856.78C2868.23 2854.67 2869.83 2852.55 2871.3 2850.31V2880.65H2877.83V2838.6C2879.62 2834.7 2881.28 2830.47 2882.82 2825.61L2876.35 2823.63ZM2931.74 2847.37C2933.02 2847.18 2936.03 2847.05 2938.52 2846.86C2936.6 2850.12 2934.62 2853 2932.57 2855.63C2931.42 2857.1 2930.97 2857.55 2929.05 2858.06L2930.52 2864.33C2931.55 2864.01 2932.63 2863.82 2933.85 2863.56C2937.11 2863.05 2946.91 2861.51 2948.12 2861.51L2947.99 2855.5C2946.46 2855.82 2940.76 2856.65 2938.59 2856.97C2940.95 2853.9 2945.43 2846.41 2949.21 2838.86L2944.28 2836.43L2941.85 2841.03C2939.74 2841.23 2936.6 2841.35 2935.26 2841.35C2937.37 2838.92 2941.66 2830.67 2944.09 2825.16L2938.84 2822.99C2936.28 2829.32 2931.87 2837.39 2929.82 2840.07C2929.11 2841.03 2928.86 2841.23 2927.64 2841.74L2928.92 2847.82C2930.01 2847.63 2930.78 2847.43 2931.74 2847.37ZM2983.19 2837.32V2831.24H2968.09V2823.43L2961.95 2823.18V2831.24H2949.02V2837.32H2961.95V2844.87H2949.91V2850.83H2980.44V2844.87H2968.09V2837.32H2983.19ZM2950.55 2881.03H2956.7V2877.71H2973.21V2881.03H2979.42V2856.33H2950.55V2881.03ZM2973.21 2862.22V2871.82H2956.7V2862.22H2973.21ZM2949.08 2868.17C2945.63 2869.13 2929.69 2871.75 2926.75 2872.01L2927.51 2878.15C2930.2 2877.64 2946.33 2875.15 2949.4 2874.63L2949.21 2871.69L2949.08 2868.17ZM3047.09 2873.48C3038.13 2870.6 3031.22 2866.95 3025.39 2862.09H3044.53V2856.39H3021.75V2851.91H3040.11V2825.87H2996.91V2851.91H3015.35V2856.39H2992.5V2862.09H3011.76C3006.13 2866.95 2998.83 2870.67 2989.94 2873.67L2992.63 2879.88C3001.91 2875.79 3009.78 2870.73 3015.35 2865.61V2880.91H3021.75V2865.48C3027.44 2870.79 3034.67 2875.53 3044.34 2879.63L3047.09 2873.48ZM3015.35 2831.37V2836.11H3003.19V2831.37H3015.35ZM3033.84 2836.11H3021.75V2831.37H3033.84V2836.11ZM3003.19 2846.35V2841.48H3015.35V2846.35H3003.19ZM3021.75 2846.35V2841.48H3033.84V2846.35H3021.75Z" fill="#720085"/>
<rect x="2714.93" y="2788.51" width="418" height="126" rx="33" stroke="#525252" stroke-width="2"/>
<rect x="529.685" y="1575.62" width="418" height="126" rx="21" fill="white"/>
<path d="M638.797 1655.99C636.941 1652.92 632.781 1647.09 630.029 1644.21C630.221 1643.25 630.157 1642.29 630.349 1641.27H638.477V1635H630.605C630.669 1633.72 630.669 1632.37 630.669 1630.9V1626.29H637.645V1620.08H630.669V1610.61L624.781 1610.36V1620.08H617.741V1626.29H624.781V1630.9C624.781 1632.37 624.781 1633.72 624.717 1635H616.653V1641.27H624.397C623.373 1651.12 620.685 1656.31 614.861 1664.05L619.789 1668.34C624.205 1662.64 626.957 1657.91 628.685 1651.57C630.925 1654.64 633.293 1658.29 634.509 1660.6L638.797 1655.99ZM645.453 1618.87H661.709V1649.08H667.533V1612.72H639.629V1649.14H645.453V1618.87ZM666.573 1651.25C666.509 1653.49 666.445 1655.73 666.189 1657.72C665.933 1660.34 665.549 1660.92 662.925 1660.92H661.325C659.085 1660.92 658.509 1660.21 658.509 1657.72V1644.66L655.245 1644.53C655.821 1641.65 656.205 1638.58 656.269 1635.06C656.269 1632.88 656.461 1624.12 656.461 1622.07L650.445 1621.81C650.445 1623.86 650.381 1632.24 650.189 1634.36C649.677 1649.01 646.797 1654.9 633.485 1664.12L637.453 1668.79C644.621 1663.92 649.485 1658.93 652.493 1652.6V1659.89C652.493 1665.46 654.413 1667.12 658.829 1667.12H664.269C669.645 1667.12 670.925 1665.59 671.629 1659.89C671.885 1657.84 672.205 1655.8 672.205 1653.43L666.573 1651.25ZM731.557 1611.51L725.669 1611.25V1657.27C725.669 1660.15 724.517 1660.66 721.125 1660.98L716.709 1661.36L718.885 1667.57L722.597 1667.19C729.381 1666.48 731.557 1665.2 731.557 1658.87V1611.51ZM702.373 1651.12H708.261V1612.53H682.277V1651.25H688.357V1618.8H702.373V1651.12ZM713.957 1653.17H719.525V1616.44L713.957 1616.18V1653.17ZM698.405 1622.45L692.389 1622.2V1637.81C692.389 1650.68 689.317 1655.48 677.285 1663.03L681.125 1668.34C693.605 1660.28 698.405 1653.43 698.405 1639.28V1622.45ZM710.693 1660.28C706.661 1656.24 703.333 1653.43 699.493 1650.1L696.101 1654.71C699.877 1658.04 702.693 1661.36 706.725 1665.78L710.693 1660.28ZM797.949 1646.2V1639.86H794.237V1619.83H782.717V1611.06L776.701 1610.8V1619.83H765.245V1639.86H762.301V1646.2H775.805C774.077 1652.4 769.917 1657.46 761.661 1662.07V1616.05H744.317V1662.13H761.533C760.701 1662.58 759.805 1663.09 758.845 1663.54L762.877 1669.36C771.133 1664.24 776.829 1659.25 779.965 1652.92C783.229 1659.83 788.605 1664.63 796.285 1669.04L799.549 1662.77C790.525 1658.16 785.405 1653.17 783.037 1646.2H797.949ZM755.901 1622.58V1635.96H750.013V1622.58H755.901ZM771.133 1639.86V1626.04H776.701V1638.9V1639.86H771.133ZM788.285 1626.04V1639.86H782.717V1626.04H788.285ZM750.013 1655.67V1641.97H755.901V1655.67H750.013ZM818.133 1610.29C817.813 1611.89 817.173 1614.32 816.469 1616.56H809.813V1644.6H805.653V1649.65H819.029C815.445 1654.52 810.901 1658.16 804.309 1661.56L807.829 1666.68C815.829 1661.62 821.845 1655.8 825.749 1649.65H826.965V1658.36C826.965 1660.85 826.261 1661.68 822.933 1661.88L818.005 1662.2L819.861 1667.83L824.533 1667.44C830.229 1666.93 832.341 1665.97 832.341 1660.47V1616.56H822.933C823.509 1614.58 824.149 1612.66 824.469 1611.38L818.133 1610.29ZM861.333 1623.28H855.061V1611.32L849.109 1611.06V1623.28H834.069V1629.24H849.109V1657.27C849.109 1660.34 848.213 1661.43 844.565 1661.62L839.573 1661.94L841.429 1667.64L846.485 1667.25C853.333 1666.74 855.061 1664.95 855.061 1659V1629.24H861.333V1623.28ZM826.965 1625.91H815.381V1621.62H826.965V1625.91ZM826.965 1635.25H815.381V1630.9H826.965V1635.25ZM847.125 1647.09C845.205 1643.12 840.981 1635.96 838.741 1633.08L834.197 1636.08C836.437 1639.41 840.533 1646.77 842.389 1650.8L847.125 1647.09ZM815.381 1644.6V1640.18H826.965V1644.6H815.381Z" fill="#00526C"/>
<rect x="529.685" y="1575.62" width="418" height="126" rx="21" stroke="#525252" stroke-width="2"/>
<rect x="1040.68" y="1575.62" width="418" height="126" rx="21" fill="white"/>
<path d="M1139.24 1609.97C1136.68 1620.6 1131.3 1631.48 1125.67 1640.18L1130.15 1645.43C1131.62 1643.44 1132.96 1641.27 1134.24 1639.03C1137.06 1641.08 1139.62 1643 1142.44 1645.49L1145.44 1639.35C1142.95 1637.24 1140.13 1635.19 1137.38 1633.46C1138.66 1630.9 1139.88 1628.28 1141.03 1625.59H1151.52C1148.26 1640.63 1142.44 1650.74 1127.78 1663.22L1132.45 1668.79C1147.24 1655.35 1154.79 1643.64 1157.86 1625.91V1619.32H1143.4C1144.36 1616.76 1144.93 1614.13 1145.64 1611.57L1139.24 1609.97ZM1183.91 1639.22C1179.04 1634.93 1174.76 1631.73 1169.57 1627.89L1167.46 1630.71V1610.55L1161.38 1610.29V1667.89H1167.46V1634.23C1171.88 1637.62 1175.65 1640.82 1180.58 1645.43L1183.91 1639.22ZM1220.67 1622.52V1616.76H1209.98C1209.28 1614.52 1208.57 1611.83 1207.87 1609.78L1201.66 1610.87C1202.24 1612.85 1202.68 1614.71 1203.26 1616.76H1192.32V1622.52H1196.28C1196.6 1625.01 1197.31 1629.17 1197.63 1632.24H1189.88V1638.2H1222.14V1632.24H1215.1C1215.87 1628.98 1216.64 1625.52 1217.21 1622.52H1220.67ZM1240 1634.74C1241.85 1629.68 1243.58 1624.76 1245.05 1619.7V1613.43H1223.87V1668.15H1230.08V1619.57H1238.72C1237.24 1625.14 1235.32 1630.45 1233.79 1636.02C1237.95 1641.14 1239.87 1645.11 1239.87 1649.01C1239.87 1653.17 1238.14 1654 1233.79 1654.52L1231.55 1654.77L1233.66 1660.98L1235.58 1660.72C1242.94 1659.89 1245.88 1657.59 1245.88 1650.04C1245.88 1644.85 1244.28 1640.88 1240 1634.74ZM1211.13 1622.52C1210.62 1625.59 1209.79 1629.17 1209.02 1632.24H1203.58C1203.26 1629.43 1202.62 1625.33 1202.17 1622.52H1211.13ZM1194.24 1665.65H1218.75V1642.48H1194.24V1665.65ZM1200 1648.44H1212.92V1659.7H1200V1648.44ZM1297.75 1651.32C1301.59 1644.66 1303.44 1637.11 1304.47 1626.42H1308.63V1620.08H1292.5C1293.46 1616.95 1294.29 1614 1294.93 1611.19L1289.04 1610.1C1287.51 1617.4 1283.99 1627.25 1279.89 1633.59L1284.37 1637.94L1285.2 1636.47C1286.29 1641.65 1288.08 1646.52 1290.58 1651.06C1287.76 1655.09 1284.18 1658.55 1279.32 1662.07L1280.28 1660.28C1278.55 1659.32 1276.82 1658.55 1275.28 1657.72C1277.91 1655.09 1279.64 1652.15 1281.11 1648.88V1643.96H1267.67L1268.82 1641.01L1263.06 1639.41C1262.61 1640.76 1261.97 1642.23 1261.27 1643.96H1253.46V1649.14H1258.71C1257.75 1650.93 1256.85 1652.66 1255.83 1654.39C1258.58 1655.67 1261.46 1657.14 1264.47 1658.68C1261.2 1660.21 1257.24 1661.75 1251.86 1663.35L1254.42 1668.92C1261.4 1666.61 1266.52 1664.24 1270.36 1661.68C1272.92 1663.03 1275.28 1664.37 1277.52 1665.59L1278.1 1664.44L1281.24 1668.79C1286.68 1664.5 1290.9 1660.66 1294.16 1656.56C1297.24 1660.72 1301.2 1664.82 1306.13 1668.98L1309.97 1663.6C1304.85 1659.51 1300.88 1655.67 1297.75 1651.32ZM1254.68 1642.68C1259.16 1640.05 1262.93 1637.04 1266.07 1633.78V1639.8H1271.7V1634.36C1273.88 1636.02 1277.2 1638.77 1279.25 1641.01L1282.52 1636.66C1279.76 1634.1 1275.86 1630.9 1273.62 1629.36L1271.7 1631.8V1628.79H1282.58V1623.48H1271.7V1610.87L1266.07 1610.61V1623.48H1253.72V1628.79H1264.28C1261.01 1632.05 1256.79 1635 1252.18 1637.49L1254.68 1642.68ZM1264.6 1619.83C1263.06 1617.08 1260.37 1613.49 1258.9 1611.64L1255.06 1614.45C1256.79 1616.69 1259.22 1620.47 1260.44 1622.77L1264.6 1619.83ZM1278.74 1611.7C1277.2 1614.45 1274.52 1618.29 1272.92 1620.21L1277.08 1623.16C1278.74 1621.17 1281.49 1617.33 1283.03 1614.58L1278.74 1611.7ZM1290.13 1626.42H1298.71C1297.88 1634.04 1296.53 1639.99 1294.04 1645.17C1291.67 1640.31 1290.13 1634.87 1289.36 1628.21L1290.13 1626.42ZM1265.36 1649.14H1274.77C1273.68 1651.51 1272.28 1653.43 1270.04 1655.22L1263.76 1652.34L1265.36 1649.14ZM1329.52 1642.55C1331.76 1641.59 1333.61 1640.76 1335.08 1640.05L1334.19 1633.72L1329.52 1635.7V1627.57H1334.64V1621.56H1329.52V1610.8L1323.63 1610.55V1621.56H1317.04V1627.57H1323.63V1638.13C1320.36 1639.41 1317.36 1640.56 1315.12 1641.27L1316.4 1647.8C1318.25 1647.09 1320.88 1646.13 1323.63 1645.04V1658.8C1323.63 1661.36 1323.05 1661.62 1320.3 1661.81L1317.1 1662.07L1318.83 1667.96L1321.77 1667.7C1327.92 1667.19 1329.52 1666.42 1329.52 1660.72V1642.55ZM1372.72 1641.08V1635.44H1359.21V1631.09L1353.26 1630.84V1635.44H1342.57V1632.44V1630.2H1370.03V1613.3H1336.49V1631.67C1336.49 1648.37 1334.76 1655.03 1329.13 1664.76L1334.64 1668.08C1339.63 1659.83 1341.68 1652.98 1342.38 1641.08H1353.26V1646.52H1343.21V1668.15H1349.23V1665.59H1362.92V1668.08H1368.88V1646.52H1359.21V1641.08H1372.72ZM1363.82 1618.68V1624.76H1342.57V1618.68H1363.82ZM1362.92 1660.15H1349.23V1652.15H1362.92V1660.15Z" fill="#00526C"/>
<rect x="1040.68" y="1575.62" width="418" height="126" rx="21" stroke="#525252" stroke-width="2"/>
<rect x="1551.68" y="1575.62" width="357" height="126" rx="21" fill="white"/>
<path d="M1660.8 1655.99C1658.94 1652.92 1654.78 1647.09 1652.03 1644.21C1652.22 1643.25 1652.16 1642.29 1652.35 1641.27H1660.48V1635H1652.6C1652.67 1633.72 1652.67 1632.37 1652.67 1630.9V1626.29H1659.64V1620.08H1652.67V1610.61L1646.78 1610.36V1620.08H1639.74V1626.29H1646.78V1630.9C1646.78 1632.37 1646.78 1633.72 1646.72 1635H1638.65V1641.27H1646.4C1645.37 1651.12 1642.68 1656.31 1636.86 1664.05L1641.79 1668.34C1646.2 1662.64 1648.96 1657.91 1650.68 1651.57C1652.92 1654.64 1655.29 1658.29 1656.51 1660.6L1660.8 1655.99ZM1667.45 1618.87H1683.71V1649.08H1689.53V1612.72H1661.63V1649.14H1667.45V1618.87ZM1688.57 1651.25C1688.51 1653.49 1688.44 1655.73 1688.19 1657.72C1687.93 1660.34 1687.55 1660.92 1684.92 1660.92H1683.32C1681.08 1660.92 1680.51 1660.21 1680.51 1657.72V1644.66L1677.24 1644.53C1677.82 1641.65 1678.2 1638.58 1678.27 1635.06C1678.27 1632.88 1678.46 1624.12 1678.46 1622.07L1672.44 1621.81C1672.44 1623.86 1672.38 1632.24 1672.19 1634.36C1671.68 1649.01 1668.8 1654.9 1655.48 1664.12L1659.45 1668.79C1666.62 1663.92 1671.48 1658.93 1674.49 1652.6V1659.89C1674.49 1665.46 1676.41 1667.12 1680.83 1667.12H1686.27C1691.64 1667.12 1692.92 1665.59 1693.63 1659.89C1693.88 1657.84 1694.2 1655.8 1694.2 1653.43L1688.57 1651.25ZM1753.56 1611.51L1747.67 1611.25V1657.27C1747.67 1660.15 1746.52 1660.66 1743.12 1660.98L1738.71 1661.36L1740.88 1667.57L1744.6 1667.19C1751.38 1666.48 1753.56 1665.2 1753.56 1658.87V1611.51ZM1724.37 1651.12H1730.26V1612.53H1704.28V1651.25H1710.36V1618.8H1724.37V1651.12ZM1735.96 1653.17H1741.52V1616.44L1735.96 1616.18V1653.17ZM1720.4 1622.45L1714.39 1622.2V1637.81C1714.39 1650.68 1711.32 1655.48 1699.28 1663.03L1703.12 1668.34C1715.6 1660.28 1720.4 1653.43 1720.4 1639.28V1622.45ZM1732.69 1660.28C1728.66 1656.24 1725.33 1653.43 1721.49 1650.1L1718.1 1654.71C1721.88 1658.04 1724.69 1661.36 1728.72 1665.78L1732.69 1660.28ZM1765.93 1661.62H1774.32V1617.2H1765.93V1661.62ZM1784.81 1617.2V1661.62H1799.21C1812.14 1661.62 1820.78 1656.56 1820.78 1639.41C1820.78 1620.92 1812.14 1617.2 1799.21 1617.2H1784.81ZM1793.19 1654.39V1624.31H1798.82C1807.21 1624.31 1812.14 1627.06 1812.14 1639.41C1812.14 1651.12 1807.4 1654.39 1798.82 1654.39H1793.19Z" fill="#00526C"/>
<rect x="1551.68" y="1575.62" width="357" height="126" rx="21" stroke="#525252" stroke-width="2"/>
<rect x="499.185" y="2163.93" width="418" height="126" rx="21" fill="white"/>
<path d="M608.297 2244.3C606.441 2241.23 602.281 2235.4 599.529 2232.52C599.721 2231.56 599.657 2230.6 599.849 2229.58H607.977V2223.31H600.105C600.169 2222.03 600.169 2220.68 600.169 2219.21V2214.6H607.145V2208.4H600.169V2198.92L594.281 2198.67V2208.4H587.241V2214.6H594.281V2219.21C594.281 2220.68 594.281 2222.03 594.217 2223.31H586.153V2229.58H593.897C592.873 2239.44 590.185 2244.62 584.361 2252.36L589.289 2256.65C593.705 2250.96 596.457 2246.22 598.185 2239.88C600.425 2242.96 602.793 2246.6 604.009 2248.91L608.297 2244.3ZM614.953 2207.18H631.209V2237.39H637.033V2201.04H609.129V2237.45H614.953V2207.18ZM636.073 2239.56C636.009 2241.8 635.945 2244.04 635.689 2246.03C635.433 2248.65 635.049 2249.23 632.425 2249.23H630.825C628.585 2249.23 628.009 2248.52 628.009 2246.03V2232.97L624.745 2232.84C625.321 2229.96 625.705 2226.89 625.769 2223.37C625.769 2221.2 625.961 2212.43 625.961 2210.38L619.945 2210.12C619.945 2212.17 619.881 2220.56 619.689 2222.67C619.177 2237.32 616.297 2243.21 602.985 2252.43L606.953 2257.1C614.121 2252.24 618.985 2247.24 621.993 2240.91V2248.2C621.993 2253.77 623.913 2255.44 628.329 2255.44H633.769C639.145 2255.44 640.425 2253.9 641.129 2248.2C641.385 2246.16 641.705 2244.11 641.705 2241.74L636.073 2239.56ZM701.057 2199.82L695.169 2199.56V2245.58C695.169 2248.46 694.017 2248.97 690.625 2249.29L686.209 2249.68L688.385 2255.88L692.097 2255.5C698.881 2254.8 701.057 2253.52 701.057 2247.18V2199.82ZM671.873 2239.44H677.761V2200.84H651.777V2239.56H657.857V2207.12H671.873V2239.44ZM683.457 2241.48H689.025V2204.75L683.457 2204.49V2241.48ZM667.905 2210.76L661.889 2210.51V2226.12C661.889 2238.99 658.817 2243.79 646.785 2251.34L650.625 2256.65C663.105 2248.59 667.905 2241.74 667.905 2227.6V2210.76ZM680.193 2248.59C676.161 2244.56 672.833 2241.74 668.993 2238.41L665.601 2243.02C669.377 2246.35 672.193 2249.68 676.225 2254.09L680.193 2248.59ZM756.249 2239.63C760.089 2232.97 761.945 2225.42 762.969 2214.73H767.129V2208.4H751.001C751.961 2205.26 752.793 2202.32 753.433 2199.5L747.545 2198.41C746.009 2205.71 742.489 2215.56 738.393 2221.9L742.873 2226.25L743.705 2224.78C744.793 2229.96 746.585 2234.83 749.081 2239.37C746.265 2243.4 742.681 2246.86 737.817 2250.38L738.777 2248.59C737.049 2247.63 735.321 2246.86 733.785 2246.03C736.409 2243.4 738.137 2240.46 739.609 2237.2V2232.27H726.169L727.321 2229.32L721.561 2227.72C721.113 2229.07 720.473 2230.54 719.769 2232.27H711.961V2237.45H717.209C716.249 2239.24 715.353 2240.97 714.329 2242.7C717.081 2243.98 719.961 2245.45 722.969 2246.99C719.705 2248.52 715.737 2250.06 710.361 2251.66L712.921 2257.23C719.897 2254.92 725.017 2252.56 728.857 2250C731.417 2251.34 733.785 2252.68 736.025 2253.9L736.601 2252.75L739.737 2257.1C745.177 2252.81 749.401 2248.97 752.665 2244.88C755.737 2249.04 759.705 2253.13 764.633 2257.29L768.473 2251.92C763.353 2247.82 759.385 2243.98 756.249 2239.63ZM713.177 2230.99C717.657 2228.36 721.433 2225.36 724.569 2222.09V2228.11H730.201V2222.67C732.377 2224.33 735.705 2227.08 737.753 2229.32L741.017 2224.97C738.265 2222.41 734.361 2219.21 732.121 2217.68L730.201 2220.11V2217.1H741.081V2211.79H730.201V2199.18L724.569 2198.92V2211.79H712.217V2217.1H722.777C719.513 2220.36 715.289 2223.31 710.681 2225.8L713.177 2230.99ZM723.097 2208.14C721.561 2205.39 718.873 2201.8 717.401 2199.95L713.561 2202.76C715.289 2205 717.721 2208.78 718.937 2211.08L723.097 2208.14ZM737.241 2200.01C735.705 2202.76 733.017 2206.6 731.417 2208.52L735.577 2211.47C737.241 2209.48 739.993 2205.64 741.529 2202.89L737.241 2200.01ZM748.633 2214.73H757.209C756.377 2222.35 755.033 2228.3 752.537 2233.48C750.169 2228.62 748.633 2223.18 747.865 2216.52L748.633 2214.73ZM723.865 2237.45H733.273C732.185 2239.82 730.777 2241.74 728.537 2243.53L722.265 2240.65L723.865 2237.45ZM788.017 2230.86C790.257 2229.9 792.113 2229.07 793.585 2228.36L792.689 2222.03L788.017 2224.01V2215.88H793.137V2209.87H788.017V2199.12L782.129 2198.86V2209.87H775.537V2215.88H782.129V2226.44C778.865 2227.72 775.857 2228.88 773.617 2229.58L774.897 2236.11C776.753 2235.4 779.377 2234.44 782.129 2233.36V2247.12C782.129 2249.68 781.553 2249.93 778.801 2250.12L775.601 2250.38L777.329 2256.27L780.273 2256.01C786.417 2255.5 788.017 2254.73 788.017 2249.04V2230.86ZM831.217 2229.39V2223.76H817.713V2219.4L811.761 2219.15V2223.76H801.073V2220.75V2218.51H828.529V2201.61H794.993V2219.98C794.993 2236.68 793.265 2243.34 787.633 2253.07L793.137 2256.4C798.129 2248.14 800.177 2241.29 800.881 2229.39H811.761V2234.83H801.713V2256.46H807.729V2253.9H821.425V2256.4H827.377V2234.83H817.713V2229.39H831.217ZM822.321 2206.99V2213.07H801.073V2206.99H822.321ZM821.425 2248.46H807.729V2240.46H821.425V2248.46Z" fill="#00526C"/>
<rect x="499.185" y="2163.93" width="418" height="126" rx="21" stroke="#525252" stroke-width="2"/>
<rect x="1010.18" y="2163.93" width="418" height="126" rx="21" fill="white"/>
<path d="M1149.18 2209.8H1128.13V2198.54L1121.54 2198.28V2209.8H1100.1V2238.16H1121.54V2256.33H1128.13V2238.16H1149.18V2209.8ZM1106.82 2231.88V2216.27H1121.54V2231.88H1106.82ZM1142.53 2231.88H1128.13V2216.27H1142.53V2231.88ZM1163.74 2202.12C1166.1 2204.3 1170.84 2209.29 1173.21 2212.49L1177.94 2207.56C1175.38 2204.62 1170.71 2199.95 1168.15 2197.71L1163.74 2202.12ZM1178.97 2202.06V2208.27H1206.36V2245.32C1206.36 2248.72 1205.72 2249.55 1201.62 2249.87L1197.91 2250.19L1199.96 2256.52L1204.5 2256.14C1211.67 2255.63 1213.02 2253.58 1213.02 2246.92V2202.06H1178.97ZM1162.52 2255.69H1169.05V2210.38L1162.52 2210.12V2255.69ZM1200.22 2214.86H1175.13V2246.99H1200.22V2214.86ZM1194.2 2220.88V2227.92H1181.27V2220.88H1194.2ZM1181.27 2240.91V2233.93H1194.2V2240.91H1181.27ZM1267.25 2239.63C1271.09 2232.97 1272.94 2225.42 1273.97 2214.73H1278.13V2208.4H1262C1262.96 2205.26 1263.79 2202.32 1264.43 2199.5L1258.54 2198.41C1257.01 2205.71 1253.49 2215.56 1249.39 2221.9L1253.87 2226.25L1254.7 2224.78C1255.79 2229.96 1257.58 2234.83 1260.08 2239.37C1257.26 2243.4 1253.68 2246.86 1248.82 2250.38L1249.78 2248.59C1248.05 2247.63 1246.32 2246.86 1244.78 2246.03C1247.41 2243.4 1249.14 2240.46 1250.61 2237.2V2232.27H1237.17L1238.32 2229.32L1232.56 2227.72C1232.11 2229.07 1231.47 2230.54 1230.77 2232.27H1222.96V2237.45H1228.21C1227.25 2239.24 1226.35 2240.97 1225.33 2242.7C1228.08 2243.98 1230.96 2245.45 1233.97 2246.99C1230.7 2248.52 1226.74 2250.06 1221.36 2251.66L1223.92 2257.23C1230.9 2254.92 1236.02 2252.56 1239.86 2250C1242.42 2251.34 1244.78 2252.68 1247.02 2253.9L1247.6 2252.75L1250.74 2257.1C1256.18 2252.81 1260.4 2248.97 1263.66 2244.88C1266.74 2249.04 1270.7 2253.13 1275.63 2257.29L1279.47 2251.92C1274.35 2247.82 1270.38 2243.98 1267.25 2239.63ZM1224.18 2230.99C1228.66 2228.36 1232.43 2225.36 1235.57 2222.09V2228.11H1241.2V2222.67C1243.38 2224.33 1246.7 2227.08 1248.75 2229.32L1252.02 2224.97C1249.26 2222.41 1245.36 2219.21 1243.12 2217.68L1241.2 2220.11V2217.1H1252.08V2211.79H1241.2V2199.18L1235.57 2198.92V2211.79H1223.22V2217.1H1233.78C1230.51 2220.36 1226.29 2223.31 1221.68 2225.8L1224.18 2230.99ZM1234.1 2208.14C1232.56 2205.39 1229.87 2201.8 1228.4 2199.95L1224.56 2202.76C1226.29 2205 1228.72 2208.78 1229.94 2211.08L1234.1 2208.14ZM1248.24 2200.01C1246.7 2202.76 1244.02 2206.6 1242.42 2208.52L1246.58 2211.47C1248.24 2209.48 1250.99 2205.64 1252.53 2202.89L1248.24 2200.01ZM1259.63 2214.73H1268.21C1267.38 2222.35 1266.03 2228.3 1263.54 2233.48C1261.17 2228.62 1259.63 2223.18 1258.86 2216.52L1259.63 2214.73ZM1234.86 2237.45H1244.27C1243.18 2239.82 1241.78 2241.74 1239.54 2243.53L1233.26 2240.65L1234.86 2237.45ZM1299.02 2230.86C1301.26 2229.9 1303.11 2229.07 1304.58 2228.36L1303.69 2222.03L1299.02 2224.01V2215.88H1304.14V2209.87H1299.02V2199.12L1293.13 2198.86V2209.87H1286.54V2215.88H1293.13V2226.44C1289.86 2227.72 1286.86 2228.88 1284.62 2229.58L1285.9 2236.11C1287.75 2235.4 1290.38 2234.44 1293.13 2233.36V2247.12C1293.13 2249.68 1292.55 2249.93 1289.8 2250.12L1286.6 2250.38L1288.33 2256.27L1291.27 2256.01C1297.42 2255.5 1299.02 2254.73 1299.02 2249.04V2230.86ZM1342.22 2229.39V2223.76H1328.71V2219.4L1322.76 2219.15V2223.76H1312.07V2220.75V2218.51H1339.53V2201.61H1305.99V2219.98C1305.99 2236.68 1304.26 2243.34 1298.63 2253.07L1304.14 2256.4C1309.13 2248.14 1311.18 2241.29 1311.88 2229.39H1322.76V2234.83H1312.71V2256.46H1318.73V2253.9H1332.42V2256.4H1338.38V2234.83H1328.71V2229.39H1342.22ZM1333.32 2206.99V2213.07H1312.07V2206.99H1333.32ZM1332.42 2248.46H1318.73V2240.46H1332.42V2248.46Z" fill="#00526C"/>
<rect x="1010.18" y="2163.93" width="418" height="126" rx="21" stroke="#525252" stroke-width="2"/>
<rect x="1521.18" y="2163.93" width="418" height="126" rx="21" fill="white"/>
<path d="M1611.99 2222.8C1613.27 2222.6 1616.28 2222.48 1618.78 2222.28C1616.86 2225.55 1614.87 2228.43 1612.82 2231.05C1611.67 2232.52 1611.22 2232.97 1609.3 2233.48L1610.78 2239.76C1611.8 2239.44 1612.89 2239.24 1614.1 2238.99C1617.37 2238.48 1627.16 2236.94 1628.38 2236.94L1628.25 2230.92C1626.71 2231.24 1621.02 2232.08 1618.84 2232.4C1621.21 2229.32 1625.69 2221.84 1629.46 2214.28L1624.54 2211.85L1622.1 2216.46C1619.99 2216.65 1616.86 2216.78 1615.51 2216.78C1617.62 2214.35 1621.91 2206.09 1624.34 2200.59L1619.1 2198.41C1616.54 2204.75 1612.12 2212.81 1610.07 2215.5C1609.37 2216.46 1609.11 2216.65 1607.9 2217.16L1609.18 2223.24C1610.26 2223.05 1611.03 2222.86 1611.99 2222.8ZM1663.45 2212.75V2206.67H1648.34V2198.86L1642.2 2198.6V2206.67H1629.27V2212.75H1642.2V2220.3H1630.17V2226.25H1660.7V2220.3H1648.34V2212.75H1663.45ZM1630.81 2256.46H1636.95V2253.13H1653.46V2256.46H1659.67V2231.76H1630.81V2256.46ZM1653.46 2237.64V2247.24H1636.95V2237.64H1653.46ZM1629.34 2243.6C1625.88 2244.56 1609.94 2247.18 1607 2247.44L1607.77 2253.58C1610.46 2253.07 1626.58 2250.57 1629.66 2250.06L1629.46 2247.12L1629.34 2243.6ZM1727.34 2248.91C1718.38 2246.03 1711.47 2242.38 1705.65 2237.52H1724.78V2231.82H1702V2227.34H1720.37V2201.29H1677.17V2227.34H1695.6V2231.82H1672.75V2237.52H1692.02C1686.38 2242.38 1679.09 2246.09 1670.19 2249.1L1672.88 2255.31C1682.16 2251.21 1690.03 2246.16 1695.6 2241.04V2256.33H1702V2240.91C1707.7 2246.22 1714.93 2250.96 1724.59 2255.05L1727.34 2248.91ZM1695.6 2206.8V2211.53H1683.44V2206.8H1695.6ZM1714.1 2211.53H1702V2206.8H1714.1V2211.53ZM1683.44 2221.77V2216.91H1695.6V2221.77H1683.44ZM1702 2221.77V2216.91H1714.1V2221.77H1702ZM1778.25 2239.63C1782.09 2232.97 1783.94 2225.42 1784.97 2214.73H1789.13V2208.4H1773C1773.96 2205.26 1774.79 2202.32 1775.43 2199.5L1769.54 2198.41C1768.01 2205.71 1764.49 2215.56 1760.39 2221.9L1764.87 2226.25L1765.7 2224.78C1766.79 2229.96 1768.58 2234.83 1771.08 2239.37C1768.26 2243.4 1764.68 2246.86 1759.82 2250.38L1760.78 2248.59C1759.05 2247.63 1757.32 2246.86 1755.78 2246.03C1758.41 2243.4 1760.14 2240.46 1761.61 2237.2V2232.27H1748.17L1749.32 2229.32L1743.56 2227.72C1743.11 2229.07 1742.47 2230.54 1741.77 2232.27H1733.96V2237.45H1739.21C1738.25 2239.24 1737.35 2240.97 1736.33 2242.7C1739.08 2243.98 1741.96 2245.45 1744.97 2246.99C1741.7 2248.52 1737.74 2250.06 1732.36 2251.66L1734.92 2257.23C1741.9 2254.92 1747.02 2252.56 1750.86 2250C1753.42 2251.34 1755.78 2252.68 1758.02 2253.9L1758.6 2252.75L1761.74 2257.1C1767.18 2252.81 1771.4 2248.97 1774.66 2244.88C1777.74 2249.04 1781.7 2253.13 1786.63 2257.29L1790.47 2251.92C1785.35 2247.82 1781.38 2243.98 1778.25 2239.63ZM1735.18 2230.99C1739.66 2228.36 1743.43 2225.36 1746.57 2222.09V2228.11H1752.2V2222.67C1754.38 2224.33 1757.7 2227.08 1759.75 2229.32L1763.02 2224.97C1760.26 2222.41 1756.36 2219.21 1754.12 2217.68L1752.2 2220.11V2217.1H1763.08V2211.79H1752.2V2199.18L1746.57 2198.92V2211.79H1734.22V2217.1H1744.78C1741.51 2220.36 1737.29 2223.31 1732.68 2225.8L1735.18 2230.99ZM1745.1 2208.14C1743.56 2205.39 1740.87 2201.8 1739.4 2199.95L1735.56 2202.76C1737.29 2205 1739.72 2208.78 1740.94 2211.08L1745.1 2208.14ZM1759.24 2200.01C1757.7 2202.76 1755.02 2206.6 1753.42 2208.52L1757.58 2211.47C1759.24 2209.48 1761.99 2205.64 1763.53 2202.89L1759.24 2200.01ZM1770.63 2214.73H1779.21C1778.38 2222.35 1777.03 2228.3 1774.54 2233.48C1772.17 2228.62 1770.63 2223.18 1769.86 2216.52L1770.63 2214.73ZM1745.86 2237.45H1755.27C1754.18 2239.82 1752.78 2241.74 1750.54 2243.53L1744.26 2240.65L1745.86 2237.45ZM1810.02 2230.86C1812.26 2229.9 1814.11 2229.07 1815.58 2228.36L1814.69 2222.03L1810.02 2224.01V2215.88H1815.14V2209.87H1810.02V2199.12L1804.13 2198.86V2209.87H1797.54V2215.88H1804.13V2226.44C1800.86 2227.72 1797.86 2228.88 1795.62 2229.58L1796.9 2236.11C1798.75 2235.4 1801.38 2234.44 1804.13 2233.36V2247.12C1804.13 2249.68 1803.55 2249.93 1800.8 2250.12L1797.6 2250.38L1799.33 2256.27L1802.27 2256.01C1808.42 2255.5 1810.02 2254.73 1810.02 2249.04V2230.86ZM1853.22 2229.39V2223.76H1839.71V2219.4L1833.76 2219.15V2223.76H1823.07V2220.75V2218.51H1850.53V2201.61H1816.99V2219.98C1816.99 2236.68 1815.26 2243.34 1809.63 2253.07L1815.14 2256.4C1820.13 2248.14 1822.18 2241.29 1822.88 2229.39H1833.76V2234.83H1823.71V2256.46H1829.73V2253.9H1843.42V2256.4H1849.38V2234.83H1839.71V2229.39H1853.22ZM1844.32 2206.99V2213.07H1823.07V2206.99H1844.32ZM1843.42 2248.46H1829.73V2240.46H1843.42V2248.46Z" fill="#00526C"/>
<rect x="1521.18" y="2163.93" width="418" height="126" rx="21" stroke="#525252" stroke-width="2"/>
<rect x="754.685" y="2752.25" width="418" height="126" rx="21" fill="white"/>
<path d="M880.309 2798.05C880.373 2793.64 880.437 2789.41 880.437 2786.92L874.485 2786.66C874.421 2789.67 874.357 2794.28 874.165 2798.05H866.869V2804.33H873.973C873.461 2818.85 872.693 2826.34 869.301 2833C867.445 2827.88 864.949 2821.41 863.029 2817.25L857.333 2819.43C858.613 2822.31 860.213 2826.28 861.685 2830.31L850.229 2831.08C851.957 2828.33 855.029 2819.43 856.885 2813.29H869.045V2806.89H841.141V2813.29H850.165C848.309 2819.43 845.493 2826.66 844.085 2829.29C843.381 2830.76 843.125 2831.53 841.397 2832.29L843.765 2838.89C848.949 2837.86 859.637 2837.03 864.053 2836.71L864.629 2838.31L867.317 2836.52C866.101 2838.31 864.757 2840.17 863.029 2842.21L868.725 2846.12C878.517 2833.51 879.029 2826.34 880.053 2804.33H889.141C888.885 2808.42 888.437 2828.13 888.181 2831.91C887.989 2836.01 887.093 2836.33 882.293 2836.84L878.581 2837.22L880.757 2843.43L884.725 2843.05C891.701 2842.34 893.877 2841.32 894.069 2835.05C894.325 2829.54 895.349 2802.66 895.349 2798.05H880.309ZM867.061 2790.95H844.405V2797.16H867.061V2790.95ZM959.181 2801.45V2795.24H934.989C935.949 2793 936.781 2790.63 937.613 2788.26L931.469 2786.34C928.333 2795.62 923.853 2804.33 918.541 2810.79L922.829 2815.78C926.477 2811.43 929.485 2806.63 932.109 2801.51H934.221V2844.77H940.621V2831.91H957.389V2825.51H940.621V2816.74H956.045V2810.34H940.621V2801.51L959.181 2801.45ZM916.109 2787.37C912.717 2797.86 907.405 2808.23 902.093 2814.89L906.253 2820.52C907.981 2818.41 909.581 2816.29 911.053 2814.05V2844.39H917.581V2802.34C919.373 2798.44 921.037 2794.21 922.573 2789.35L916.109 2787.37ZM1011.75 2827.94C1015.59 2821.29 1017.44 2813.73 1018.47 2803.05H1022.63V2796.71H1006.5C1007.46 2793.57 1008.29 2790.63 1008.93 2787.81L1003.04 2786.73C1001.51 2794.02 997.989 2803.88 993.893 2810.21L998.373 2814.57L999.205 2813.09C1000.29 2818.28 1002.08 2823.14 1004.58 2827.69C1001.76 2831.72 998.181 2835.17 993.317 2838.69L994.277 2836.9C992.549 2835.94 990.821 2835.17 989.285 2834.34C991.909 2831.72 993.637 2828.77 995.109 2825.51V2820.58H981.669L982.821 2817.64L977.061 2816.04C976.613 2817.38 975.973 2818.85 975.269 2820.58H967.461V2825.77H972.709C971.749 2827.56 970.853 2829.29 969.829 2831.01C972.581 2832.29 975.461 2833.77 978.469 2835.3C975.205 2836.84 971.237 2838.37 965.861 2839.97L968.421 2845.54C975.397 2843.24 980.517 2840.87 984.357 2838.31C986.917 2839.65 989.285 2841 991.525 2842.21L992.101 2841.06L995.237 2845.41C1000.68 2841.13 1004.9 2837.29 1008.16 2833.19C1011.24 2837.35 1015.2 2841.45 1020.13 2845.61L1023.97 2840.23C1018.85 2836.13 1014.88 2832.29 1011.75 2827.94ZM968.677 2819.3C973.157 2816.68 976.933 2813.67 980.069 2810.41V2816.42H985.701V2810.98C987.877 2812.65 991.205 2815.4 993.253 2817.64L996.517 2813.29C993.765 2810.73 989.861 2807.53 987.621 2805.99L985.701 2808.42V2805.41H996.581V2800.1H985.701V2787.49L980.069 2787.24V2800.1H967.717V2805.41H978.277C975.013 2808.68 970.789 2811.62 966.181 2814.12L968.677 2819.3ZM978.597 2796.45C977.061 2793.7 974.373 2790.12 972.901 2788.26L969.061 2791.08C970.789 2793.32 973.221 2797.09 974.437 2799.4L978.597 2796.45ZM992.741 2788.33C991.205 2791.08 988.517 2794.92 986.917 2796.84L991.077 2799.78C992.741 2797.8 995.493 2793.96 997.029 2791.21L992.741 2788.33ZM1004.13 2803.05H1012.71C1011.88 2810.66 1010.53 2816.61 1008.04 2821.8C1005.67 2816.93 1004.13 2811.49 1003.36 2804.84L1004.13 2803.05ZM979.365 2825.77H988.773C987.685 2828.13 986.277 2830.05 984.037 2831.85L977.765 2828.97L979.365 2825.77ZM1043.52 2819.17C1045.76 2818.21 1047.61 2817.38 1049.08 2816.68L1048.19 2810.34L1043.52 2812.33V2804.2H1048.64V2798.18H1043.52V2787.43L1037.63 2787.17V2798.18H1031.04V2804.2H1037.63V2814.76C1034.36 2816.04 1031.36 2817.19 1029.12 2817.89L1030.4 2824.42C1032.25 2823.72 1034.88 2822.76 1037.63 2821.67V2835.43C1037.63 2837.99 1037.05 2838.25 1034.3 2838.44L1031.1 2838.69L1032.83 2844.58L1035.77 2844.33C1041.92 2843.81 1043.52 2843.05 1043.52 2837.35V2819.17ZM1086.72 2817.7V2812.07H1073.21V2807.72L1067.26 2807.46V2812.07H1056.57V2809.06V2806.82H1084.03V2789.93H1050.49V2808.29C1050.49 2825 1048.76 2831.65 1043.13 2841.38L1048.64 2844.71C1053.63 2836.45 1055.68 2829.61 1056.38 2817.7H1067.26V2823.14H1057.21V2844.77H1063.23V2842.21H1076.92V2844.71H1082.88V2823.14H1073.21V2817.7H1086.72ZM1077.82 2795.3V2801.38H1056.57V2795.3H1077.82ZM1076.92 2836.77H1063.23V2828.77H1076.92V2836.77Z" fill="#00526C"/>
<rect x="754.685" y="2752.25" width="418" height="126" rx="21" stroke="#525252" stroke-width="2"/>
<rect x="1265.68" y="2752.25" width="418" height="126" rx="21" fill="white"/>
<path d="M1391.31 2798.05C1391.37 2793.64 1391.44 2789.41 1391.44 2786.92L1385.48 2786.66C1385.42 2789.67 1385.36 2794.28 1385.16 2798.05H1377.87V2804.33H1384.97C1384.46 2818.85 1383.69 2826.34 1380.3 2833C1378.44 2827.88 1375.95 2821.41 1374.03 2817.25L1368.33 2819.43C1369.61 2822.31 1371.21 2826.28 1372.68 2830.31L1361.23 2831.08C1362.96 2828.33 1366.03 2819.43 1367.88 2813.29H1380.04V2806.89H1352.14V2813.29H1361.16C1359.31 2819.43 1356.49 2826.66 1355.08 2829.29C1354.38 2830.76 1354.12 2831.53 1352.4 2832.29L1354.76 2838.89C1359.95 2837.86 1370.64 2837.03 1375.05 2836.71L1375.63 2838.31L1378.32 2836.52C1377.1 2838.31 1375.76 2840.17 1374.03 2842.21L1379.72 2846.12C1389.52 2833.51 1390.03 2826.34 1391.05 2804.33H1400.14C1399.88 2808.42 1399.44 2828.13 1399.18 2831.91C1398.99 2836.01 1398.09 2836.33 1393.29 2836.84L1389.58 2837.22L1391.76 2843.43L1395.72 2843.05C1402.7 2842.34 1404.88 2841.32 1405.07 2835.05C1405.32 2829.54 1406.35 2802.66 1406.35 2798.05H1391.31ZM1378.06 2790.95H1355.4V2797.16H1378.06V2790.95ZM1470.18 2801.45V2795.24H1445.99C1446.95 2793 1447.78 2790.63 1448.61 2788.26L1442.47 2786.34C1439.33 2795.62 1434.85 2804.33 1429.54 2810.79L1433.83 2815.78C1437.48 2811.43 1440.48 2806.63 1443.11 2801.51H1445.22V2844.77H1451.62V2831.91H1468.39V2825.51H1451.62V2816.74H1467.04V2810.34H1451.62V2801.51L1470.18 2801.45ZM1427.11 2787.37C1423.72 2797.86 1418.4 2808.23 1413.09 2814.89L1417.25 2820.52C1418.98 2818.41 1420.58 2816.29 1422.05 2814.05V2844.39H1428.58V2802.34C1430.37 2798.44 1432.04 2794.21 1433.57 2789.35L1427.11 2787.37ZM1482.49 2811.11C1483.77 2810.92 1486.78 2810.79 1489.28 2810.6C1487.36 2813.86 1485.37 2816.74 1483.32 2819.37C1482.17 2820.84 1481.72 2821.29 1479.8 2821.8L1481.28 2828.07C1482.3 2827.75 1483.39 2827.56 1484.6 2827.3C1487.87 2826.79 1497.66 2825.25 1498.88 2825.25L1498.75 2819.24C1497.21 2819.56 1491.52 2820.39 1489.34 2820.71C1491.71 2817.64 1496.19 2810.15 1499.96 2802.6L1495.04 2800.17L1492.6 2804.77C1490.49 2804.97 1487.36 2805.09 1486.01 2805.09C1488.12 2802.66 1492.41 2794.41 1494.84 2788.9L1489.6 2786.73C1487.04 2793.06 1482.62 2801.13 1480.57 2803.81C1479.87 2804.77 1479.61 2804.97 1478.4 2805.48L1479.68 2811.56C1480.76 2811.37 1481.53 2811.17 1482.49 2811.11ZM1533.95 2801.06V2794.98H1518.84V2787.17L1512.7 2786.92V2794.98H1499.77V2801.06H1512.7V2808.61H1500.67V2814.57H1531.2V2808.61H1518.84V2801.06H1533.95ZM1501.31 2844.77H1507.45V2841.45H1523.96V2844.77H1530.17V2820.07H1501.31V2844.77ZM1523.96 2825.96V2835.56H1507.45V2825.96H1523.96ZM1499.84 2831.91C1496.38 2832.87 1480.44 2835.49 1477.5 2835.75L1478.27 2841.89C1480.96 2841.38 1497.08 2838.89 1500.16 2838.37L1499.96 2835.43L1499.84 2831.91ZM1597.84 2837.22C1588.88 2834.34 1581.97 2830.69 1576.15 2825.83H1595.28V2820.13H1572.5V2815.65H1590.87V2789.61H1547.67V2815.65H1566.1V2820.13H1543.25V2825.83H1562.52C1556.88 2830.69 1549.59 2834.41 1540.69 2837.41L1543.38 2843.62C1552.66 2839.53 1560.53 2834.47 1566.1 2829.35V2844.65H1572.5V2829.22C1578.2 2834.53 1585.43 2839.27 1595.09 2843.37L1597.84 2837.22ZM1566.1 2795.11V2799.85H1553.94V2795.11H1566.1ZM1584.6 2799.85H1572.5V2795.11H1584.6V2799.85ZM1553.94 2810.09V2805.22H1566.1V2810.09H1553.94ZM1572.5 2810.09V2805.22H1584.6V2810.09H1572.5Z" fill="#00526C"/>
<rect x="1265.68" y="2752.25" width="418" height="126" rx="21" stroke="#525252" stroke-width="2"/>
<path d="M1219.47 788.134L1242.56 748.134L1196.38 748.134L1219.47 788.134ZM1215.47 644.223L1215.47 752.134L1223.47 752.134L1223.47 644.223L1215.47 644.223Z" fill="#858585"/>
<path d="M1219.47 368.584L1219.47 545.293" stroke="#858585" stroke-width="8"/>
<path d="M1136.35 1317.93C1146.63 1317.93 1152.77 1312.61 1152.77 1301.51V1257.07H1142.35V1301.02C1142.35 1306.47 1140.7 1309.65 1135.38 1309.65C1133.8 1309.65 1132.28 1309.51 1130.9 1309.3V1317.58C1132.49 1317.79 1134.69 1317.93 1136.35 1317.93ZM1175.52 1305.65C1188.7 1305.65 1193.95 1300.61 1193.95 1291.22C1193.95 1282.32 1191.46 1278.74 1180.01 1275.98C1172.97 1274.32 1171.87 1273.22 1171.87 1270.11C1171.87 1266.04 1174.14 1265 1179.6 1265C1183.6 1265 1189.12 1265.97 1191.46 1266.73V1258.1C1188.91 1257.21 1184.63 1256.38 1179.18 1256.38C1168.07 1256.38 1161.66 1260.24 1161.66 1270.39C1161.66 1278.94 1164.62 1281.84 1174.83 1284.19C1182.15 1285.98 1183.53 1287.29 1183.53 1290.95C1183.53 1295.23 1181.46 1296.68 1175.11 1296.68C1170.28 1296.68 1164.55 1295.85 1161.59 1294.74V1303.92C1164.55 1304.75 1169.94 1305.65 1175.52 1305.65ZM1223.42 1305.65C1237.5 1305.65 1245.15 1300.54 1245.15 1281.01C1245.15 1261.49 1237.5 1256.38 1223.42 1256.38C1209.55 1256.38 1201.68 1261.49 1201.68 1281.01C1201.68 1300.54 1209.55 1305.65 1223.42 1305.65ZM1223.42 1296.88C1214.66 1296.88 1212.72 1292.81 1212.72 1281.01C1212.72 1269.35 1214.66 1264.94 1223.42 1264.94C1232.25 1264.94 1234.18 1269.35 1234.18 1281.01C1234.18 1292.81 1232.25 1296.88 1223.42 1296.88ZM1254.54 1304.96H1264.89V1268.52H1265.31L1281.87 1304.96H1296.29V1257.07H1286.01V1291.29H1285.59L1270.55 1257.07H1254.54V1304.96Z" fill="#00526C"/>
<path d="M1219.47 1409.86L1242.56 1369.86L1196.38 1369.86L1219.47 1409.86ZM1215.47 1330.79L1215.47 1373.86L1223.47 1373.86L1223.47 1330.79L1215.47 1330.79Z" fill="#858585"/>
<path d="M1219.18 1181.51L1219.47 1231.86" stroke="#858585" stroke-width="8"/>
<path d="M1136.35 1892.84C1146.63 1892.84 1152.77 1887.53 1152.77 1876.42V1831.98H1142.35V1875.94C1142.35 1881.39 1140.7 1884.56 1135.38 1884.56C1133.8 1884.56 1132.28 1884.42 1130.9 1884.22V1892.5C1132.49 1892.7 1134.69 1892.84 1136.35 1892.84ZM1175.52 1880.56C1188.7 1880.56 1193.95 1875.52 1193.95 1866.14C1193.95 1857.24 1191.46 1853.65 1180.01 1850.89C1172.97 1849.23 1171.87 1848.13 1171.87 1845.02C1171.87 1840.95 1174.14 1839.92 1179.6 1839.92C1183.6 1839.92 1189.12 1840.88 1191.46 1841.64V1833.02C1188.91 1832.12 1184.63 1831.29 1179.18 1831.29C1168.07 1831.29 1161.66 1835.16 1161.66 1845.3C1161.66 1853.86 1164.62 1856.75 1174.83 1859.1C1182.15 1860.89 1183.53 1862.21 1183.53 1865.86C1183.53 1870.14 1181.46 1871.59 1175.11 1871.59C1170.28 1871.59 1164.55 1870.76 1161.59 1869.66V1878.83C1164.55 1879.66 1169.94 1880.56 1175.52 1880.56ZM1223.42 1880.56C1237.5 1880.56 1245.15 1875.45 1245.15 1855.93C1245.15 1836.4 1237.5 1831.29 1223.42 1831.29C1209.55 1831.29 1201.68 1836.4 1201.68 1855.93C1201.68 1875.45 1209.55 1880.56 1223.42 1880.56ZM1223.42 1871.8C1214.66 1871.8 1212.72 1867.73 1212.72 1855.93C1212.72 1844.27 1214.66 1839.85 1223.42 1839.85C1232.25 1839.85 1234.18 1844.27 1234.18 1855.93C1234.18 1867.73 1232.25 1871.8 1223.42 1871.8ZM1254.54 1879.87H1264.89V1843.44H1265.31L1281.87 1879.87H1296.29V1831.98H1286.01V1866.21H1285.59L1270.55 1831.98H1254.54V1879.87Z" fill="#00526C"/>
<path d="M1219.47 1984.77L1242.56 1944.77L1196.38 1944.77L1219.47 1984.77ZM1215.47 1905.7L1215.47 1948.77L1223.47 1948.77L1223.47 1905.7L1215.47 1905.7Z" fill="#858585"/>
<path d="M1219.18 1756.42L1219.47 1806.77" stroke="#858585" stroke-width="8"/>
<path d="M1219.47 2579.79L1242.56 2539.79H1196.38L1219.47 2579.79ZM1215.47 2354.59V2543.79H1223.47V2354.59H1215.47Z" fill="#858585"/>
<path d="M2530.37 1006.31L2490.37 983.213L2490.37 1029.4L2530.37 1006.31ZM2029.08 1010.31L2494.37 1010.31L2494.37 1002.31L2029.08 1002.31L2029.08 1010.31Z" fill="#858585"/>
<path d="M2530.37 1572.1L2490.37 1549L2490.37 1595.19L2530.37 1572.1ZM2029.08 1576.1L2494.37 1576.1L2494.37 1568.1L2029.08 1568.1L2029.08 1576.1Z" fill="#858585"/>
<path d="M2530.37 2182.93L2490.37 2159.84L2490.37 2206.03L2530.37 2182.93ZM2029.08 2186.93L2494.37 2186.93L2494.37 2178.93L2029.08 2178.93L2029.08 2186.93Z" fill="#858585"/>
<path d="M2530.37 2759.77L2490.37 2736.67L2490.37 2782.86L2530.37 2759.77ZM2029.08 2763.77L2494.37 2763.77L2494.37 2755.77L2029.08 2755.77L2029.08 2763.77Z" fill="#858585"/>
<path d="M1216.26 3076.5C1209.09 3074.43 1203.01 3071.95 1197.98 3069.12C1202.12 3065.32 1205.29 3060.97 1208.6 3055.11V3047.04H1181.35C1181.83 3045.45 1182.18 3043.79 1182.66 3042.07H1213.85V3034H1202.88L1206.6 3028.68C1204.46 3026.54 1199.29 3022.33 1196.87 3020.47L1191.97 3026.54C1193.97 3028.2 1197.77 3031.65 1200.32 3034H1184.31C1184.87 3030.61 1185.35 3026.96 1185.83 3023.09L1177.41 3021.99C1176.93 3026.2 1176.38 3030.13 1175.62 3034H1167.96C1168.51 3032.48 1169.96 3027.3 1170.51 3024.75L1162.23 3023.3C1161.68 3026.34 1160.1 3032.68 1159.34 3034.62V3042.07H1173.62C1169.76 3055.52 1163.41 3066.08 1153.75 3075.46L1160.1 3082.3C1161.75 3080.57 1163.27 3078.85 1164.72 3077.19L1168.17 3084.3C1177.76 3081.05 1184.8 3078.09 1190.39 3074.71C1196.18 3078.78 1203.36 3082.02 1212.26 3085.06L1216.26 3076.5ZM1190.94 3064.22C1187.83 3061.6 1185.14 3058.56 1183 3055.18H1198.94C1197.01 3058.42 1194.46 3061.46 1190.94 3064.22ZM1165.62 3076.09C1170.1 3070.77 1173.55 3065.6 1176.31 3060.08C1178.24 3063.32 1180.59 3066.29 1183.42 3068.98C1178.73 3071.53 1173 3073.88 1165.62 3076.09ZM1282.94 3037.72V3029.23H1252.58C1253.34 3027.3 1253.96 3025.37 1254.72 3023.23L1246.58 3021.16C1245.54 3023.99 1244.58 3026.68 1243.4 3029.23H1224.98V3037.72H1239.06C1234.43 3045.45 1228.85 3051.73 1220.91 3057.8L1225.26 3065.74C1227.95 3063.32 1230.36 3061.18 1232.64 3059.04V3079.54H1241.06V3055.18H1251.48V3083.26H1259.9V3055.18H1270.38V3068.01C1270.38 3069.88 1270.11 3070.57 1267.28 3070.84L1263.14 3071.26L1265.97 3079.6L1269.69 3079.19C1276.25 3078.43 1278.8 3077.26 1278.8 3070.43V3046.35H1259.9V3039.86L1251.48 3039.52V3046.35H1243.61C1245.54 3043.66 1247.2 3040.76 1248.79 3037.72H1282.94Z" fill="#00526C"/>
<path d="M1219.47 3181.95L1242.56 3141.95L1196.38 3141.95L1219.47 3181.95ZM1215.47 3102.88L1215.47 3145.95L1223.47 3145.95L1223.47 3102.88L1215.47 3102.88Z" fill="#858585"/>
<path d="M1219.18 2953.6L1219.47 3003.95" stroke="#858585" stroke-width="8"/>
<path d="M1215.42 3615.42H1204.73V3610.31H1213.15V3602.65H1204.73V3598.86L1197.28 3598.51V3602.65H1194.86L1195.41 3599.75L1190.38 3598.44C1195.07 3594.3 1197.69 3590.51 1198.73 3585.26C1198.93 3584.51 1199 3583.82 1199.07 3583.06H1205.49C1205.42 3583.88 1205.21 3585.68 1205 3587.13C1204.8 3589.2 1204.38 3589.54 1201.49 3589.89L1198.59 3590.16L1200.86 3597.41L1204.45 3597.13C1210.46 3596.58 1212.25 3595.48 1212.59 3589.68C1212.8 3588.23 1213.35 3578.99 1213.56 3575.67H1186.31V3583.06H1191.2C1190.1 3587.33 1189.48 3589.54 1184.86 3593.27V3588.99H1179.47L1183.2 3584.37V3577.74H1171.54L1173.26 3573.88L1165.67 3572.5C1162.43 3579.4 1157.74 3585.75 1152.5 3591.54L1158.08 3595.75V3606.72C1158.08 3620.32 1156.7 3623.97 1152.63 3632.12L1159.53 3635.43C1162.09 3630.53 1163.88 3626.18 1164.64 3619.56H1168.16V3631.49H1174.51V3628.8L1176.44 3635.08L1179.41 3634.74C1183.75 3634.19 1184.86 3633.36 1184.86 3628.39V3613.14L1191.14 3615.35C1191.89 3613.62 1192.52 3611.9 1193 3610.31H1197.28V3615.42H1186.58V3623.01H1197.28V3634.53H1204.73V3623.01H1215.42V3615.42ZM1173.89 3584.85L1170.71 3588.99H1165.12C1166.16 3587.68 1166.92 3586.3 1167.81 3584.85H1173.89ZM1165.12 3596.17H1168.16V3600.65H1165.12V3596.17ZM1174.51 3596.17H1177.82V3600.65H1174.51V3596.17ZM1184.86 3596.3L1188.24 3600.24C1188.51 3600.03 1188.72 3599.89 1188.79 3599.75C1187.75 3603.69 1186.51 3607.97 1184.86 3611.76V3596.3ZM1165.12 3612.31V3609.9V3608.03H1168.16V3612.31H1165.12ZM1177.82 3608.03V3612.31H1174.51V3608.03H1177.82ZM1174.51 3628.11V3619.56H1177.82V3625.91C1177.82 3627.22 1177.68 3627.56 1176.09 3627.84L1174.51 3628.11ZM1249.81 3605.41C1247.95 3602.45 1244.43 3598.17 1242.22 3595.82L1240.22 3597.68V3592.92H1247.4V3584.57H1240.22V3574.02L1231.94 3573.67V3584.57H1224.56V3592.92H1231.32C1228.35 3600.86 1223.8 3608.86 1220.28 3613.83L1226.49 3618.94C1228.35 3615.97 1230.22 3612.66 1231.94 3609.14V3634.74H1240.22V3605.21C1241.81 3607.14 1243.19 3609.28 1244.22 3611L1249.81 3605.41ZM1283.28 3595.61H1258.64V3586.09C1265.54 3585.33 1273.34 3584.23 1280.52 3582.37L1278.31 3573.81C1268.99 3576.02 1260.23 3577.33 1250.23 3578.09V3599.82C1250.23 3616.66 1249.47 3621.42 1241.74 3631.08L1249.74 3635.77C1256.92 3625.97 1258.44 3619.35 1258.64 3604.31H1266.03V3634.12H1274.44V3604.31H1283.28V3595.61Z" fill="#00526C"/>
<path d="M1219.47 3733.02L1242.56 3693.02L1196.38 3693.02L1219.47 3733.02ZM1215.47 3653.94L1215.47 3697.02L1223.47 3697.02L1223.47 3653.94L1215.47 3653.94Z" fill="#858585"/>
<path d="M1219.18 3504.67L1219.47 3555.01" stroke="#858585" stroke-width="8"/>
<rect x="2637.18" y="1963.5" width="581.952" height="402.994" rx="34.5" stroke="#720085" stroke-width="3" stroke-dasharray="6 6"/>
<rect x="2637.18" y="2558.27" width="581.952" height="402.994" rx="34.5" stroke="#720085" stroke-width="3" stroke-dasharray="6 6"/>
</svg>
